<?xml version="1.0" encoding="UTF-8"?>
<!DOCTYPE svg PUBLIC "-//W3C//DTD SVG 1.1//EN" "http://www.w3.org/Graphics/SVG/1.1/DTD/svg11.dtd">
<!-- Creator: CorelDRAW -->
<svg xmlns="http://www.w3.org/2000/svg" xml:space="preserve" width="17.8557mm" height="17.8498mm" version="1.1" style="shape-rendering:geometricPrecision; text-rendering:geometricPrecision; image-rendering:optimizeQuality; fill-rule:evenodd; clip-rule:evenodd"
viewBox="0 0 54.62 54.6"
 xmlns:xlink="http://www.w3.org/1999/xlink"
 xmlns:xodm="http://www.corel.com/coreldraw/odm/2003">
 <defs>
  <style type="text/css">
   <![CDATA[
    .str2 {stroke:#FEFEFE;stroke-width:0.61;stroke-miterlimit:22.9256}
    .str1 {stroke:#ED3237;stroke-width:0.61;stroke-miterlimit:22.9256}
    .str0 {stroke:#3E4095;stroke-width:0.61;stroke-miterlimit:22.9256}
    .fil2 {fill:#FEFEFE}
    .fil1 {fill:#ED3237}
    .fil0 {fill:#2E3092}
   ]]>
  </style>
 </defs>
 <g id="Camada_x0020_1">
  <metadata id="CorelCorpID_0Corel-Layer"/>
  <g id="_2549951243056">
   <path class="fil0 str0" d="M41.9 47.91c2.12,-0.89 4.88,0.35 4.88,3.02 -0,2.82 -3.06,4.06 -5.23,2.83 -0.82,0.43 -1.76,0.48 -2.7,0.48l-0.51 0c-0.63,0 -1.19,-0.08 -1.68,-0.22l-1.63 0.11c-3.03,0.2 -6.19,0.16 -9.22,0.16 -3.16,-0.01 -6.33,-0.04 -9.49,-0.04 -1.99,0 -4.37,-1.06 -4.29,-3.41 0.09,-2.76 3.21,-3.24 5.33,-3.22 1.11,0.01 2.22,0.05 3.34,0.05 0.24,0 0.51,0 0.78,0l0.81 -14.34 -12.81 2.07c-2.43,0.39 -5.8,1.46 -8.02,0l-0.99 -0.65 -0.13 -1.18c-0.18,-1.59 0.51,-2.94 1.92,-3.68 0.66,-0.35 1.36,-0.5 2.05,-0.76 3.24,-1.23 6.5,-2.42 9.75,-3.64 1.96,-0.74 3.92,-1.48 5.86,-2.26 0.74,-0.3 1.79,-0.67 2.6,-1.06 0.05,-0.13 0.11,-0.24 0.17,-0.36 -1.08,-1.09 -2.28,-2.32 -2.65,-3.15 -0.49,-1.1 -0.13,-2.39 0.18,-3.49 0.32,-1.15 0.7,-2.3 1.09,-3.43 0.64,-1.88 1.33,-3.74 2,-5.61 0.41,-1.16 0.71,-2.6 1.26,-3.67 0.94,-1.83 2.61,-2.41 4.58,-2.07l1.37 0.24 0.53 1.29c0.71,1.72 0.56,7.68 0.55,9.68 -0.01,2.82 -0.1,5.65 -0.12,8.46 0.27,0.15 0.54,0.32 0.85,0.61 0.34,0.31 0.61,0.66 0.82,1.04 2.79,-0.23 6.37,-0.56 8.18,0.89l0.05 0.04 8.63 7.64c1.97,1.75 5.18,3.47 4.1,6.68l-0.45 1.33 -1.36 0.32c-2.11,0.5 -3,-0.1 -4.7,-0.98 -3.15,-1.63 -6.29,-3.27 -9.44,-4.89 -1.61,-0.83 -3.23,-1.65 -4.85,-2.47l1.05 17.42 2.31 0.13c0.47,-0.14 1,-0.22 1.6,-0.22l0.67 -0.04 2.98 0.33z"/>
  </g>
  <g id="_2549951242672">
   <path class="fil1 str1" d="M26.08 21.7c-0.41,0.67 -0.57,0.5 -1,1.03 -0.34,0.41 -0.38,0.93 -0.65,1.26 -0.51,0.62 -16.71,6.54 -19.23,7.5 -1.42,0.54 -2.5,0.55 -2.36,1.8 1.21,0.8 4.36,-0.09 6.23,-0.39l13.14 -2.13c0.73,-0.3 2.38,-3.05 2.96,-3.9l-1.31 23.15c-1.45,0.25 -4.88,0.11 -6.54,0.1 -4.01,-0.03 -3.09,1.59 -1.02,1.59 4.58,0 14.55,0.16 18.55,-0.11l0.1 -1.34 -3 -0.17 -1.44 -23.91c1.51,0.48 15.43,7.76 18.23,9.21 0.97,0.5 1.58,1.09 2.96,0.76 0.45,-1.35 -1.57,-2.41 -3.38,-3.99l-8.59 -7.61c-1.25,-1.01 -6.24,-0.27 -8.43,-0.22 -0.16,-2.52 -1.84,-2.03 -2.37,-3.05 0,-2.9 0.4,-16.88 -0.24,-18.42 -2.16,-0.37 -1.92,0.97 -3.04,4.1 -0.51,1.42 -3.68,9.9 -3.34,10.65 0.23,0.52 3.11,3.35 3.75,4.06z"/>
   <path class="fil2 str2" d="M25.92 50.14l4 0 -1.32 -22.14c-0.04,-0.72 0.17,-1.11 -0.57,-1.24 -1.09,-0.19 -0.66,0.06 -0.79,0.82 -0.06,0.33 -0.04,1.16 -0.06,1.55l-0.54 9c-0.24,4.01 -0.52,8 -0.72,12.01z"/>
   <path class="fil2 str2" d="M26.79 19.66l0.1 -9.47c-1.02,1.17 -1.47,3.76 -2.03,5.26 -0.48,1.3 -0.85,1.38 0.07,2.36 0.45,0.48 1.41,1.54 1.86,1.84z"/>
   <path class="fil2 str2" d="M11.87 30.7l8.67 -1.19c1.17,-0.32 2.12,-2.1 2.44,-3.01l-11.12 4.2z"/>
   <path class="fil2 str2" d="M34.01 25.89l10.6 5.41 -4.22 -3.67c-2.3,-1.99 -1.44,-2.19 -6.38,-1.74z"/>
   <path class="fil1 str1" d="M38.34 51.72l0.51 0c1.69,0 2.11,-0.21 1.61,-1.43l-1.61 -0.18 -0.52 0.03c-2.35,0 -2.34,1.58 0,1.58z"/>
   <path class="fil2 str2" d="M27.11 25.01l1.88 0.01 0.2 -1.51c-1.86,-1.05 -3.42,0.14 -2.07,1.49z"/>
   <path class="fil1 str1" d="M42.25 50.93c0.56,1.2 2,0.91 2,-0 0,-0.93 -1.52,-1.19 -2,0z"/>
  </g>
 </g>
</svg>
