<?xml version="1.0" encoding="UTF-8"?>
<!DOCTYPE svg PUBLIC "-//W3C//DTD SVG 1.1//EN" "http://www.w3.org/Graphics/SVG/1.1/DTD/svg11.dtd">
<!-- Creator: CorelDRAW -->
<svg xmlns="http://www.w3.org/2000/svg" xml:space="preserve" width="16.8461mm" height="16.8473mm" version="1.1" style="shape-rendering:geometricPrecision; text-rendering:geometricPrecision; image-rendering:optimizeQuality; fill-rule:evenodd; clip-rule:evenodd"
viewBox="0 0 48.73 48.73"
 xmlns:xlink="http://www.w3.org/1999/xlink"
 xmlns:xodm="http://www.corel.com/coreldraw/odm/2003">
 <defs>
  <style type="text/css">
   <![CDATA[
    .str0 {stroke:#ED3237;stroke-width:0.58;stroke-miterlimit:22.9256}
    .fil1 {fill:#373435}
    .fil0 {fill:#F54029}
   ]]>
  </style>
 </defs>
 <g id="Camada_x0020_1">
  <metadata id="CorelCorpID_0Corel-Layer"/>
  <g id="_2549956074944">
   <path class="fil0 str0" d="M9.05 4.86c-0.2,-0.35 -0.32,-0.81 -0.32,-1.37l0 -0.96c0,-1.79 0.79,-2.61 2.6,-2.08l0.6 0.17 0.23 1.85 0 1.02c0,0.54 -0.11,0.98 -0.29,1.32 0.57,0.13 1.11,0.35 1.6,0.65 0.14,-0.53 0.46,-1.04 0.82,-1.42 0.75,-0.8 1.91,-1.42 3.03,-1.12l0.52 0.14 0.14 0.52c0.38,1.42 -0.08,1.87 -0.99,2.78 -0.31,0.31 -0.52,0.59 -0.89,0.84 -0.23,0.15 -0.47,0.26 -0.71,0.32 0.26,0.49 0.46,1.03 0.59,1.62 0.73,-0.54 2.04,-0.76 3.91,-0.19l0.71 0.22 -0.16 2.57 -0.62 0.19c-1.8,0.56 -3.06,0.36 -3.8,-0.14 -0.12,0.59 -0.33,1.15 -0.62,1.66 0.54,0.13 1.07,0.46 1.46,0.83 0.8,0.75 1.42,1.91 1.12,3.03l-0.14 0.52 -0.06 0.02c0.08,-0.01 0.16,-0.01 0.24,-0 1.28,0.07 1.68,1.17 1.59,2.28 -0.03,0.33 -0.08,0.65 -0.15,0.96l4.72 0 -0 -3.52 -3.89 0c-3,0 -3.01,-3.42 0,-3.42l19.3 0c3.54,0 3.59,2.11 4.3,4.82 0.52,1.99 1.02,3.98 1.55,5.96 1.27,4.69 3.67,10.77 2.81,15.62l-0.14 0.77 -17.43 0.14 0 0.43c1.39,-0.03 2.57,-0.06 4.09,0.2l0.69 0.12 0.08 0.69c0.22,1.78 0.28,2.8 -0.04,4.59l-0.12 0.68 -0.69 0.09c-1.08,0.13 -2.26,0.15 -3.34,0.17 -1.6,0.03 -3.2,0.04 -4.8,0.03 -2.86,-0 -5.73,-0.05 -8.59,-0.05l-0.1 0 -1.57 -0.33 -0.08 -0.67c-0.22,-1.78 -0.28,-2.8 0.03,-4.59l0.12 -0.69 0.69 -0.08c1.4,-0.17 2.67,-0.16 4.02,-0.15l0 -0.43c-2.59,0.02 -5.18,0.08 -7.77,0.09 -1.62,0.01 -3.24,0.01 -4.86,-0.04 -1.1,-0.03 -2.35,-0.06 -3.43,-0.24l-0.74 -0.13 -0.18 -3.88 0 -0.02c0,-1.47 3.7,-15.85 4.39,-16.89l0.24 -0.37 0.27 -0.03 -0.05 -0.16c-0.56,-1.79 -0.36,-3.06 0.14,-3.79 -0.58,-0.15 -1.13,-0.38 -1.64,-0.69 -0.12,0.56 -0.47,1.12 -0.85,1.52 -0.75,0.8 -1.91,1.42 -3.03,1.12l-0.52 -0.14 -0.14 -0.52c-0.3,-1.12 0.32,-2.28 1.12,-3.03 0.4,-0.37 0.94,-0.71 1.5,-0.84 -0.3,-0.49 -0.53,-1.02 -0.67,-1.6 -0.35,0.19 -0.79,0.32 -1.35,0.32l-1.06 0.04 -1.83 -0.34 -0.17 -0.55c-0.55,-1.8 0.3,-2.58 2.07,-2.58l0.97 0c0.57,0 1.03,0.12 1.38,0.32 0.14,-0.57 0.37,-1.11 0.67,-1.6 -0.56,-0.12 -1.11,-0.46 -1.51,-0.84 -0.8,-0.75 -1.42,-1.91 -1.12,-3.02l0.09 -0.35 0.3 -0.2c1.04,-0.68 2.36,0.08 3.13,0.84 0.43,0.43 0.86,1.04 1.01,1.67 0.49,-0.3 1.03,-0.53 1.61,-0.68zm4.4 10.52c-0.49,0.29 -1.05,0.51 -1.66,0.64 0.5,0.75 0.7,2.02 0.14,3.83l-0.22 0.71 -0.72 -0.04c0.02,0.02 0.04,0.05 0.06,0.08 0.12,0.15 0.21,0.3 0.28,0.46l4.58 -0.05c0.12,-1.13 0.32,-2.56 1.26,-3.03 -1.08,0.22 -2.18,-0.37 -2.9,-1.15 -0.36,-0.39 -0.69,-0.91 -0.83,-1.45z"/>
  </g>
  <g id="_2549956076240">
   <path class="fil1 str0" d="M20.29 16.6l4.83 0 0 5.4 -6.81 0c0.15,-1.01 0.91,-3.17 -0.35,-3.24 -1.07,-0.06 -1.05,2.17 -1.2,3.18l-5.93 0.06c-0.62,-0.26 0.04,0.22 -0.27,-0.3 -0.19,-0.32 0.05,-0.14 -0.25,-0.53 -0.41,-0.54 -0.29,-0.38 -1.04,-0.3 -0.48,0.72 -4.23,15.03 -4.23,16.37l0.14 3.11c2.75,0.48 13.32,0.18 16.84,0.17l0 2.32c-1.92,0 -2.98,-0.08 -4.85,0.14 -0.31,1.77 -0.25,2.51 -0.03,4.31l0.82 0.17c3.45,0 13.93,0.19 16.62,-0.14 0.31,-1.77 0.25,-2.51 0.03,-4.31 -1.95,-0.34 -2.76,-0.19 -4.86,-0.17l-0.01 -2.32 17.59 -0.14c0.79,-4.49 -1.36,-9.92 -2.79,-15.21 -0.53,-1.97 -1.02,-3.95 -1.56,-5.97 -0.63,-2.42 -0.5,-4.12 -3.39,-4.12l-19.3 0c-1.76,0 -1.75,1.54 0,1.54z"/>
   <path class="fil1 str0" d="M9.63 5.7c-2.39,0.43 -4.42,2.71 -3.91,5.61 0.4,2.3 2.79,4.34 5.61,3.85 6.12,-1.06 4.55,-10.59 -1.69,-9.46z"/>
   <polygon class="fil1 str0" points="6.58,38.97 45.96,38.97 45.96,37.42 6.58,37.42 "/>
   <polygon class="fil1 str0" points="26.66,35.88 36.55,35.88 35.67,30.54 34.96,30.47 26.63,30.48 "/>
   <polygon class="fil1 str0" points="15.99,35.88 25.11,35.88 25.11,30.48 16.87,30.49 "/>
   <polygon class="fil1 str0" points="26.66,28.94 35.39,28.94 34.51,23.6 33.8,23.53 26.66,23.54 "/>
   <polygon class="fil1 str0" points="17.15,28.94 25.16,28.94 25.11,23.54 18.03,23.55 "/>
   <polygon class="fil1 str0" points="6.82,35.82 14.44,35.88 15.32,30.48 8.18,30.49 "/>
   <polygon class="fil1 str0" points="38.11,35.82 45.71,35.88 44.36,30.54 37.24,30.48 "/>
   <polygon class="fil1 str0" points="26.66,22 34.19,22 33.35,16.66 32.64,16.59 26.66,16.6 "/>
   <polygon class="fil1 str0" points="8.61,28.94 15.6,28.93 16.47,23.54 10.01,23.54 "/>
   <polygon class="fil1 str0" points="36.96,28.88 43.91,28.95 42.53,23.59 36.08,23.54 "/>
   <path class="fil1 str0" d="M9.69 7.28c-4.35,1.17 -2.56,7.38 1.6,6.3 4.14,-1.07 2.51,-7.41 -1.6,-6.3z"/>
   <path class="fil1 str0" d="M35.8 21.94l6.31 0.06c-0.15,-0.87 -0.44,-1.76 -0.67,-2.63 -0.92,-3.53 0.07,-2.77 -6.52,-2.77l0.88 5.34z"/>
   <polygon class="fil1 str0" points="18.55,45.91 33.22,45.91 33.22,44.37 18.65,44.37 "/>
   <polygon class="fil1 str0" points="23.57,42.82 28.2,42.82 28.2,40.51 23.57,40.51 "/>
   <path class="fil1 str0" d="M19.53 11.02l0.08 -1.19c-4.55,-1.39 -4.54,2.58 -0.08,1.19z"/>
   <path class="fil1 str0" d="M9.85 19.51l1.19 0.07c1.39,-4.54 -2.58,-4.54 -1.19,-0.07z"/>
   <path class="fil1 str0" d="M17.06 3.82c-1.43,-0.38 -3.31,1.8 -2.56,2.56 0.71,0.71 1.5,-0.37 1.81,-0.69 0.58,-0.58 1.04,-0.79 0.75,-1.87z"/>
   <path class="fil1 str0" d="M3.82 3.82c-0.38,1.43 1.8,3.3 2.55,2.55 0.84,-0.84 -1.58,-3.19 -2.55,-2.55z"/>
   <path class="fil1 str0" d="M1.35 11.03l1.17 0.22 0.97 -0.04c1.73,0 1.73,-1.54 0,-1.54l-0.97 0c-1.23,0 -1.51,0.27 -1.17,1.36z"/>
   <path class="fil1 str0" d="M3.82 17.04c1.43,0.38 3.31,-1.8 2.56,-2.55 -0.75,-0.75 -2.94,1.13 -2.56,2.55z"/>
   <path class="fil1 str0" d="M17.06 17.04c0.39,-1.43 -1.81,-3.31 -2.56,-2.55 -0.75,0.75 1.13,2.94 2.56,2.55z"/>
   <path class="fil1 str0" d="M9.67 2.53l0 0.96c0,1.73 1.54,1.72 1.54,0l0 -0.96 -0.14 -1.18c-1.12,-0.33 -1.4,-0.06 -1.4,1.18z"/>
  </g>
 </g>
</svg>
