<?xml version="1.0" encoding="UTF-8"?>
<!DOCTYPE svg PUBLIC "-//W3C//DTD SVG 1.1//EN" "http://www.w3.org/Graphics/SVG/1.1/DTD/svg11.dtd">
<!-- Creator: CorelDRAW -->
<svg xmlns="http://www.w3.org/2000/svg" xml:space="preserve" width="16.1998mm" height="16.2mm" version="1.1" style="shape-rendering:geometricPrecision; text-rendering:geometricPrecision; image-rendering:optimizeQuality; fill-rule:evenodd; clip-rule:evenodd"
viewBox="0 0 45.11 45.11"
 xmlns:xlink="http://www.w3.org/1999/xlink"
 xmlns:xodm="http://www.corel.com/coreldraw/odm/2003">
 <defs>
  <style type="text/css">
   <![CDATA[
    .str0 {stroke:#FFF212;stroke-width:0.56;stroke-miterlimit:22.9256}
    .fil0 {fill:#373435}
   ]]>
  </style>
 </defs>
 <g id="Camada_x0020_1">
  <metadata id="CorelCorpID_0Corel-Layer"/>
  <g id="_2549947581424">
   <path class="fil0 str0" d="M18.63 15.08l4.65 0 0 5.2 -6.55 0c0.14,-0.97 0.88,-3.05 -0.34,-3.12 -1.03,-0.05 -1.01,2.09 -1.16,3.06l-5.71 0.06c-0.6,-0.25 0.04,0.21 -0.26,-0.29 -0.18,-0.31 0.04,-0.14 -0.24,-0.51 -0.4,-0.52 -0.28,-0.37 -1,-0.29 -0.47,0.7 -4.07,14.47 -4.07,15.76l0.14 2.99c2.65,0.46 12.82,0.17 16.21,0.16l0 2.23c-1.85,0 -2.87,-0.08 -4.67,0.14 -0.3,1.71 -0.24,2.42 -0.03,4.15l0.79 0.16c3.32,0 13.41,0.18 16,-0.14 0.3,-1.71 0.24,-2.41 0.03,-4.15 -1.88,-0.33 -2.66,-0.19 -4.68,-0.16l-0.01 -2.23 16.93 -0.14c0.76,-4.33 -1.31,-9.55 -2.69,-14.65 -0.51,-1.89 -0.99,-3.8 -1.5,-5.75 -0.61,-2.33 -0.48,-3.97 -3.27,-3.97l-18.58 0c-1.69,0 -1.68,1.48 0,1.48z"/>
   <path class="fil0 str0" d="M8.37 4.59c-2.3,0.42 -4.26,2.61 -3.77,5.4 0.39,2.21 2.68,4.18 5.4,3.71 5.89,-1.02 4.38,-10.2 -1.63,-9.11z"/>
   <polygon class="fil0 str0" points="5.44,36.62 43.35,36.62 43.35,35.13 5.44,35.13 "/>
   <polygon class="fil0 str0" points="24.76,33.65 34.29,33.65 33.44,28.51 32.76,28.44 24.74,28.45 "/>
   <polygon class="fil0 str0" points="14.49,33.64 23.28,33.65 23.28,28.45 15.34,28.46 "/>
   <polygon class="fil0 str0" points="24.76,26.96 33.17,26.96 32.32,21.82 31.64,21.75 24.76,21.77 "/>
   <polygon class="fil0 str0" points="15.61,26.96 23.32,26.96 23.28,21.77 16.46,21.77 "/>
   <polygon class="fil0 str0" points="5.67,33.59 13,33.64 13.85,28.45 6.98,28.46 "/>
   <polygon class="fil0 str0" points="35.79,33.59 43.11,33.64 41.81,28.5 34.95,28.44 "/>
   <polygon class="fil0 str0" points="24.76,20.28 32.01,20.28 31.21,15.14 30.53,15.07 24.76,15.08 "/>
   <polygon class="fil0 str0" points="7.39,26.96 14.12,26.96 14.96,21.77 8.74,21.77 "/>
   <polygon class="fil0 str0" points="34.68,26.91 41.37,26.97 40.05,21.81 33.83,21.76 "/>
   <path class="fil0 str0" d="M8.43 6.11c-4.19,1.12 -2.46,7.1 1.54,6.07 3.98,-1.03 2.42,-7.13 -1.54,-6.07z"/>
   <path class="fil0 str0" d="M33.56 20.22l6.08 0.06c-0.15,-0.84 -0.42,-1.69 -0.64,-2.54 -0.89,-3.4 0.06,-2.67 -6.28,-2.67l0.84 5.14z"/>
   <polygon class="fil0 str0" points="16.96,43.3 31.08,43.3 31.08,41.81 17.05,41.81 "/>
   <polygon class="fil0 str0" points="21.79,40.33 26.25,40.33 26.25,38.1 21.79,38.1 "/>
   <path class="fil0 str0" d="M17.9 9.72l0.07 -1.14c-4.38,-1.34 -4.37,2.48 -0.07,1.14z"/>
   <path class="fil0 str0" d="M8.58 17.88l1.14 0.07c1.34,-4.37 -2.48,-4.37 -1.14,-0.07z"/>
   <path class="fil0 str0" d="M15.53 2.78c-1.38,-0.37 -3.19,1.74 -2.46,2.46 0.69,0.69 1.44,-0.36 1.75,-0.66 0.56,-0.56 1,-0.76 0.72,-1.8z"/>
   <path class="fil0 str0" d="M2.78 2.78c-0.37,1.37 1.73,3.18 2.46,2.45 0.81,-0.81 -1.52,-3.07 -2.46,-2.45z"/>
   <path class="fil0 str0" d="M0.4 9.72l1.12 0.21 0.94 -0.04c1.66,0 1.67,-1.48 0,-1.48l-0.93 0c-1.19,0 -1.45,0.26 -1.13,1.31z"/>
   <path class="fil0 str0" d="M2.78 15.51c1.38,0.37 3.19,-1.74 2.46,-2.46 -0.72,-0.72 -2.83,1.09 -2.46,2.46z"/>
   <path class="fil0 str0" d="M15.52 15.51c0.37,-1.37 -1.74,-3.18 -2.46,-2.46 -0.72,0.72 1.09,2.83 2.46,2.46z"/>
   <path class="fil0 str0" d="M8.41 1.53l0 0.93c0,1.67 1.49,1.66 1.49,0l0 -0.93 -0.14 -1.13c-1.08,-0.31 -1.35,-0.05 -1.35,1.13z"/>
  </g>
 </g>
</svg>
