<?xml version="1.0" encoding="UTF-8"?>
<!DOCTYPE svg PUBLIC "-//W3C//DTD SVG 1.1//EN" "http://www.w3.org/Graphics/SVG/1.1/DTD/svg11.dtd">
<!-- Creator: CorelDRAW -->
<svg xmlns="http://www.w3.org/2000/svg" xml:space="preserve" width="11.0205mm" height="11.0238mm" version="1.1" style="shape-rendering:geometricPrecision; text-rendering:geometricPrecision; image-rendering:optimizeQuality; fill-rule:evenodd; clip-rule:evenodd"
viewBox="0 0 7.81 7.81"
 xmlns:xlink="http://www.w3.org/1999/xlink"
 xmlns:xodm="http://www.corel.com/coreldraw/odm/2003">
 <defs>
  <style type="text/css">
   <![CDATA[
    .str1 {stroke:black;stroke-width:0.02;stroke-miterlimit:4}
    .str0 {stroke:#FCF5F5;stroke-width:0.02;stroke-miterlimit:4}
    .fil5 {fill:none;fill-rule:nonzero}
    .fil8 {fill:black;fill-rule:nonzero}
    .fil4 {fill:#FCF5F5;fill-rule:nonzero}
    .fil0 {fill:black;fill-rule:nonzero;fill-opacity:0.000000}
    .fil7 {fill:black;fill-rule:nonzero;fill-opacity:0.992157}
    .fil6 {fill:#313229;fill-rule:nonzero;fill-opacity:0.996078}
    .fil2 {fill:#BFCE8B;fill-rule:nonzero;fill-opacity:0.996078}
    .fil1 {fill:#EBE1DD;fill-rule:nonzero;fill-opacity:0.996078}
    .fil3 {fill:#FCF5F5;fill-rule:nonzero;fill-opacity:0.996078}
   ]]>
  </style>
 </defs>
 <g id="Camada_x0020_1">
  <metadata id="CorelCorpID_0Corel-Layer"/>
  <path class="fil0" d="M4.11 0.01l3.69 0 0 7.79 -3.43 -0.01c0.18,-0.03 0.32,-0.11 0.41,-0.23l0.12 -0.23c0.03,-0.08 0.03,-0.18 0.02,-0.3l0.02 -0.02 0.16 -0.13 0.08 -0.12 0.05 -0.17 0 -0.58 0.23 -0.29 0.09 -0.21 0.04 -0.04c0.22,-0.14 0.41,-0.3 0.57,-0.49 0.19,-0.22 0.36,-0.47 0.49,-0.76 0.1,-0.21 0.17,-0.44 0.21,-0.7l-0.07 -0.1c-0.03,0.01 -0.04,-0.02 -0.02,-0.08l0.02 -0.02 0 -0.11c0.05,-0 0.08,-0.03 0.11,-0.07 0.02,-0.05 0.03,-0.12 0.02,-0.21l-0.02 -0.02 0 -0.21 -0.02 -0.02 -0.03 -0.29 -0.08 -0.29 -0.12 -0.32c-0.18,-0.39 -0.42,-0.73 -0.72,-1 -0.24,-0.22 -0.53,-0.41 -0.85,-0.55l-0.24 -0.09 -0.29 -0.08 -0.26 -0.03 -0.02 -0.02 -0.15 0 0 -0.02z"/>
  <path class="fil0" d="M4.11 0l3.69 0 0.01 0 0 0.01 0 7.79 0 0.01 -0.01 0 -3.43 -0.01 -0 -0.02c0.18,-0.03 0.32,-0.1 0.41,-0.23l0.01 0 -0.01 -0 0.12 -0.23 0.01 0 -0.01 -0c0.03,-0.08 0.03,-0.18 0.01,-0.3l-0 -0 0 -0 0.02 -0.02 0 -0 0 -0 0.16 -0.13 0 0.01 -0.01 -0 0.08 -0.12 0.01 0 -0.01 -0 0.05 -0.17 0.01 0 -0.01 0 0 -0.58 0 -0 0 -0 0.23 -0.29 0.01 0 -0.01 -0 0.09 -0.21 0 -0 0 -0 0.04 -0.04 0 -0 0 -0c0.22,-0.14 0.41,-0.3 0.57,-0.49l0 0 0 -0c0.19,-0.22 0.36,-0.47 0.49,-0.76l0 0 0 -0c0.1,-0.21 0.17,-0.44 0.21,-0.7l0.01 0 -0.01 0 -0.07 -0.1 0.01 -0 0 0.01c-0.02,0 -0.03,-0 -0.04,-0.02 -0,-0.02 -0,-0.04 0,-0.07l0 -0 0 -0 0.02 -0.02 0.01 0.01 -0.01 0 0 -0.11 0 -0.01 0.01 -0c0.05,-0 0.08,-0.02 0.1,-0.06l0.01 0 -0.01 -0c0.02,-0.05 0.03,-0.12 0.01,-0.21l0.01 -0 -0.01 0.01 -0.02 -0.02 -0 -0 0 -0 0 -0.21 0.01 0 -0.01 0.01 -0.02 -0.02 -0 -0 -0 -0 -0.03 -0.29 0.01 -0 -0.01 0 -0.08 -0.29 0.01 -0 -0.01 0 -0.12 -0.32 0.01 -0 -0.01 0c-0.18,-0.39 -0.42,-0.72 -0.72,-0.99l0 0 -0 -0c-0.24,-0.22 -0.53,-0.4 -0.85,-0.55l0 -0.01 -0 0.01 -0.24 -0.09 0 -0.01 -0 0.01 -0.29 -0.08 0 -0.01 -0 0.01 -0.26 -0.03 -0 -0 -0 -0 -0.02 -0.02 0.01 -0.01 0 0.01 -0.15 0 -0.01 0 0 -0.01 0 -0.02 0 -0.01 0.01 0zm0.01 0.01l0 0.02 -0.01 0 0 -0.01 0.15 0 0 0 0 0 0.02 0.02 -0.01 0.01 0 -0.01 0.26 0.03 0 0 0 0 0.29 0.08 0 0 0 0 0.24 0.09 0 0 0 0c0.33,0.14 0.61,0.33 0.85,0.55l-0.01 0.01 0.01 -0.01c0.3,0.27 0.54,0.61 0.72,1l0 0 0 0 0.12 0.32 0 0 0 0 0.08 0.29 0 0 0 0 0.03 0.29 -0.01 0 0.01 -0.01 0.02 0.02 0 0 0 0 0 0.21 -0.01 0 0.01 -0.01 0.02 0.02 0 0 0 0c0.01,0.09 0.01,0.16 -0.02,0.22l-0 0 -0 0c-0.02,0.04 -0.06,0.07 -0.11,0.07l-0 -0.01 0.01 0 0 0.11 0 0 -0 0 -0.02 0.02 -0.01 -0.01 0.01 0c-0.01,0.03 -0.01,0.05 -0,0.06 0,0.01 0.01,0.01 0.02,0.01l0 -0 0 0 0.07 0.1 0 0 -0 0c-0.04,0.26 -0.12,0.49 -0.21,0.7l-0.01 -0 0.01 0c-0.13,0.29 -0.29,0.54 -0.49,0.76l-0.01 -0.01 0.01 0c-0.16,0.19 -0.35,0.36 -0.57,0.5l-0 -0.01 0.01 0.01 -0.04 0.04 -0.01 -0.01 0.01 0 -0.09 0.21 -0 0 -0 0 -0.23 0.29 -0.01 -0 0.01 0 0 0.58 0 0 -0 0 -0.05 0.17 -0 0 -0 0 -0.08 0.12 -0 0 -0 0 -0.16 0.13 -0 -0.01 0.01 0.01 -0.02 0.02 -0.01 -0.01 0.01 -0c0.02,0.12 0.01,0.23 -0.02,0.31l-0 0 -0 0 -0.12 0.23 -0 0 -0 0c-0.09,0.12 -0.23,0.2 -0.42,0.23l-0 -0.01 0 -0.01 3.43 0.01 0 0.01 -0.01 0 0 -7.79 0.01 0 0 0.01 -3.69 0 0 -0.01 0.01 0z"/>
  <g id="_2764192448256">
   <polygon class="fil1" points="3.79,0.24 3.87,0.25 3.79,0.25 "/>
   <path class="fil1" d="M3.79 0.23l0.08 0.01 0 0.02 -0.08 0.01 -0.01 0 0 -0.01 0 -0.02 0 -0.01 0.01 0zm0.01 0.01l0 0.02 -0.01 0 -0 -0.01 0.08 -0.01 0 0.01 -0 0.01 -0.08 -0.01 0 -0.01 0.01 0z"/>
   <polygon class="fil1" points="3.93,0.24 4.01,0.25 3.93,0.25 "/>
   <path class="fil1" d="M3.93 0.23l0.08 0.01 0 0.02 -0.08 0.01 -0.01 0 0 -0.01 0 -0.02 0 -0.01 0.01 0zm0.01 0.01l0 0.02 -0.01 0 -0 -0.01 0.08 -0.01 0 0.01 -0 0.01 -0.08 -0.01 0 -0.01 0.01 0z"/>
   <path class="fil1" d="M4.51 0.31l0.35 0.09 0.47 0.23c0.25,0.15 0.46,0.33 0.65,0.54 0.22,0.24 0.39,0.52 0.52,0.85l0.14 0.5 0.02 0.23 0.02 0.02 0 0.33 0.05 0.08 0.07 0.02 -0.02 0.2c-0.06,-0.01 -0.1,0 -0.12,0.04l-0.15 0.53 -0.15 0.33c-0.17,0.31 -0.39,0.58 -0.65,0.8l-0.03 0.02 -0.01 -0.28c0.25,-0.28 0.44,-0.62 0.56,-1.04l0.09 -0.44 0 -0.14 0.02 -0.02 0 -0.43 -0.02 -0.02 -0.02 -0.24 -0.08 -0.33c-0.07,-0.22 -0.15,-0.43 -0.26,-0.61 -0.17,-0.3 -0.38,-0.55 -0.63,-0.77l-0.35 -0.26 -0.3 -0.17 -0.17 -0.06 0 -0.02z"/>
   <path class="fil1" d="M4.51 0.31l0.35 0.09 0 0 0 0 0.47 0.23 0 0 0 0c0.25,0.15 0.46,0.33 0.65,0.54l-0.01 0.01 0.01 -0.01c0.22,0.24 0.39,0.53 0.52,0.85l0 0 0 0 0.14 0.5 0 0 0 0 0.02 0.23 -0.01 0 0.01 -0.01 0.02 0.02 0 0 0 0 0 0.33 -0.01 0 0.01 -0 0.05 0.08 -0.01 0 0 -0.01 0.07 0.02 0.01 0 -0 0.01 -0.02 0.2 -0 0.01 -0.01 -0c-0.06,-0.01 -0.09,0 -0.11,0.03l-0.01 -0 0.01 0 -0.15 0.53 -0 0 -0 0 -0.15 0.33 -0 0 -0 0c-0.17,0.31 -0.39,0.58 -0.65,0.8l-0 0 -0 0 -0.03 0.02 -0.01 0.01 -0 -0.01 -0.01 -0.28 -0 -0 0 -0c0.25,-0.28 0.44,-0.62 0.56,-1.03l0.01 0 -0.01 -0 0.09 -0.44 0.01 0 -0.01 0 0 -0.14 0 -0 0 -0 0.02 -0.02 0.01 0.01 -0.01 0 0 -0.43 0.01 0 -0.01 0.01 -0.02 -0.02 -0 -0 -0 -0 -0.02 -0.24 0.01 -0 -0.01 0 -0.08 -0.33 0.01 -0 -0.01 0c-0.07,-0.22 -0.15,-0.42 -0.26,-0.61l0 0 0 -0c-0.17,-0.3 -0.38,-0.55 -0.63,-0.77l0 -0.01 -0 0.01 -0.35 -0.26 0 -0.01 -0 0.01 -0.3 -0.17 0 -0.01 -0 0.01 -0.17 -0.06 -0.01 -0 0 -0.01 0 -0.02 0 -0.01 0.01 0zm0.01 0.01l0 0.02 -0.01 0 0 -0.01 0.17 0.06 0 0 0 0 0.3 0.17 0 0 0 0 0.35 0.26 0 0 0 0c0.25,0.22 0.46,0.47 0.63,0.77l-0.01 0 0.01 -0c0.11,0.18 0.19,0.39 0.26,0.61l0 0 0 0 0.08 0.33 0 0 0 0 0.02 0.24 -0.01 0 0.01 -0.01 0.02 0.02 0 0 0 0 0 0.43 0 0 -0 0 -0.02 0.02 -0.01 -0.01 0.01 0 0 0.14 0 0 -0 0 -0.09 0.44 -0 0 -0 0c-0.12,0.41 -0.31,0.76 -0.56,1.04l-0.01 -0.01 0.01 -0 0.01 0.28 -0.01 0 -0 -0.01 0.03 -0.02 0 0.01 -0 -0.01c0.26,-0.22 0.48,-0.49 0.65,-0.8l0.01 0 -0.01 -0 0.15 -0.33 0.01 0 -0.01 -0 0.15 -0.53 0 -0 0 -0c0.02,-0.04 0.07,-0.05 0.13,-0.04l-0 0.01 -0.01 -0 0.02 -0.2 0.01 0 -0 0.01 -0.07 -0.02 -0 -0 -0 -0 -0.05 -0.08 -0 -0 0 -0 0 -0.33 0.01 0 -0.01 0.01 -0.02 -0.02 -0 -0 -0 -0 -0.02 -0.23 0.01 -0 -0.01 0 -0.14 -0.5 0.01 -0 -0.01 0c-0.13,-0.33 -0.3,-0.61 -0.52,-0.85l-0 -0 0 0c-0.18,-0.21 -0.4,-0.39 -0.65,-0.54l0 -0.01 -0 0.01 -0.47 -0.23 0 -0.01 -0 0.01 -0.35 -0.09 0 -0.01 0.01 0z"/>
   <polygon class="fil1" points="2.16,0.71 2.18,0.74 "/>
   <path class="fil1" d="M2.17 0.71l0.02 0.03 -0.01 0.01 -0.02 -0.03 0.01 -0.01zm0 0l0.02 0.03 -0.01 0.01 -0.02 -0.03 0.01 -0.01z"/>
   <polygon class="fil1" points="3.23,1.12 3.2,1.17 "/>
   <path class="fil1" d="M3.23 1.12l-0.03 0.05 -0.01 -0.01 0.03 -0.05 0.01 0.01zm0 0l-0.03 0.05 -0.01 -0.01 0.03 -0.05 0.01 0.01z"/>
   <polygon class="fil1" points="1.84,1.17 1.8,1.23 "/>
   <path class="fil1" d="M1.85 1.17l-0.05 0.06 -0.01 -0.01 0.05 -0.06 0.01 0.01zm0 0l-0.05 0.06 -0.01 -0.01 0.05 -0.06 0.01 0.01z"/>
   <polygon class="fil1" points="1.75,1.27 1.74,1.3 "/>
   <path class="fil1" d="M1.76 1.28l-0.02 0.03 -0.01 -0.01 0.02 -0.03 0.01 0.01zm0 0l-0.02 0.03 -0.01 -0.01 0.02 -0.03 0.01 0.01z"/>
   <polygon class="fil1" points="4.84,2.35 4.86,2.38 "/>
   <path class="fil1" d="M4.85 2.35l0.02 0.03 -0.01 0.01 -0.02 -0.03 0.01 -0.01zm0 0l0.02 0.03 -0.01 0.01 -0.02 -0.03 0.01 -0.01z"/>
   <polygon class="fil1" points="3.7,3.37 3.71,3.43 3.69,3.43 "/>
   <path class="fil1" d="M3.71 3.37l0.01 0.05 0 0.01 -0.01 0 -0.02 0 -0.01 0 0 -0.01 0.01 -0.05 0.02 0zm0 0l-0.01 0.05 -0.01 -0 0 -0.01 0.02 0 0 0.01 -0.01 0 -0.01 -0.05 0.01 -0 0.01 0z"/>
   <polygon class="fil1" points="3.68,3.78 3.69,3.84 3.68,3.84 "/>
   <path class="fil1" d="M3.69 3.78l0.01 0.05 0 0.01 -0.01 0 -0.02 0 -0.01 0 0 -0.01 0.01 -0.05 0.02 0zm0 0l-0.01 0.05 -0.01 -0 0 -0.01 0.02 0 0 0.01 -0.01 0 -0.01 -0.05 0.01 -0 0.01 0z"/>
   <polygon class="fil1" points="3.7,4.29 3.73,4.33 "/>
   <path class="fil1" d="M3.71 4.28l0.03 0.05 -0.01 0.01 -0.03 -0.05 0.01 -0.01zm0 0l0.03 0.05 -0.01 0.01 -0.03 -0.05 0.01 -0.01z"/>
   <polygon class="fil1" points="3.97,4.3 3.96,4.33 "/>
   <path class="fil1" d="M3.98 4.31l-0.02 0.03 -0.01 -0.01 0.02 -0.03 0.01 0.01zm0 0l-0.02 0.03 -0.01 -0.01 0.02 -0.03 0.01 0.01z"/>
   <polygon class="fil1" points="1.78,4.76 1.8,4.79 "/>
   <path class="fil1" d="M1.79 4.76l0.02 0.03 -0.01 0.01 -0.02 -0.03 0.01 -0.01zm0 0l0.02 0.03 -0.01 0.01 -0.02 -0.03 0.01 -0.01z"/>
   <polygon class="fil1" points="3.52,4.9 3.53,4.93 "/>
   <path class="fil1" d="M3.52 4.89l0.02 0.03 -0.01 0.01 -0.02 -0.03 0.01 -0.01zm0 0l0.02 0.03 -0.01 0.01 -0.02 -0.03 0.01 -0.01z"/>
   <polygon class="fil1" points="4.29,4.9 4.28,4.93 "/>
   <path class="fil1" d="M4.3 4.9l-0.02 0.03 -0.01 -0.01 0.02 -0.03 0.01 0.01zm0 0l-0.02 0.03 -0.01 -0.01 0.02 -0.03 0.01 0.01z"/>
   <polygon class="fil1" points="1.92,4.91 1.99,5 "/>
   <path class="fil1" d="M1.92 4.91l0.08 0.09 -0.01 0.01 -0.08 -0.09 0.01 -0.01zm0 0l0.08 0.09 -0.01 0.01 -0.08 -0.09 0.01 -0.01z"/>
   <polygon class="fil1" points="3.65,5.03 3.68,5.08 "/>
   <path class="fil1" d="M3.66 5.03l0.03 0.05 -0.01 0.01 -0.03 -0.05 0.01 -0.01zm0 0l0.03 0.05 -0.01 0.01 -0.03 -0.05 0.01 -0.01z"/>
   <polygon class="fil1" points="4.14,5.05 4.13,5.08 "/>
   <path class="fil1" d="M4.15 5.05l-0.02 0.03 -0.01 -0.01 0.02 -0.03 0.01 0.01zm0 0l-0.02 0.03 -0.01 -0.01 0.02 -0.03 0.01 0.01z"/>
   <polygon class="fil1" points="2.12,5.09 2.13,5.12 "/>
   <path class="fil1" d="M2.12 5.09l0.02 0.03 -0.01 0.01 -0.02 -0.03 0.01 -0.01zm0 0l0.02 0.03 -0.01 0.01 -0.02 -0.03 0.01 -0.01z"/>
   <polygon class="fil1" points="3.73,5.12 3.74,5.15 "/>
   <path class="fil1" d="M3.74 5.12l0.02 0.03 -0.01 0.01 -0.02 -0.03 0.01 -0.01zm0 0l0.02 0.03 -0.01 0.01 -0.02 -0.03 0.01 -0.01z"/>
   <polygon class="fil1" points="4.08,5.12 4.06,5.15 "/>
   <path class="fil1" d="M4.09 5.13l-0.02 0.03 -0.01 -0.01 0.02 -0.03 0.01 0.01zm0 0l-0.02 0.03 -0.01 -0.01 0.02 -0.03 0.01 0.01z"/>
   <path class="fil1" d="M2.83 6.22l0.23 0.12 0.2 0.06 0.17 0.02 0.02 0.02 0.93 0 0.28 -0.06 0 0.25c-0.02,0.1 -0.07,0.18 -0.14,0.24l-1.42 0c-0.1,-0.02 -0.17,-0.07 -0.22,-0.14l-0.05 -0.11 0.01 -0.39z"/>
   <path class="fil1" d="M2.84 6.21l0.23 0.12 -0 0.01 0 -0.01 0.2 0.06 -0 0.01 0 -0.01 0.17 0.02 0 0 0 0 0.02 0.02 -0.01 0.01 0 -0.01 0.93 0 0 0.01 -0 -0.01 0.28 -0.06 0.01 -0 0 0.01 0 0.25 0 0 -0 0c-0.02,0.1 -0.07,0.18 -0.15,0.24l-0 0 -0 0 -1.42 0 -0 0 -0 -0c-0.1,-0.02 -0.18,-0.07 -0.23,-0.15l-0 -0 -0 -0 -0.05 -0.11 -0 -0 0 -0 0.01 -0.39 0 -0.01 0.01 0.01zm0 0.01l-0.01 0.39 -0.01 -0 0.01 -0 0.05 0.11 -0.01 0 0.01 -0c0.05,0.07 0.12,0.12 0.22,0.14l-0 0.01 0 -0.01 1.42 0 0 0.01 -0 -0.01c0.07,-0.05 0.12,-0.13 0.14,-0.23l0.01 0 -0.01 0 0 -0.25 0.01 0 0 0.01 -0.28 0.06 -0 0 -0 0 -0.93 0 -0 0 -0 -0 -0.02 -0.02 0.01 -0.01 -0 0.01 -0.17 -0.02 -0 -0 -0 -0 -0.2 -0.06 -0 -0 -0 -0 -0.23 -0.12 0 -0.01 0.01 0z"/>
   <polygon class="fil2" points="3.7,0.24 3.78,0.25 3.7,0.25 "/>
   <path class="fil2" d="M3.7 0.23l0.08 0.01 0 0.02 -0.08 0.01 -0.01 0 0 -0.01 0 -0.02 0 -0.01 0.01 0zm0.01 0.01l0 0.02 -0.01 0 -0 -0.01 0.08 -0.01 0 0.01 -0 0.01 -0.08 -0.01 0 -0.01 0.01 0z"/>
   <polygon class="fil2" points="4.02,0.24 4.1,0.25 4.02,0.25 "/>
   <path class="fil2" d="M4.02 0.23l0.08 0.01 0 0.02 -0.08 0.01 -0.01 0 0 -0.01 0 -0.02 0 -0.01 0.01 0zm0.01 0.01l0 0.02 -0.01 0 -0 -0.01 0.08 -0.01 0 0.01 -0 0.01 -0.08 -0.01 0 -0.01 0.01 0z"/>
   <polygon class="fil2" points="3.55,0.25 3.58,0.26 3.55,0.27 "/>
   <path class="fil2" d="M3.55 0.25l0.04 0.01 0 0.01 -0.04 0.01 -0.01 0 0 -0.01 0 -0.02 0 -0.01 0.01 0zm0.01 0.01l0 0.02 -0.01 0 -0 -0.01 0.04 -0.01 0 0.01 -0 0.01 -0.04 -0.01 0 -0.01 0.01 0z"/>
   <polygon class="fil2" points="5.39,0.66 5.4,0.69 "/>
   <path class="fil2" d="M5.4 0.66l0.02 0.03 -0.01 0.01 -0.02 -0.03 0.01 -0.01zm0 0l0.02 0.03 -0.01 0.01 -0.02 -0.03 0.01 -0.01z"/>
   <polygon class="fil2" points="5.43,0.69 5.45,0.72 "/>
   <path class="fil2" d="M5.44 0.69l0.02 0.03 -0.01 0.01 -0.02 -0.03 0.01 -0.01zm0 0l0.02 0.03 -0.01 0.01 -0.02 -0.03 0.01 -0.01z"/>
   <polygon class="fil2" points="5.48,0.72 5.5,0.76 "/>
   <path class="fil2" d="M5.49 0.72l0.02 0.03 -0.01 0.01 -0.02 -0.03 0.01 -0.01zm0 0l0.02 0.03 -0.01 0.01 -0.02 -0.03 0.01 -0.01z"/>
   <polygon class="fil2" points="5.54,0.77 5.56,0.8 "/>
   <path class="fil2" d="M5.55 0.77l0.02 0.03 -0.01 0.01 -0.02 -0.03 0.01 -0.01zm0 0l0.02 0.03 -0.01 0.01 -0.02 -0.03 0.01 -0.01z"/>
   <polygon class="fil2" points="5.6,0.82 5.62,0.85 "/>
   <path class="fil2" d="M5.61 0.81l0.02 0.03 -0.01 0.01 -0.02 -0.03 0.01 -0.01zm0 0l0.02 0.03 -0.01 0.01 -0.02 -0.03 0.01 -0.01z"/>
   <polygon class="fil2" points="5.68,0.88 5.71,0.92 "/>
   <path class="fil2" d="M5.68 0.87l0.03 0.05 -0.01 0.01 -0.03 -0.05 0.01 -0.01zm0 0l0.03 0.05 -0.01 0.01 -0.03 -0.05 0.01 -0.01z"/>
   <polygon class="fil2" points="2.02,0.91 2.03,0.95 2.02,0.95 "/>
   <path class="fil2" d="M2.03 0.91l0.01 0.04 0 0.01 -0.01 0 -0.02 0 -0.01 0 0 -0.01 0.01 -0.04 0.01 0zm0 0l-0.01 0.04 -0.01 -0 0 -0.01 0.02 0 0 0.01 -0.01 0 -0.01 -0.04 0.01 -0 0.01 0z"/>
   <polygon class="fil2" points="1.99,1 1.87,1.14 "/>
   <path class="fil2" d="M2 1l-0.12 0.14 -0.01 -0.01 0.12 -0.14 0.01 0.01zm0 0l-0.12 0.14 -0.01 -0.01 0.12 -0.14 0.01 0.01z"/>
   <polygon class="fil2" points="5.82,1 5.89,1.09 "/>
   <path class="fil2" d="M5.82 0.99l0.08 0.09 -0.01 0.01 -0.08 -0.09 0.01 -0.01zm0 0l0.08 0.09 -0.01 0.01 -0.08 -0.09 0.01 -0.01z"/>
   <polygon class="fil2" points="3.33,1.09 4.56,1.1 3.33,1.11 "/>
   <path class="fil2" d="M3.33 1.08l1.23 0.01 0 0.02 -1.23 0.01 -0.01 0 0 -0.01 0 -0.02 0 -0.01 0.01 0zm0.01 0.01l0 0.02 -0.01 0 -0 -0.01 1.23 -0.01 0 0.01 -0 0.01 -1.23 -0.01 0 -0.01 0.01 0z"/>
   <polygon class="fil2" points="5.98,1.18 6.03,1.24 "/>
   <path class="fil2" d="M5.99 1.18l0.05 0.06 -0.01 0.01 -0.05 -0.06 0.01 -0.01zm0 0l0.05 0.06 -0.01 0.01 -0.05 -0.06 0.01 -0.01z"/>
   <polygon class="fil2" points="1.78,1.23 1.77,1.26 "/>
   <path class="fil2" d="M1.79 1.23l-0.02 0.03 -0.01 -0.01 0.02 -0.03 0.01 0.01zm0 0l-0.02 0.03 -0.01 -0.01 0.02 -0.03 0.01 0.01z"/>
   <polygon class="fil2" points="4.72,1.23 4.73,1.3 4.71,1.3 "/>
   <path class="fil2" d="M4.73 1.23l0.01 0.07 0 0.01 -0.01 0 -0.02 0 -0.01 0 0 -0.01 0.01 -0.07 0.02 0zm0 0l-0.01 0.07 -0.01 -0 0 -0.01 0.02 0 0 0.01 -0.01 0 -0.01 -0.07 0.01 -0 0.01 0z"/>
   <polygon class="fil2" points="6.06,1.27 6.09,1.32 "/>
   <path class="fil2" d="M6.07 1.27l0.03 0.05 -0.01 0.01 -0.03 -0.05 0.01 -0.01zm0 0l0.03 0.05 -0.01 0.01 -0.03 -0.05 0.01 -0.01z"/>
   <polygon class="fil2" points="1.72,1.3 1.71,1.33 "/>
   <path class="fil2" d="M1.73 1.31l-0.02 0.03 -0.01 -0.01 0.02 -0.03 0.01 0.01zm0 0l-0.02 0.03 -0.01 -0.01 0.02 -0.03 0.01 0.01z"/>
   <polygon class="fil2" points="3.39,1.33 4.46,1.33 4.47,1.36 4.19,2.33 4.19,2.45 4.26,2.54 4.29,2.55 4.46,2.55 4.48,2.57 4.62,2.57 3.93,3.89 3.92,3.62 3.94,3.61 3.95,2.83 3.9,2.76 3.85,2.75 3.39,2.75 "/>
   <path class="fil2" d="M3.39 1.33l1.07 0 0.01 0 0 0.01 0.01 0.02 0 0 -0 0 -0.27 0.97 -0.01 -0 0.01 0 0 0.12 -0.01 0 0.01 -0 0.07 0.08 -0.01 0 0 -0.01 0.03 0.02 -0 0.01 0 -0.01 0.17 0 0 0 0 0 0.02 0.02 -0.01 0.01 0 -0.01 0.14 0.01 0.01 0 -0.01 0.01 -0.69 1.32 -0.01 0.03 -0 -0.03 -0.01 -0.27 -0 -0 0 -0 0.02 -0.02 0.01 0.01 -0.01 -0 0.02 -0.78 0.01 0 -0.01 0 -0.05 -0.07 0.01 -0 -0 0.01 -0.05 -0.02 0 -0.01 0 0.01 -0.46 0 -0.01 0 0 -0.01 0 -1.42 0 -0.01 0.01 0zm0.01 0.01l0 1.42 -0.01 0 0 -0.01 0.46 0 0 0 0 0 0.05 0.02 0 0 0 0 0.05 0.07 0 0 0 0 -0.02 0.78 -0 0 -0 0 -0.02 0.02 -0.01 -0.01 0.01 -0 0.01 0.27 -0.01 0 -0.01 -0 0.69 -1.32 0.01 0 -0 0.01 -0.14 -0.01 -0 -0 -0 -0 -0.02 -0.02 0.01 -0.01 0 0.01 -0.17 0 -0 0 -0 -0 -0.03 -0.02 -0 -0 -0 -0 -0.07 -0.08 -0 -0 0 -0 0 -0.12 0 -0 0 -0 0.27 -0.97 0.01 0 -0.01 0 -0.01 -0.02 0.01 -0 0 0.01 -1.07 0 0 -0.01 0.01 0z"/>
   <polygon class="fil2" points="6.12,1.35 6.13,1.38 "/>
   <path class="fil2" d="M6.13 1.35l0.02 0.03 -0.01 0.01 -0.02 -0.03 0.01 -0.01zm0 0l0.02 0.03 -0.01 0.01 -0.02 -0.03 0.01 -0.01z"/>
   <polygon class="fil2" points="1.17,2.57 1.18,2.6 1.16,2.6 "/>
   <path class="fil2" d="M1.18 2.57l0.01 0.04 0 0.01 -0.01 0 -0.02 0 -0.01 0 0 -0.01 0.01 -0.04 0.01 0zm0 0l-0.01 0.04 -0.01 -0 0 -0.01 0.02 0 0 0.01 -0.01 0 -0.01 -0.04 0.01 -0 0.01 0z"/>
   <polygon class="fil2" points="6.64,2.58 6.64,2.62 6.63,2.62 "/>
   <path class="fil2" d="M6.64 2.58l0.01 0.04 0 0.01 -0.01 0 -0.02 0 -0.01 0 0 -0.01 0.01 -0.04 0.01 0zm0 0l-0.01 0.04 -0.01 -0 0 -0.01 0.02 0 0 0.01 -0.01 0 -0.01 -0.04 0.01 -0 0.01 0z"/>
   <polygon class="fil2" points="1.16,2.69 1.16,2.73 1.15,2.73 "/>
   <path class="fil2" d="M1.16 2.69l0.01 0.04 0 0.01 -0.01 0 -0.02 0 -0.01 0 0 -0.01 0.01 -0.04 0.01 0zm0 0l-0.01 0.04 -0.01 -0 0 -0.01 0.02 0 0 0.01 -0.01 0 -0.01 -0.04 0.01 -0 0.01 0z"/>
   <polygon class="fil2" points="6.65,2.69 6.66,2.76 6.64,2.76 "/>
   <path class="fil2" d="M6.66 2.69l0.01 0.07 0 0.01 -0.01 0 -0.02 0 -0.01 0 0 -0.01 0.01 -0.07 0.02 0zm0 0l-0.01 0.07 -0.01 -0 0 -0.01 0.02 0 0 0.01 -0.01 0 -0.01 -0.07 0.01 -0 0.01 0z"/>
   <polygon class="fil2" points="1.14,2.89 1.15,3.09 1.13,3.09 "/>
   <path class="fil2" d="M1.15 2.89l0.01 0.21 0 0.01 -0.01 0 -0.02 0 -0.01 0 0 -0.01 0.01 -0.21 0.02 0zm0 0l-0.01 0.21 -0.01 -0 0 -0.01 0.02 0 0 0.01 -0.01 0 -0.01 -0.21 0.01 -0 0.01 0z"/>
   <polygon class="fil2" points="6.67,2.92 6.68,3.11 6.66,3.11 "/>
   <path class="fil2" d="M6.68 2.92l0.01 0.19 0 0.01 -0.01 0 -0.02 0 -0.01 0 0 -0.01 0.01 -0.19 0.02 0zm0 0l-0.01 0.19 -0.01 -0 0 -0.01 0.02 0 0 0.01 -0.01 0 -0.01 -0.19 0.01 -0 0.01 0z"/>
   <polygon class="fil2" points="3.3,2.98 3.72,2.99 3.3,2.99 "/>
   <path class="fil2" d="M3.3 2.97l0.42 0.01 0 0.02 -0.42 0.01 -0.01 0 0 -0.01 0 -0.02 0 -0.01 0.01 0zm0.01 0.01l0 0.02 -0.01 0 -0 -0.01 0.42 -0.01 0 0.01 -0 0.01 -0.42 -0.01 0 -0.01 0.01 0z"/>
   <polygon class="fil2" points="3.71,3.02 3.72,3.17 3.71,3.17 "/>
   <path class="fil2" d="M3.72 3.02l0.01 0.14 0 0.01 -0.01 0 -0.02 0 -0.01 0 0 -0.01 0.01 -0.14 0.02 0zm0 0l-0.01 0.14 -0.01 -0 0 -0.01 0.02 0 0 0.01 -0.01 0 -0.01 -0.14 0.01 -0 0.01 0z"/>
   <polygon class="fil2" points="6.68,3.15 6.71,3.19 "/>
   <path class="fil2" d="M6.69 3.14l0.03 0.05 -0.01 0.01 -0.03 -0.05 0.01 -0.01zm0 0l0.03 0.05 -0.01 0.01 -0.03 -0.05 0.01 -0.01z"/>
   <polygon class="fil2" points="1.16,3.25 1.16,3.3 1.15,3.3 "/>
   <path class="fil2" d="M1.16 3.25l0.01 0.05 0 0.01 -0.01 0 -0.02 0 -0.01 0 0 -0.01 0.01 -0.05 0.02 0zm0 0l-0.01 0.05 -0.01 -0 0 -0.01 0.02 0 0 0.01 -0.01 0 -0.01 -0.05 0.01 -0 0.01 0z"/>
   <polygon class="fil2" points="1.17,3.39 1.18,3.43 1.16,3.43 "/>
   <path class="fil2" d="M1.18 3.39l0.01 0.04 0 0.01 -0.01 0 -0.02 0 -0.01 0 0 -0.01 0.01 -0.04 0.01 0zm0 0l-0.01 0.04 -0.01 -0 0 -0.01 0.02 0 0 0.01 -0.01 0 -0.01 -0.04 0.01 -0 0.01 0z"/>
   <polygon class="fil2" points="6.67,3.42 6.65,3.45 "/>
   <path class="fil2" d="M6.67 3.42l-0.02 0.03 -0.01 -0.01 0.02 -0.03 0.01 0.01zm0 0l-0.02 0.03 -0.01 -0.01 0.02 -0.03 0.01 0.01z"/>
   <polygon class="fil2" points="3.7,3.43 3.71,3.58 3.69,3.58 "/>
   <path class="fil2" d="M3.71 3.43l0.01 0.14 0 0.01 -0.01 0 -0.02 0 -0.01 0 0 -0.01 0.01 -0.14 0.02 0zm0 0l-0.01 0.14 -0.01 -0 0 -0.01 0.02 0 0 0.01 -0.01 0 -0.01 -0.14 0.01 -0 0.01 0z"/>
   <polygon class="fil2" points="3.68,3.85 3.69,3.97 3.68,3.97 "/>
   <path class="fil2" d="M3.69 3.84l0.01 0.13 0 0.01 -0.01 0 -0.02 0 -0.01 0 0 -0.01 0.01 -0.13 0.02 0zm0 0l-0.01 0.13 -0.01 -0 0 -0.01 0.02 0 0 0.01 -0.01 0 -0.01 -0.13 0.01 -0 0.01 0z"/>
   <polygon class="fil2" points="6.24,4.47 6.23,4.5 "/>
   <path class="fil2" d="M6.25 4.47l-0.02 0.03 -0.01 -0.01 0.02 -0.03 0.01 0.01zm0 0l-0.02 0.03 -0.01 -0.01 0.02 -0.03 0.01 0.01z"/>
   <polygon class="fil2" points="2.62,4.56 2.72,4.57 2.62,4.58 "/>
   <path class="fil2" d="M2.62 4.55l0.1 0.01 0 0.02 -0.1 0.01 -0.01 0 0 -0.01 0 -0.02 0 -0.01 0.01 0zm0.01 0.01l0 0.02 -0.01 0 -0 -0.01 0.1 -0.01 0 0.01 -0 0.01 -0.1 -0.01 0 -0.01 0.01 0z"/>
   <polygon class="fil2" points="5.1,4.56 5.2,4.57 5.1,4.58 "/>
   <path class="fil2" d="M5.1 4.55l0.1 0.01 0 0.02 -0.1 0.01 -0.01 0 0 -0.01 0 -0.02 0 -0.01 0.01 0zm0.01 0.01l0 0.02 -0.01 0 -0 -0.01 0.1 -0.01 0 0.01 -0 0.01 -0.1 -0.01 0 -0.01 0.01 0z"/>
   <polygon class="fil2" points="6.18,4.56 6.17,4.59 "/>
   <path class="fil2" d="M6.19 4.56l-0.02 0.03 -0.01 -0.01 0.02 -0.03 0.01 0.01zm0 0l-0.02 0.03 -0.01 -0.01 0.02 -0.03 0.01 0.01z"/>
   <polygon class="fil2" points="2.21,4.58 2.18,4.62 "/>
   <path class="fil2" d="M2.21 4.58l-0.03 0.05 -0.01 -0.01 0.03 -0.05 0.01 0.01zm0 0l-0.03 0.05 -0.01 -0.01 0.03 -0.05 0.01 0.01z"/>
   <polygon class="fil2" points="5.6,4.58 5.63,4.62 "/>
   <path class="fil2" d="M5.61 4.57l0.03 0.05 -0.01 0.01 -0.03 -0.05 0.01 -0.01zm0 0l0.03 0.05 -0.01 0.01 -0.03 -0.05 0.01 -0.01z"/>
   <polygon class="fil2" points="1.75,4.73 1.77,4.76 "/>
   <path class="fil2" d="M1.76 4.72l0.02 0.03 -0.01 0.01 -0.02 -0.03 0.01 -0.01zm0 0l0.02 0.03 -0.01 0.01 -0.02 -0.03 0.01 -0.01z"/>
   <polygon class="fil2" points="6.04,4.74 6.01,4.79 "/>
   <path class="fil2" d="M6.05 4.75l-0.03 0.05 -0.01 -0.01 0.03 -0.05 0.01 0.01zm0 0l-0.03 0.05 -0.01 -0.01 0.03 -0.05 0.01 0.01z"/>
   <path class="fil2" d="M2.38 4.8l0.39 0 0.23 0.06c0.21,0.08 0.38,0.2 0.51,0.36 0.1,0.11 0.18,0.25 0.23,0.41l0.05 0.2 0 0.37 -0.39 -0.02 -0.23 -0.06c-0.22,-0.09 -0.39,-0.22 -0.53,-0.39 -0.09,-0.11 -0.17,-0.25 -0.21,-0.41l-0.05 -0.26 0 -0.27z"/>
   <path class="fil2" d="M2.38 4.8l0.39 0 0 0 0 0 0.23 0.06 0 0 0 0c0.21,0.08 0.38,0.2 0.51,0.36l-0.01 0 0.01 -0.01c0.1,0.11 0.18,0.25 0.23,0.41l0 0 0 0 0.05 0.2 0 0 0 0 0 0.37 0 0.01 -0.01 -0 -0.39 -0.02 -0 -0 -0 -0 -0.23 -0.06 -0 -0 -0 -0c-0.22,-0.09 -0.39,-0.22 -0.53,-0.39l0.01 -0 -0.01 0c-0.09,-0.11 -0.17,-0.25 -0.21,-0.41l-0 -0 -0 -0 -0.05 -0.26 -0 -0 0 -0 0 -0.27 0 -0.01 0.01 0zm0.01 0.01l0 0.27 -0.01 0 0.01 -0 0.05 0.26 -0.01 0 0.01 -0c0.05,0.16 0.12,0.3 0.21,0.41l0 0 0 0c0.13,0.17 0.31,0.3 0.52,0.39l-0 0.01 0 -0.01 0.23 0.06 -0 0.01 0 -0.01 0.39 0.02 -0 0.01 -0.01 0 0 -0.37 0.01 0 -0.01 0 -0.05 -0.2 0.01 -0 -0.01 0c-0.05,-0.16 -0.13,-0.3 -0.23,-0.41l-0 -0 -0 -0c-0.13,-0.16 -0.3,-0.28 -0.51,-0.36l0 -0.01 -0 0.01 -0.23 -0.06 0 -0.01 0 0.01 -0.39 0 0 -0.01 0.01 0z"/>
   <path class="fil2" d="M5.04 4.8l0.39 0 0 0.25 -0.06 0.32 -0.12 0.26 -0.28 0.31c-0.11,0.08 -0.23,0.15 -0.37,0.2l-0.2 0.05 -0.37 0.02 0 -0.37 0.06 -0.24c0.08,-0.21 0.2,-0.38 0.36,-0.51 0.15,-0.14 0.35,-0.23 0.59,-0.27z"/>
   <path class="fil2" d="M5.04 4.8l0.39 0 0.01 0 0 0.01 0 0.25 0 0 -0 0 -0.06 0.32 -0 0 -0 0 -0.12 0.26 -0 0 -0 0 -0.28 0.31 -0 0 -0 0c-0.11,0.08 -0.23,0.15 -0.37,0.2l-0 0 -0 0 -0.2 0.05 -0 0 -0 0 -0.37 0.02 -0.01 0 0 -0.01 0 -0.37 0 -0 0 -0 0.06 -0.24 0 -0 0 -0c0.08,-0.21 0.2,-0.38 0.36,-0.51l0 0.01 -0.01 -0.01c0.15,-0.14 0.35,-0.23 0.6,-0.28l0 -0 0 0zm0 0.02c-0.24,0.05 -0.44,0.14 -0.59,0.27l-0 0 -0 0c-0.16,0.13 -0.28,0.3 -0.36,0.51l-0.01 -0 0.01 0 -0.06 0.24 -0.01 -0 0.01 0 0 0.37 -0.01 0 -0 -0.01 0.37 -0.02 0 0.01 -0 -0.01 0.2 -0.05 0 0.01 -0 -0.01c0.14,-0.05 0.26,-0.12 0.36,-0.2l0 0.01 -0.01 -0.01 0.28 -0.31 0.01 0.01 -0.01 -0 0.12 -0.26 0.01 0 -0.01 -0 0.06 -0.32 0.01 0 -0.01 0 0 -0.25 0.01 0 0 0.01 -0.39 0 0 -0.01 0 0.01z"/>
   <polygon class="fil2" points="1.83,4.82 1.9,4.91 "/>
   <path class="fil2" d="M1.83 4.81l0.08 0.09 -0.01 0.01 -0.08 -0.09 0.01 -0.01zm0 0l0.08 0.09 -0.01 0.01 -0.08 -0.09 0.01 -0.01z"/>
   <polygon class="fil2" points="3.46,4.85 3.47,4.88 "/>
   <path class="fil2" d="M3.46 4.85l0.02 0.03 -0.01 0.01 -0.02 -0.03 0.01 -0.01zm0 0l0.02 0.03 -0.01 0.01 -0.02 -0.03 0.01 -0.01z"/>
   <polygon class="fil2" points="4.35,4.85 4.34,4.88 "/>
   <path class="fil2" d="M4.36 4.85l-0.02 0.03 -0.01 -0.01 0.02 -0.03 0.01 0.01zm0 0l-0.02 0.03 -0.01 -0.01 0.02 -0.03 0.01 0.01z"/>
   <polygon class="fil2" points="5.95,4.85 5.75,5.06 "/>
   <path class="fil2" d="M5.96 4.86l-0.2 0.21 -0.01 -0.01 0.2 -0.21 0.01 0.01zm0 0l-0.2 0.21 -0.01 -0.01 0.2 -0.21 0.01 0.01z"/>
   <polygon class="fil2" points="3.55,4.93 3.64,5.03 "/>
   <path class="fil2" d="M3.55 4.92l0.09 0.11 -0.01 0.01 -0.09 -0.11 0.01 -0.01zm0 0l0.09 0.11 -0.01 0.01 -0.09 -0.11 0.01 -0.01z"/>
   <polygon class="fil2" points="4.26,4.93 4.16,5.05 "/>
   <path class="fil2" d="M4.27 4.93l-0.11 0.12 -0.01 -0.01 0.11 -0.12 0.01 0.01zm0 0l-0.11 0.12 -0.01 -0.01 0.11 -0.12 0.01 0.01z"/>
   <polygon class="fil2" points="2.01,5 2.07,5.08 "/>
   <path class="fil2" d="M2.02 5l0.06 0.08 -0.01 0.01 -0.06 -0.08 0.01 -0.01zm0 0l0.06 0.08 -0.01 0.01 -0.06 -0.08 0.01 -0.01z"/>
   <polygon class="fil2" points="2.16,5.09 2.17,5.14 2.14,5.13 "/>
   <path class="fil2" d="M2.17 5.09l0.01 0.05 0 0.01 -0.01 -0 -0.03 -0.01 -0.01 -0 0.01 -0.01 0.02 -0.04 0.01 -0.02 0 0.02zm-0 0.01l-0.02 0.04 -0.01 -0 0 -0.01 0.03 0.01 -0 0.01 -0.01 0 -0.01 -0.05 0.01 -0 0.01 0z"/>
   <polygon class="fil2" points="5.65,5.11 5.69,5.12 5.64,5.14 "/>
   <path class="fil2" d="M5.65 5.1l0.04 0.01 0.02 0 -0.02 0.01 -0.05 0.02 -0.01 0.01 0 -0.02 0.01 -0.03 0 -0.01 0.01 0zm0.01 0.01l-0.01 0.03 -0.01 -0 -0 -0.01 0.05 -0.02 0 0.01 -0 0.01 -0.04 -0.01 0 -0.01 0.01 0z"/>
   <polygon class="fil2" points="2.81,6.2 2.85,6.23 2.82,6.23 2.82,6.59 "/>
   <path class="fil2" d="M2.81 6.2l0.05 0.02 -0 0.01 -0.03 0 0 -0.01 0.01 0 -0.01 0.36 -0.02 0 -0.01 -0.38 -0 -0.01 0.01 0.01zm0 0.01l0.01 0.38 -0.01 0 -0.01 -0 0.01 -0.36 0 -0.01 0.01 0 0.03 0 0 0.01 -0 0.01 -0.05 -0.02 0 -0.01 0.01 -0z"/>
   <path class="fil2" d="M4.99 6.2l0.01 0.36c-0.02,0.1 -0.05,0.17 -0.11,0.22l-0.14 0.08 -0.23 0 0.05 -0.07 0.08 -0.17 0 -0.27 0.08 -0.02 0.26 -0.14z"/>
   <path class="fil2" d="M5 6.2l0.01 0.36 0 0 -0 0c-0.02,0.1 -0.05,0.17 -0.12,0.23l-0 0 -0 0 -0.14 0.08 -0 0 -0 0 -0.23 0 -0.02 0 0.01 -0.01 0.05 -0.07 0.01 0 -0.01 -0 0.08 -0.17 0.01 0 -0.01 0 0 -0.27 0 -0.01 0.01 -0 0.08 -0.02 0 0.01 -0 -0.01 0.26 -0.14 0.01 -0.01 0 0.01zm-0 0.01l-0.26 0.14 -0 0 -0 0 -0.08 0.02 -0 -0.01 0.01 0 0 0.27 0 0 -0 0 -0.08 0.17 -0 0 -0 0 -0.05 0.07 -0.01 -0 0 -0.01 0.23 0 0 0.01 -0 -0.01 0.14 -0.08 0 0.01 -0 -0.01c0.06,-0.05 0.1,-0.12 0.11,-0.22l0.01 0 -0.01 0 -0.01 -0.36 0.01 -0 0 0.01z"/>
   <polygon class="fil2" points="3.44,6.42 3.49,6.43 3.44,6.43 "/>
   <path class="fil2" d="M3.44 6.41l0.05 0.01 0 0.02 -0.05 0.01 -0.01 0 0 -0.01 0 -0.02 0 -0.01 0.01 0zm0.01 0.01l0 0.02 -0.01 0 -0 -0.01 0.05 -0.01 0 0.01 -0 0.01 -0.05 -0.01 0 -0.01 0.01 0z"/>
   <polygon class="fil2" points="4.32,6.42 4.38,6.43 4.32,6.43 "/>
   <path class="fil2" d="M4.32 6.41l0.05 0.01 0 0.02 -0.05 0.01 -0.01 0 0 -0.01 0 -0.02 0 -0.01 0.01 0zm0.01 0.01l0 0.02 -0.01 0 -0 -0.01 0.05 -0.01 0 0.01 -0 0.01 -0.05 -0.01 0 -0.01 0.01 0z"/>
   <polygon class="fil2" points="2.89,6.74 2.92,6.78 "/>
   <path class="fil2" d="M2.9 6.73l0.03 0.05 -0.01 0.01 -0.03 -0.05 0.01 -0.01zm0 0l0.03 0.05 -0.01 0.01 -0.03 -0.05 0.01 -0.01z"/>
   <polygon class="fil2" points="2.97,6.8 2.98,6.83 "/>
   <path class="fil2" d="M2.98 6.8l0.02 0.03 -0.01 0.01 -0.02 -0.03 0.01 -0.01zm0 0l0.02 0.03 -0.01 0.01 -0.02 -0.03 0.01 -0.01z"/>
   <polygon class="fil2" points="3.15,6.86 4.48,6.87 3.15,6.87 "/>
   <path class="fil2" d="M3.15 6.85l1.33 0.01 0 0.02 -1.33 0.01 -0.01 0 0 -0.01 0 -0.02 0 -0.01 0.01 0zm0.01 0.01l0 0.02 -0.01 0 -0 -0.01 1.33 -0.01 0 0.01 -0 0.01 -1.33 -0.01 0 -0.01 0.01 0z"/>
   <path class="fil2" d="M3.11 7.1l1.58 0 0.01 0.01 0 0.12c-0.03,0.12 -0.08,0.21 -0.18,0.27l-0.08 0.05 -0.12 0.03 -0.84 0c-0.15,-0.02 -0.25,-0.09 -0.31,-0.19 -0.05,-0.07 -0.07,-0.16 -0.06,-0.28z"/>
   <path class="fil2" d="M3.11 7.1l1.58 0 0 0 0 0 0.01 0.01 0 0 0 0 0 0.12 0 0 -0 0c-0.03,0.12 -0.09,0.21 -0.18,0.27l-0 0 -0 0 -0.08 0.05 -0 0 -0 0 -0.12 0.03 -0 0 -0 0 -0.84 0 -0 0 -0 -0c-0.15,-0.02 -0.25,-0.09 -0.32,-0.19l0.01 -0 -0.01 0c-0.05,-0.07 -0.08,-0.17 -0.06,-0.29l0 -0.01 0.01 0zm0.01 0.01c-0.01,0.12 0.01,0.21 0.06,0.28l0 0 0 0c0.06,0.1 0.16,0.16 0.31,0.19l-0 0.01 0 -0.01 0.84 0 0 0.01 -0 -0.01 0.12 -0.03 0 0.01 -0 -0.01 0.08 -0.05 0 0.01 -0 -0.01c0.09,-0.06 0.15,-0.14 0.17,-0.26l0.01 0 -0.01 0 0 -0.12 0.01 0 -0.01 0.01 -0.01 -0.01 0.01 -0.01 0 0.01 -1.58 0 0 -0.01 0.01 0z"/>
   <path class="fil0" d="M0.01 0.01l3.68 0.01 -0.34 0.04 -0.41 0.11c-0.3,0.1 -0.56,0.24 -0.78,0.42l-0.02 0.09 0.02 0.03 -0.13 0.11 -0.06 0.02c-0.01,-0.02 -0.04,-0.03 -0.09,-0.02l-0.19 0.18c-0.25,0.27 -0.45,0.59 -0.59,0.97l-0.09 0.29 -0.06 0.3 -0.03 0.55 0.02 0.02 0.02 0.32 0.06 0.3 0.11 0.33 0.11 0.24c0.19,0.37 0.43,0.68 0.72,0.94l0.33 0.25c0.07,0.21 0.18,0.39 0.33,0.52l-0.02 0.02 0 0.55c0.03,0.17 0.09,0.29 0.21,0.37l0.1 0.07c-0.02,0.15 -0.01,0.26 0.03,0.35 0.05,0.12 0.11,0.21 0.21,0.28 0.08,0.07 0.18,0.11 0.31,0.13l-3.43 0.01 0 -7.79z"/>
   <path class="fil0" d="M0.01 0l3.68 0.01 0 0.02 -0.34 0.04 -0 -0.01 0 0.01 -0.41 0.11 -0 -0.01 0 0.01c-0.3,0.1 -0.56,0.24 -0.78,0.42l-0 -0.01 0.01 0 -0.02 0.09 -0.01 -0 0.01 -0 0.02 0.03 0 0.01 -0 0 -0.13 0.11 -0 0 -0 0 -0.06 0.02 -0.01 0 -0 -0.01c-0.01,-0.02 -0.04,-0.02 -0.08,-0.01l-0 -0.01 0.01 0.01 -0.19 0.18 -0.01 -0.01 0.01 0.01c-0.25,0.27 -0.45,0.59 -0.59,0.97l-0.01 -0 0.01 0 -0.09 0.29 -0.01 -0 0.01 0 -0.06 0.3 -0.01 -0 0.01 0 -0.03 0.55 -0.01 -0 0.01 -0.01 0.02 0.02 0 0 0 0 0.02 0.32 -0.01 0 0.01 -0 0.06 0.3 -0.01 0 0.01 -0 0.11 0.33 -0.01 0 0.01 -0 0.11 0.24 -0.01 0 0.01 -0c0.19,0.37 0.43,0.68 0.72,0.93l-0 0.01 0 -0.01 0.33 0.25 0 0 0 0c0.07,0.21 0.18,0.38 0.33,0.51l0.01 0.01 -0.01 0.01 -0.02 0.02 -0.01 -0.01 0.01 0 0 0.55 -0.01 0 0.01 -0c0.03,0.17 0.09,0.29 0.2,0.37l-0 0.01 0 -0.01 0.1 0.07 0 0 -0 0c-0.02,0.14 -0.01,0.26 0.03,0.35l0 0 0 0c0.05,0.12 0.11,0.21 0.2,0.28l0 0 0 0c0.08,0.07 0.18,0.11 0.31,0.13l-0 0.02 -3.43 0.01 -0.01 0 0 -0.01 0 -7.79 0 -0.01 0.01 0zm0.01 0.01l0 7.79 -0.01 0 0 -0.01 3.43 -0.01 0 0.01 -0 0.01c-0.13,-0.02 -0.24,-0.06 -0.32,-0.13l0.01 -0.01 -0 0.01c-0.09,-0.07 -0.16,-0.17 -0.21,-0.28l0.01 -0 -0.01 0c-0.04,-0.09 -0.05,-0.21 -0.03,-0.35l0.01 0 -0 0.01 -0.1 -0.07 -0 -0 -0 -0c-0.11,-0.08 -0.18,-0.21 -0.21,-0.38l-0 -0 0 -0 0 -0.55 0 -0 0 -0 0.02 -0.02 0.01 0.01 -0.01 0.01c-0.15,-0.13 -0.27,-0.31 -0.34,-0.52l0.01 -0 -0 0.01 -0.33 -0.25 -0 -0 -0 -0c-0.3,-0.26 -0.54,-0.57 -0.72,-0.94l-0 -0 -0 -0 -0.11 -0.24 -0 -0 -0 -0 -0.11 -0.33 -0 -0 -0 -0 -0.06 -0.3 -0 -0 0 -0 -0.02 -0.32 0.01 -0 -0.01 0.01 -0.02 -0.02 -0 -0 0 -0 0.03 -0.55 0 -0 0 -0 0.06 -0.3 0 -0 0 -0 0.09 -0.29 0 -0 0 -0c0.14,-0.38 0.34,-0.71 0.6,-0.98l0 -0 0 -0 0.19 -0.18 0 -0 0 -0c0.05,-0.01 0.09,-0.01 0.1,0.02l-0.01 0 -0 -0.01 0.06 -0.02 0 0.01 -0.01 -0.01 0.13 -0.11 0.01 0.01 -0.01 0 -0.02 -0.03 -0 -0 0 -0 0.02 -0.09 0 -0 0 -0c0.22,-0.18 0.49,-0.32 0.79,-0.42l0 -0 0 -0 0.41 -0.11 0 -0 0 -0 0.34 -0.04 0 0.01 0 0.01 -3.68 -0.01 0 -0.01 0.01 0z"/>
   <polygon class="fil3" points="2.15,0.71 2.15,0.73 2.01,0.85 2,0.82 "/>
   <path class="fil3" d="M2.15 0.71l0.01 0.02 0 0.01 -0 0 -0.14 0.11 -0.01 0.01 -0 -0.01 -0.01 -0.03 -0 -0 0 -0 0.14 -0.11 0.01 -0.01 0 0.01zm-0 0.01l-0.14 0.11 -0 -0.01 0.01 -0 0.01 0.03 -0.01 0 -0 -0.01 0.14 -0.11 0 0.01 -0.01 0 -0.01 -0.02 0.01 -0 0 0.01z"/>
   <path class="fil4" d="M3.88 0.24l0.52 0.05 0.4 0.17c0.33,0.18 0.61,0.4 0.84,0.68 0.25,0.29 0.45,0.65 0.58,1.07l0.09 0.44 0 0.14 0.02 0.02 0 0.43 -0.02 0.02 0 0.14 -0.02 0.02 -0.02 0.18 -0.17 0.55c-0.11,0.28 -0.26,0.52 -0.45,0.72l-0.01 -0.21 -0.05 -0.05 -0.03 -0.02 -0.49 0 -0.24 0.05 -0.33 0.14c-0.15,0.09 -0.28,0.2 -0.39,0.33l-0.17 0.24 -0.03 0.1c-0.03,0.01 -0.04,0 -0.03,-0.04 -0.09,-0.19 -0.22,-0.35 -0.37,-0.48 -0.15,-0.13 -0.33,-0.23 -0.55,-0.29l-0.24 -0.05 -0.49 0 -0.08 0.07 -0.01 0.49 -0.34 -0.33c-0.24,-0.28 -0.43,-0.61 -0.55,-1l-0.08 -0.32 -0.02 -0.23 -0.02 -0.02 0 -0.46 0.02 -0.02 0 -0.12 0.06 -0.32 0.18 -0.5c0.16,-0.32 0.36,-0.59 0.61,-0.82l0.02 -0.09 -0.03 -0.05 0.16 -0.13 0.09 0.05 0.06 -0.02c0.13,-0.11 0.29,-0.2 0.46,-0.27l0.32 -0.12 0.41 -0.09 0.37 -0.02 0.02 -0.02zm-0.57 0.85l-0.08 0.03 -0.08 0.11 0 1.64 0.03 0.06 0.11 0.06 0.41 0 -0.02 0.79 -0.02 0.02 0 0.47 0.02 0.03 0.09 0.06c0.08,0.01 0.14,0 0.18,-0.03l0.06 -0.09 0.88 -1.72c0,-0.07 -0.02,-0.12 -0.05,-0.14l-0.08 -0.06 -0.33 0 0.27 -1 -0.02 -0.12 -0.08 -0.09 -0.06 -0.02 -1.26 0z"/>
   <path class="fil5 str0" d="M3.88 0.24l0.52 0.05 0.4 0.17c0.33,0.18 0.61,0.4 0.84,0.68 0.25,0.29 0.45,0.65 0.58,1.07l0.09 0.44 0 0.14 0.02 0.02 0 0.43 -0.02 0.02 0 0.14 -0.02 0.02 -0.02 0.18 -0.17 0.55c-0.11,0.28 -0.26,0.52 -0.45,0.72l-0.01 -0.21 -0.05 -0.05 -0.03 -0.02 -0.49 0 -0.24 0.05 -0.33 0.14c-0.15,0.09 -0.28,0.2 -0.39,0.33l-0.17 0.24 -0.03 0.1c-0.03,0.01 -0.04,0 -0.03,-0.04 -0.09,-0.19 -0.22,-0.35 -0.37,-0.48 -0.15,-0.13 -0.33,-0.23 -0.55,-0.29l-0.24 -0.05 -0.49 0 -0.08 0.07 -0.01 0.49 -0.34 -0.33c-0.24,-0.28 -0.43,-0.61 -0.55,-1l-0.08 -0.32 -0.02 -0.23 -0.02 -0.02 0 -0.46 0.02 -0.02 0 -0.12 0.06 -0.32 0.18 -0.5c0.16,-0.32 0.36,-0.59 0.61,-0.82l0.02 -0.09 -0.03 -0.05 0.16 -0.13 0.09 0.05 0.06 -0.02c0.13,-0.11 0.29,-0.2 0.46,-0.27l0.32 -0.12 0.41 -0.09 0.37 -0.02 0.02 -0.02zm-0.57 0.85l-0.08 0.03 -0.08 0.11 0 1.64 0.03 0.06 0.11 0.06 0.41 0 -0.02 0.79 -0.02 0.02 0 0.47 0.02 0.03 0.09 0.06c0.08,0.01 0.14,0 0.18,-0.03l0.06 -0.09 0.88 -1.72c0,-0.07 -0.02,-0.12 -0.05,-0.14l-0.08 -0.06 -0.33 0 0.27 -1 -0.02 -0.12 -0.08 -0.09 -0.06 -0.02 -1.26 0z"/>
   <polygon class="fil6" points="3.64,0.24 3.69,0.25 3.64,0.25 "/>
   <path class="fil6" d="M3.64 0.23l0.05 0.01 0 0.02 -0.05 0.01 -0.01 0 0 -0.01 0 -0.02 0 -0.01 0.01 0zm0.01 0.01l0 0.02 -0.01 0 -0 -0.01 0.05 -0.01 0 0.01 -0 0.01 -0.05 -0.01 0 -0.01 0.01 0z"/>
   <polygon class="fil6" points="4.11,0.24 4.18,0.25 4.11,0.25 "/>
   <path class="fil6" d="M4.11 0.23l0.07 0.01 0 0.02 -0.07 0.01 -0.01 0 0 -0.01 0 -0.02 0 -0.01 0.01 0zm0.01 0.01l0 0.02 -0.01 0 -0 -0.01 0.07 -0.01 0 0.01 -0 0.01 -0.07 -0.01 0 -0.01 0.01 0z"/>
   <polygon class="fil6" points="4.26,0.25 4.3,0.26 4.26,0.27 "/>
   <path class="fil6" d="M4.26 0.25l0.04 0.01 0 0.01 -0.04 0.01 -0.01 0 0 -0.01 0 -0.02 0 -0.01 0.01 0zm0.01 0.01l0 0.02 -0.01 0 -0 -0.01 0.04 -0.01 0 0.01 -0 0.01 -0.04 -0.01 0 -0.01 0.01 0z"/>
   <polygon class="fil6" points="2.18,0.71 2.19,0.74 "/>
   <path class="fil6" d="M2.18 0.71l0.02 0.03 -0.01 0.01 -0.02 -0.03 0.01 -0.01zm0 0l0.02 0.03 -0.01 0.01 -0.02 -0.03 0.01 -0.01z"/>
   <polygon class="fil6" points="5.51,0.74 5.53,0.77 "/>
   <path class="fil6" d="M5.52 0.74l0.02 0.03 -0.01 0.01 -0.02 -0.03 0.01 -0.01zm0 0l0.02 0.03 -0.01 0.01 -0.02 -0.03 0.01 -0.01z"/>
   <polygon class="fil6" points="5.57,0.79 5.59,0.82 "/>
   <path class="fil6" d="M5.58 0.78l0.02 0.03 -0.01 0.01 -0.02 -0.03 0.01 -0.01zm0 0l0.02 0.03 -0.01 0.01 -0.02 -0.03 0.01 -0.01z"/>
   <polygon class="fil6" points="5.63,0.83 5.66,0.88 "/>
   <path class="fil6" d="M5.64 0.83l0.03 0.05 -0.01 0.01 -0.03 -0.05 0.01 -0.01zm0 0l0.03 0.05 -0.01 0.01 -0.03 -0.05 0.01 -0.01z"/>
   <polygon class="fil6" points="5.72,0.91 5.8,1 "/>
   <path class="fil6" d="M5.73 0.9l0.08 0.09 -0.01 0.01 -0.08 -0.09 0.01 -0.01zm0 0l0.08 0.09 -0.01 0.01 -0.08 -0.09 0.01 -0.01z"/>
   <polygon class="fil6" points="5.91,1.09 5.98,1.18 "/>
   <path class="fil6" d="M5.91 1.09l0.08 0.09 -0.01 0.01 -0.08 -0.09 0.01 -0.01zm0 0l0.08 0.09 -0.01 0.01 -0.08 -0.09 0.01 -0.01z"/>
   <polygon class="fil6" points="3.24,1.12 3.2,1.18 "/>
   <path class="fil6" d="M3.25 1.13l-0.05 0.06 -0.01 -0.01 0.05 -0.06 0.01 0.01zm0 0l-0.05 0.06 -0.01 -0.01 0.05 -0.06 0.01 0.01z"/>
   <polygon class="fil6" points="1.86,1.14 1.8,1.21 "/>
   <path class="fil6" d="M1.86 1.14l-0.06 0.08 -0.01 -0.01 0.06 -0.08 0.01 0.01zm0 0l-0.06 0.08 -0.01 -0.01 0.06 -0.08 0.01 0.01z"/>
   <polygon class="fil6" points="4.66,1.14 4.67,1.17 "/>
   <path class="fil6" d="M4.67 1.13l0.02 0.03 -0.01 0.01 -0.02 -0.03 0.01 -0.01zm0 0l0.02 0.03 -0.01 0.01 -0.02 -0.03 0.01 -0.01z"/>
   <polygon class="fil6" points="3.17,1.24 3.17,2.83 3.16,2.83 "/>
   <path class="fil6" d="M3.17 1.24l0.01 1.59 0 0.01 -0.01 0 -0.02 0 -0.01 0 0 -0.01 0.01 -1.59 0.02 0zm0 0l-0.01 1.59 -0.01 0 0 -0.01 0.02 0 0 0.01 -0.01 0 -0.01 -1.59 0.01 0 0.01 0z"/>
   <polygon class="fil6" points="6.04,1.24 6.06,1.27 "/>
   <path class="fil6" d="M6.05 1.24l0.02 0.03 -0.01 0.01 -0.02 -0.03 0.01 -0.01zm0 0l0.02 0.03 -0.01 0.01 -0.02 -0.03 0.01 -0.01z"/>
   <polygon class="fil6" points="1.75,1.26 1.74,1.29 "/>
   <path class="fil6" d="M1.76 1.26l-0.02 0.03 -0.01 -0.01 0.02 -0.03 0.01 0.01zm0 0l-0.02 0.03 -0.01 -0.01 0.02 -0.03 0.01 0.01z"/>
   <polygon class="fil6" points="3.39,1.32 4.47,1.33 3.39,1.33 "/>
   <path class="fil6" d="M3.39 1.31l1.07 0.01 0 0.02 -1.07 0.01 -0.01 0 0 -0.01 0 -0.02 0 -0.01 0.01 0zm0.01 0.01l0 0.02 -0.01 0 -0 -0.01 1.07 -0.01 0 0.01 -0 0.01 -1.07 -0.01 0 -0.01 0.01 0z"/>
   <polygon class="fil6" points="6.1,1.32 6.12,1.35 "/>
   <path class="fil6" d="M6.11 1.32l0.02 0.03 -0.01 0.01 -0.02 -0.03 0.01 -0.01zm0 0l0.02 0.03 -0.01 0.01 -0.02 -0.03 0.01 -0.01z"/>
   <polygon class="fil6" points="1.66,1.38 1.64,1.41 "/>
   <path class="fil6" d="M1.67 1.38l-0.02 0.03 -0.01 -0.01 0.02 -0.03 0.01 0.01zm0 0l-0.02 0.03 -0.01 -0.01 0.02 -0.03 0.01 0.01z"/>
   <polygon class="fil6" points="6.18,1.43 6.2,1.46 "/>
   <path class="fil6" d="M6.19 1.42l0.02 0.03 -0.01 0.01 -0.02 -0.03 0.01 -0.01zm0 0l0.02 0.03 -0.01 0.01 -0.02 -0.03 0.01 -0.01z"/>
   <polygon class="fil6" points="6.21,1.47 6.23,1.5 "/>
   <path class="fil6" d="M6.22 1.47l0.02 0.03 -0.01 0.01 -0.02 -0.03 0.01 -0.01zm0 0l0.02 0.03 -0.01 0.01 -0.02 -0.03 0.01 -0.01z"/>
   <polygon class="fil6" points="4.45,2.32 4.74,2.33 4.45,2.34 "/>
   <path class="fil6" d="M4.45 2.32l0.3 0.01 0 0.02 -0.3 0.01 -0.01 0 0 -0.01 0 -0.02 0 -0.01 0.01 0zm0.01 0.01l0 0.02 -0.01 0 -0 -0.01 0.3 -0.01 0 0.01 -0 0.01 -0.3 -0.01 0 -0.01 0.01 0z"/>
   <polygon class="fil6" points="4.83,2.35 4.86,2.4 "/>
   <path class="fil6" d="M4.83 2.35l0.03 0.05 -0.01 0.01 -0.03 -0.05 0.01 -0.01zm0 0l0.03 0.05 -0.01 0.01 -0.03 -0.05 0.01 -0.01z"/>
   <polygon class="fil6" points="4.23,2.49 4.26,2.54 "/>
   <path class="fil6" d="M4.24 2.49l0.03 0.05 -0.01 0.01 -0.03 -0.05 0.01 -0.01zm0 0l0.03 0.05 -0.01 0.01 -0.03 -0.05 0.01 -0.01z"/>
   <polygon class="fil6" points="4.48,2.55 4.64,2.56 4.48,2.57 "/>
   <path class="fil6" d="M4.48 2.54l0.16 0.01 0 0.02 -0.16 0.01 -0.01 0 0 -0.01 0 -0.02 0 -0.01 0.01 0zm0.01 0.01l0 0.02 -0.01 0 -0 -0.01 0.16 -0.01 0 0.01 -0 0.01 -0.16 -0.01 0 -0.01 0.01 0z"/>
   <polygon class="fil6" points="1.16,2.64 1.16,2.68 1.15,2.68 "/>
   <path class="fil6" d="M1.16 2.64l0.01 0.04 0 0.01 -0.01 0 -0.02 0 -0.01 0 0 -0.01 0.01 -0.04 0.01 0zm0 0l-0.01 0.04 -0.01 -0 0 -0.01 0.02 0 0 0.01 -0.01 0 -0.01 -0.04 0.01 -0 0.01 0z"/>
   <polygon class="fil6" points="6.65,2.64 6.66,2.68 6.64,2.68 "/>
   <path class="fil6" d="M6.66 2.64l0.01 0.04 0 0.01 -0.01 0 -0.02 0 -0.01 0 0 -0.01 0.01 -0.04 0.01 0zm0 0l-0.01 0.04 -0.01 -0 0 -0.01 0.02 0 0 0.01 -0.01 0 -0.01 -0.04 0.01 -0 0.01 0z"/>
   <polygon class="fil6" points="3.39,2.75 3.86,2.76 3.39,2.76 "/>
   <path class="fil6" d="M3.39 2.74l0.46 0.01 0 0.02 -0.46 0.01 -0.01 0 0 -0.01 0 -0.02 0 -0.01 0.01 0zm0.01 0.01l0 0.02 -0.01 0 -0 -0.01 0.46 -0.01 0 0.01 -0 0.01 -0.46 -0.01 0 -0.01 0.01 0z"/>
   <polygon class="fil6" points="3.9,2.76 3.93,2.81 "/>
   <path class="fil6" d="M3.9 2.76l0.03 0.05 -0.01 0.01 -0.03 -0.05 0.01 -0.01zm0 0l0.03 0.05 -0.01 0.01 -0.03 -0.05 0.01 -0.01z"/>
   <polygon class="fil6" points="1.14,2.8 1.15,2.88 1.13,2.88 "/>
   <path class="fil6" d="M1.15 2.79l0.01 0.08 0 0.01 -0.01 0 -0.02 0 -0.01 0 0 -0.01 0.01 -0.08 0.02 0zm0 0l-0.01 0.08 -0.01 -0 0 -0.01 0.02 0 0 0.01 -0.01 0 -0.01 -0.08 0.01 -0 0.01 0z"/>
   <polygon class="fil6" points="6.67,2.8 6.68,2.91 6.66,2.91 "/>
   <path class="fil6" d="M6.68 2.79l0.01 0.11 0 0.01 -0.01 0 -0.02 0 -0.01 0 0 -0.01 0.01 -0.11 0.02 0zm0 0l-0.01 0.11 -0.01 -0 0 -0.01 0.02 0 0 0.01 -0.01 0 -0.01 -0.11 0.01 -0 0.01 0z"/>
   <polygon class="fil6" points="4.49,2.83 4.48,2.86 "/>
   <path class="fil6" d="M4.5 2.83l-0.02 0.03 -0.01 -0.01 0.02 -0.03 0.01 0.01zm0 0l-0.02 0.03 -0.01 -0.01 0.02 -0.03 0.01 0.01z"/>
   <polygon class="fil6" points="3.23,2.93 3.24,2.96 "/>
   <path class="fil6" d="M3.23 2.93l0.02 0.03 -0.01 0.01 -0.02 -0.03 0.01 -0.01zm0 0l0.02 0.03 -0.01 0.01 -0.02 -0.03 0.01 -0.01z"/>
   <polygon class="fil6" points="3.94,3.01 3.95,3.17 3.94,3.17 "/>
   <path class="fil6" d="M3.95 3.01l0.01 0.16 0 0.01 -0.01 0 -0.02 0 -0.01 0 0 -0.01 0.01 -0.16 0.02 0zm0 0l-0.01 0.16 -0.01 -0 0 -0.01 0.02 0 0 0.01 -0.01 0 -0.01 -0.16 0.01 -0 0.01 0z"/>
   <polygon class="fil6" points="1.14,3.1 1.15,3.2 1.13,3.2 "/>
   <path class="fil6" d="M1.15 3.1l0.01 0.1 0 0.01 -0.01 0 -0.02 0 -0.01 0 0 -0.01 0.01 -0.1 0.02 0zm0 0l-0.01 0.1 -0.01 -0 0 -0.01 0.02 0 0 0.01 -0.01 0 -0.01 -0.1 0.01 -0 0.01 0z"/>
   <polygon class="fil6" points="3.71,3.18 3.72,3.3 3.71,3.3 "/>
   <path class="fil6" d="M3.72 3.18l0.01 0.13 0 0.01 -0.01 0 -0.02 0 -0.01 0 0 -0.01 0.01 -0.13 0.02 0zm0 0l-0.01 0.13 -0.01 -0 0 -0.01 0.02 0 0 0.01 -0.01 0 -0.01 -0.13 0.01 -0 0.01 0z"/>
   <polygon class="fil6" points="4.31,3.18 4.29,3.21 "/>
   <path class="fil6" d="M4.31 3.18l-0.02 0.03 -0.01 -0.01 0.02 -0.03 0.01 0.01zm0 0l-0.02 0.03 -0.01 -0.01 0.02 -0.03 0.01 0.01z"/>
   <polygon class="fil6" points="1.16,3.31 1.16,3.35 1.15,3.35 "/>
   <path class="fil6" d="M1.16 3.31l0.01 0.04 0 0.01 -0.01 0 -0.02 0 -0.01 0 0 -0.01 0.01 -0.04 0.01 0zm0 0l-0.01 0.04 -0.01 -0 0 -0.01 0.02 0 0 0.01 -0.01 0 -0.01 -0.04 0.01 -0 0.01 0z"/>
   <polygon class="fil6" points="3.93,3.4 3.94,3.61 3.92,3.61 "/>
   <path class="fil6" d="M3.94 3.4l0.01 0.21 0 0.01 -0.01 0 -0.02 0 -0.01 0 0 -0.01 0.01 -0.21 0.02 0zm0 0l-0.01 0.21 -0.01 -0 0 -0.01 0.02 0 0 0.01 -0.01 0 -0.01 -0.21 0.01 -0 0.01 0z"/>
   <polygon class="fil6" points="6.73,3.4 6.77,3.41 6.73,3.42 "/>
   <path class="fil6" d="M6.73 3.4l0.04 0.01 0 0.01 -0.04 0.01 -0.01 0 0 -0.01 0 -0.02 0 -0.01 0.01 0zm0.01 0.01l0 0.02 -0.01 0 -0 -0.01 0.04 -0.01 0 0.01 -0 0.01 -0.04 -0.01 0 -0.01 0.01 0z"/>
   <polygon class="fil6" points="4.14,3.5 4.13,3.53 "/>
   <path class="fil6" d="M4.15 3.5l-0.02 0.03 -0.01 -0.01 0.02 -0.03 0.01 0.01zm0 0l-0.02 0.03 -0.01 -0.01 0.02 -0.03 0.01 0.01z"/>
   <polygon class="fil6" points="3.7,3.59 3.71,3.72 3.69,3.72 "/>
   <path class="fil6" d="M3.71 3.59l0.01 0.13 0 0.01 -0.01 0 -0.02 0 -0.01 0 0 -0.01 0.01 -0.13 0.02 0zm0 0l-0.01 0.13 -0.01 -0 0 -0.01 0.02 0 0 0.01 -0.01 0 -0.01 -0.13 0.01 -0 0.01 0z"/>
   <polygon class="fil6" points="3.91,3.83 3.94,3.9 3.9,3.91 "/>
   <path class="fil6" d="M3.92 3.83l0.02 0.07 0 0.01 -0.01 0 -0.03 0.02 -0.01 0.01 0 -0.01 0.01 -0.08 0.01 -0zm0 0l-0.01 0.08 -0.01 -0 -0 -0.01 0.03 -0.02 0 0.01 -0.01 0 -0.02 -0.07 0.01 -0 0.01 0z"/>
   <polygon class="fil6" points="3.96,3.85 3.94,3.88 "/>
   <path class="fil6" d="M3.96 3.85l-0.02 0.03 -0.01 -0.01 0.02 -0.03 0.01 0.01zm0 0l-0.02 0.03 -0.01 -0.01 0.02 -0.03 0.01 0.01z"/>
   <polygon class="fil6" points="3.68,3.98 3.69,4.13 3.68,4.13 "/>
   <path class="fil6" d="M3.69 3.98l0.01 0.14 0 0.01 -0.01 0 -0.02 0 -0.01 0 0 -0.01 0.01 -0.14 0.02 0zm0 0l-0.01 0.14 -0.01 -0 0 -0.01 0.02 0 0 0.01 -0.01 0 -0.01 -0.14 0.01 -0 0.01 0z"/>
   <polygon class="fil6" points="3.97,4.29 3.94,4.33 "/>
   <path class="fil6" d="M3.98 4.29l-0.03 0.05 -0.01 -0.01 0.03 -0.05 0.01 0.01zm0 0l-0.03 0.05 -0.01 -0.01 0.03 -0.05 0.01 0.01z"/>
   <polygon class="fil6" points="1.57,4.48 1.58,4.52 "/>
   <path class="fil6" d="M1.57 4.48l0.02 0.03 -0.01 0.01 -0.02 -0.03 0.01 -0.01zm0 0l0.02 0.03 -0.01 0.01 -0.02 -0.03 0.01 -0.01z"/>
   <polygon class="fil6" points="1.6,4.53 1.61,4.56 "/>
   <path class="fil6" d="M1.61 4.53l0.02 0.03 -0.01 0.01 -0.02 -0.03 0.01 -0.01zm0 0l0.02 0.03 -0.01 0.01 -0.02 -0.03 0.01 -0.01z"/>
   <polygon class="fil6" points="2.27,4.56 2.61,4.57 2.27,4.58 "/>
   <path class="fil6" d="M2.27 4.55l0.34 0.01 0 0.02 -0.34 0.01 -0.01 0 0 -0.01 0 -0.02 0 -0.01 0.01 0zm0.01 0.01l0 0.02 -0.01 0 -0 -0.01 0.34 -0.01 0 0.01 -0 0.01 -0.34 -0.01 0 -0.01 0.01 0z"/>
   <polygon class="fil6" points="5.21,4.56 5.55,4.57 5.21,4.58 "/>
   <path class="fil6" d="M5.21 4.55l0.34 0.01 0 0.02 -0.34 0.01 -0.01 0 0 -0.01 0 -0.02 0 -0.01 0.01 0zm0.01 0.01l0 0.02 -0.01 0 -0 -0.01 0.34 -0.01 0 0.01 -0 0.01 -0.34 -0.01 0 -0.01 0.01 0z"/>
   <polygon class="fil6" points="1.63,4.58 1.64,4.61 "/>
   <path class="fil6" d="M1.64 4.57l0.02 0.03 -0.01 0.01 -0.02 -0.03 0.01 -0.01zm0 0l0.02 0.03 -0.01 0.01 -0.02 -0.03 0.01 -0.01z"/>
   <polygon class="fil6" points="2.76,4.58 2.79,4.58 2.76,4.59 "/>
   <path class="fil6" d="M2.76 4.57l0.04 0.01 0 0.01 -0.04 0.01 -0.01 0 0 -0.01 0 -0.02 0 -0.01 0.01 0zm0.01 0.01l0 0.02 -0.01 0 -0 -0.01 0.04 -0.01 0 0.01 -0 0.01 -0.04 -0.01 0 -0.01 0.01 0z"/>
   <polygon class="fil6" points="5.02,4.58 5.06,4.58 5.02,4.59 "/>
   <path class="fil6" d="M5.03 4.57l0.04 0.01 0 0.01 -0.04 0.01 -0.01 0 0 -0.01 0 -0.02 0 -0.01 0.01 0zm0.01 0.01l0 0.02 -0.01 0 -0 -0.01 0.04 -0.01 0 0.01 -0 0.01 -0.04 -0.01 0 -0.01 0.01 0z"/>
   <polygon class="fil6" points="6.17,4.59 6.15,4.62 "/>
   <path class="fil6" d="M6.17 4.59l-0.02 0.03 -0.01 -0.01 0.02 -0.03 0.01 0.01zm0 0l-0.02 0.03 -0.01 -0.01 0.02 -0.03 0.01 0.01z"/>
   <polygon class="fil6" points="1.67,4.64 1.69,4.67 "/>
   <path class="fil6" d="M1.68 4.63l0.02 0.03 -0.01 0.01 -0.02 -0.03 0.01 -0.01zm0 0l0.02 0.03 -0.01 0.01 -0.02 -0.03 0.01 -0.01z"/>
   <polygon class="fil6" points="2.16,4.65 2.17,5.09 2.15,5.09 "/>
   <path class="fil6" d="M2.17 4.65l0.01 0.43 0 0.01 -0.01 0 -0.02 0 -0.01 0 0 -0.01 0.01 -0.43 0.02 0zm0 0l-0.01 0.43 -0.01 -0 0 -0.01 0.02 0 0 0.01 -0.01 0 -0.01 -0.43 0.01 -0 0.01 0z"/>
   <polygon class="fil6" points="5.65,4.65 5.66,5.1 5.64,5.1 "/>
   <path class="fil6" d="M5.66 4.65l0.01 0.45 0 0.01 -0.01 0 -0.02 0 -0.01 0 0 -0.01 0.01 -0.45 0.02 0zm0 0l-0.01 0.45 -0.01 -0 0 -0.01 0.02 0 0 0.01 -0.01 0 -0.01 -0.45 0.01 -0 0.01 0z"/>
   <polygon class="fil6" points="6.12,4.65 6.1,4.68 "/>
   <path class="fil6" d="M6.13 4.66l-0.02 0.03 -0.01 -0.01 0.02 -0.03 0.01 0.01zm0 0l-0.02 0.03 -0.01 -0.01 0.02 -0.03 0.01 0.01z"/>
   <polygon class="fil6" points="1.72,4.7 1.74,4.73 "/>
   <path class="fil6" d="M1.73 4.69l0.02 0.03 -0.01 0.01 -0.02 -0.03 0.01 -0.01zm0 0l0.02 0.03 -0.01 0.01 -0.02 -0.03 0.01 -0.01z"/>
   <polygon class="fil6" points="6.07,4.71 6.06,4.74 "/>
   <path class="fil6" d="M6.08 4.72l-0.02 0.03 -0.01 -0.01 0.02 -0.03 0.01 0.01zm0 0l-0.02 0.03 -0.01 -0.01 0.02 -0.03 0.01 0.01z"/>
   <polygon class="fil6" points="1.78,4.77 1.81,4.82 "/>
   <path class="fil6" d="M1.79 4.77l0.03 0.05 -0.01 0.01 -0.03 -0.05 0.01 -0.01zm0 0l0.03 0.05 -0.01 0.01 -0.03 -0.05 0.01 -0.01z"/>
   <polygon class="fil6" points="2.39,4.79 2.72,4.8 2.39,4.8 "/>
   <path class="fil6" d="M2.39 4.78l0.33 0.01 0 0.02 -0.33 0.01 -0.01 0 0 -0.01 0 -0.02 0 -0.01 0.01 0zm0.01 0.01l0 0.02 -0.01 0 -0 -0.01 0.33 -0.01 0 0.01 -0 0.01 -0.33 -0.01 0 -0.01 0.01 0z"/>
   <polygon class="fil6" points="5.1,4.79 5.43,4.8 5.1,4.8 "/>
   <path class="fil6" d="M5.1 4.78l0.33 0.01 0 0.02 -0.33 0.01 -0.01 0 0 -0.01 0 -0.02 0 -0.01 0.01 0zm0.01 0.01l0 0.02 -0.01 0 -0 -0.01 0.33 -0.01 0 0.01 -0 0.01 -0.33 -0.01 0 -0.01 0.01 0z"/>
   <polygon class="fil6" points="6.01,4.79 5.97,4.85 "/>
   <path class="fil6" d="M6.02 4.79l-0.05 0.06 -0.01 -0.01 0.05 -0.06 0.01 0.01zm0 0l-0.05 0.06 -0.01 -0.01 0.05 -0.06 0.01 0.01z"/>
   <polygon class="fil6" points="3.43,4.83 3.44,4.87 "/>
   <path class="fil6" d="M3.43 4.83l0.02 0.03 -0.01 0.01 -0.02 -0.03 0.01 -0.01zm0 0l0.02 0.03 -0.01 0.01 -0.02 -0.03 0.01 -0.01z"/>
   <polygon class="fil6" points="4.38,4.83 4.37,4.87 "/>
   <path class="fil6" d="M4.39 4.84l-0.02 0.03 -0.01 -0.01 0.02 -0.03 0.01 0.01zm0 0l-0.02 0.03 -0.01 -0.01 0.02 -0.03 0.01 0.01z"/>
   <polygon class="fil6" points="3.49,4.88 3.52,4.93 "/>
   <path class="fil6" d="M3.49 4.88l0.03 0.05 -0.01 0.01 -0.03 -0.05 0.01 -0.01zm0 0l0.03 0.05 -0.01 0.01 -0.03 -0.05 0.01 -0.01z"/>
   <polygon class="fil6" points="4.32,4.88 4.29,4.93 "/>
   <path class="fil6" d="M4.33 4.88l-0.03 0.05 -0.01 -0.01 0.03 -0.05 0.01 0.01zm0 0l-0.03 0.05 -0.01 -0.01 0.03 -0.05 0.01 0.01z"/>
   <polygon class="fil6" points="1.92,4.93 1.95,4.97 "/>
   <path class="fil6" d="M1.92 4.92l0.03 0.05 -0.01 0.01 -0.03 -0.05 0.01 -0.01zm0 0l0.03 0.05 -0.01 0.01 -0.03 -0.05 0.01 -0.01z"/>
   <polygon class="fil6" points="3.18,4.94 3.2,4.97 "/>
   <path class="fil6" d="M3.19 4.94l0.02 0.03 -0.01 0.01 -0.02 -0.03 0.01 -0.01zm0 0l0.02 0.03 -0.01 0.01 -0.02 -0.03 0.01 -0.01z"/>
   <polygon class="fil6" points="4.63,4.94 4.61,4.97 "/>
   <path class="fil6" d="M4.63 4.94l-0.02 0.03 -0.01 -0.01 0.02 -0.03 0.01 0.01zm0 0l-0.02 0.03 -0.01 -0.01 0.02 -0.03 0.01 0.01z"/>
   <polygon class="fil6" points="3.26,4.99 3.27,5.02 "/>
   <path class="fil6" d="M3.26 4.98l0.02 0.03 -0.01 0.01 -0.02 -0.03 0.01 -0.01zm0 0l0.02 0.03 -0.01 0.01 -0.02 -0.03 0.01 -0.01z"/>
   <polygon class="fil6" points="4.55,4.99 4.54,5.02 "/>
   <path class="fil6" d="M4.56 4.99l-0.02 0.03 -0.01 -0.01 0.02 -0.03 0.01 0.01zm0 0l-0.02 0.03 -0.01 -0.01 0.02 -0.03 0.01 0.01z"/>
   <polygon class="fil6" points="3.32,5.03 3.35,5.08 "/>
   <path class="fil6" d="M3.32 5.03l0.03 0.05 -0.01 0.01 -0.03 -0.05 0.01 -0.01zm0 0l0.03 0.05 -0.01 0.01 -0.03 -0.05 0.01 -0.01z"/>
   <polygon class="fil6" points="4.49,5.03 4.46,5.08 "/>
   <path class="fil6" d="M4.5 5.04l-0.03 0.05 -0.01 -0.01 0.03 -0.05 0.01 0.01zm0 0l-0.03 0.05 -0.01 -0.01 0.03 -0.05 0.01 0.01z"/>
   <polygon class="fil6" points="3.65,5.05 3.7,5.11 "/>
   <path class="fil6" d="M3.66 5.04l0.05 0.06 -0.01 0.01 -0.05 -0.06 0.01 -0.01zm0 0l0.05 0.06 -0.01 0.01 -0.05 -0.06 0.01 -0.01z"/>
   <polygon class="fil6" points="4.14,5.06 4.11,5.11 "/>
   <path class="fil6" d="M4.15 5.07l-0.03 0.05 -0.01 -0.01 0.03 -0.05 0.01 0.01zm0 0l-0.03 0.05 -0.01 -0.01 0.03 -0.05 0.01 0.01z"/>
   <polygon class="fil6" points="5.42,5.06 5.43,5.15 5.41,5.15 "/>
   <path class="fil6" d="M5.43 5.06l0.01 0.08 0 0.01 -0.01 0 -0.02 0 -0.01 0 0 -0.01 0.01 -0.08 0.02 0zm0 0l-0.01 0.08 -0.01 -0 0 -0.01 0.02 0 0 0.01 -0.01 0 -0.01 -0.08 0.01 -0 0.01 0z"/>
   <polygon class="fil6" points="5.74,5.06 5.69,5.12 "/>
   <path class="fil6" d="M5.75 5.07l-0.05 0.06 -0.01 -0.01 0.05 -0.06 0.01 0.01zm0 0l-0.05 0.06 -0.01 -0.01 0.05 -0.06 0.01 0.01z"/>
   <polygon class="fil6" points="2.09,5.08 2.12,5.12 "/>
   <path class="fil6" d="M2.09 5.07l0.03 0.05 -0.01 0.01 -0.03 -0.05 0.01 -0.01zm0 0l0.03 0.05 -0.01 0.01 -0.03 -0.05 0.01 -0.01z"/>
   <polygon class="fil6" points="2.39,5.08 2.4,5.15 2.38,5.15 "/>
   <path class="fil6" d="M2.4 5.08l0.01 0.07 0 0.01 -0.01 0 -0.02 0 -0.01 0 0 -0.01 0.01 -0.07 0.02 0zm0 0l-0.01 0.07 -0.01 -0 0 -0.01 0.02 0 0 0.01 -0.01 0 -0.01 -0.07 0.01 -0 0.01 0z"/>
   <polygon class="fil6" points="4.41,5.09 4.32,5.2 "/>
   <path class="fil6" d="M4.42 5.1l-0.09 0.11 -0.01 -0.01 0.09 -0.11 0.01 0.01zm0 0l-0.09 0.11 -0.01 -0.01 0.09 -0.11 0.01 0.01z"/>
   <polygon class="fil6" points="3.41,5.11 3.47,5.19 "/>
   <path class="fil6" d="M3.42 5.1l0.06 0.08 -0.01 0.01 -0.06 -0.08 0.01 -0.01zm0 0l0.06 0.08 -0.01 0.01 -0.06 -0.08 0.01 -0.01z"/>
   <polygon class="fil6" points="3.73,5.14 3.74,5.17 "/>
   <path class="fil6" d="M3.74 5.14l0.02 0.03 -0.01 0.01 -0.02 -0.03 0.01 -0.01zm0 0l0.02 0.03 -0.01 0.01 -0.02 -0.03 0.01 -0.01z"/>
   <polygon class="fil6" points="4.08,5.14 4.06,5.17 "/>
   <path class="fil6" d="M4.09 5.14l-0.02 0.03 -0.01 -0.01 0.02 -0.03 0.01 0.01zm0 0l-0.02 0.03 -0.01 -0.01 0.02 -0.03 0.01 0.01z"/>
   <polygon class="fil6" points="2.41,5.2 2.41,5.24 2.4,5.24 "/>
   <path class="fil6" d="M2.41 5.2l0.01 0.04 0 0.01 -0.01 0 -0.02 0 -0.01 0 0 -0.01 0.01 -0.04 0.01 0zm0 0l-0.01 0.04 -0.01 -0 0 -0.01 0.02 0 0 0.01 -0.01 0 -0.01 -0.04 0.01 -0 0.01 0z"/>
   <polygon class="fil6" points="5.4,5.2 5.41,5.24 5.4,5.24 "/>
   <path class="fil6" d="M5.41 5.2l0.01 0.04 0 0.01 -0.01 0 -0.02 0 -0.01 0 0 -0.01 0.01 -0.04 0.01 0zm0 0l-0.01 0.04 -0.01 -0 0 -0.01 0.02 0 0 0.01 -0.01 0 -0.01 -0.04 0.01 -0 0.01 0z"/>
   <polygon class="fil6" points="3.52,5.23 3.55,5.28 "/>
   <path class="fil6" d="M3.52 5.23l0.03 0.05 -0.01 0.01 -0.03 -0.05 0.01 -0.01zm0 0l0.03 0.05 -0.01 0.01 -0.03 -0.05 0.01 -0.01z"/>
   <polygon class="fil6" points="4.29,5.23 4.26,5.28 "/>
   <path class="fil6" d="M4.3 5.23l-0.03 0.05 -0.01 -0.01 0.03 -0.05 0.01 0.01zm0 0l-0.03 0.05 -0.01 -0.01 0.03 -0.05 0.01 0.01z"/>
   <polygon class="fil6" points="3.62,5.38 3.64,5.41 "/>
   <path class="fil6" d="M3.63 5.38l0.02 0.03 -0.01 0.01 -0.02 -0.03 0.01 -0.01zm0 0l0.02 0.03 -0.01 0.01 -0.02 -0.03 0.01 -0.01z"/>
   <polygon class="fil6" points="4.19,5.38 4.17,5.41 "/>
   <path class="fil6" d="M4.19 5.39l-0.02 0.03 -0.01 -0.01 0.02 -0.03 0.01 0.01zm0 0l-0.02 0.03 -0.01 -0.01 0.02 -0.03 0.01 0.01z"/>
   <polygon class="fil6" points="5.31,5.49 5.32,5.51 5.28,5.57 5.29,5.54 "/>
   <path class="fil6" d="M5.32 5.49l0.01 0.02 0 0 -0 0 -0.04 0.05 -0.01 -0.01 0.01 -0.02 0 -0 0 -0 0.02 -0.05 0.01 -0.02 0.01 0.02zm-0 0.01l-0.02 0.05 -0.01 -0 0.01 0 -0.01 0.02 -0.01 -0 -0.01 -0 0.04 -0.05 0.01 0 -0.01 0 -0.01 -0.02 0.01 -0 0.01 0z"/>
   <polygon class="fil6" points="2.53,5.57 2.54,5.6 "/>
   <path class="fil6" d="M2.53 5.56l0.02 0.03 -0.01 0.01 -0.02 -0.03 0.01 -0.01zm0 0l0.02 0.03 -0.01 0.01 -0.02 -0.03 0.01 -0.01z"/>
   <polygon class="fil6" points="2.57,5.64 2.59,5.67 "/>
   <path class="fil6" d="M2.58 5.64l0.02 0.03 -0.01 0.01 -0.02 -0.03 0.01 -0.01zm0 0l0.02 0.03 -0.01 0.01 -0.02 -0.03 0.01 -0.01z"/>
   <polygon class="fil6" points="5.24,5.64 5.22,5.67 "/>
   <path class="fil6" d="M5.24 5.65l-0.02 0.03 -0.01 -0.01 0.02 -0.03 0.01 0.01zm0 0l-0.02 0.03 -0.01 -0.01 0.02 -0.03 0.01 0.01z"/>
   <polygon class="fil6" points="2.6,5.69 2.63,5.73 "/>
   <path class="fil6" d="M2.61 5.68l0.03 0.05 -0.01 0.01 -0.03 -0.05 0.01 -0.01zm0 0l0.03 0.05 -0.01 0.01 -0.03 -0.05 0.01 -0.01z"/>
   <polygon class="fil6" points="3.76,5.7 3.77,5.74 3.75,5.74 "/>
   <path class="fil6" d="M3.77 5.7l0.01 0.04 0 0.01 -0.01 0 -0.02 0 -0.01 0 0 -0.01 0.01 -0.04 0.01 0zm0 0l-0.01 0.04 -0.01 -0 0 -0.01 0.02 0 0 0.01 -0.01 0 -0.01 -0.04 0.01 -0 0.01 0z"/>
   <polygon class="fil6" points="4.05,5.7 4.06,5.74 4.04,5.74 "/>
   <path class="fil6" d="M4.06 5.7l0.01 0.04 0 0.01 -0.01 0 -0.02 0 -0.01 0 0 -0.01 0.01 -0.04 0.01 0zm0 0l-0.01 0.04 -0.01 -0 0 -0.01 0.02 0 0 0.01 -0.01 0 -0.01 -0.04 0.01 -0 0.01 0z"/>
   <polygon class="fil6" points="5.19,5.7 5.18,5.73 "/>
   <path class="fil6" d="M5.2 5.71l-0.02 0.03 -0.01 -0.01 0.02 -0.03 0.01 0.01zm0 0l-0.02 0.03 -0.01 -0.01 0.02 -0.03 0.01 0.01z"/>
   <polygon class="fil6" points="2.66,5.76 2.82,5.93 "/>
   <path class="fil6" d="M2.67 5.76l0.15 0.17 -0.01 0.01 -0.15 -0.17 0.01 -0.01zm0 0l0.15 0.17 -0.01 0.01 -0.15 -0.17 0.01 -0.01z"/>
   <polygon class="fil6" points="5.15,5.76 4.99,5.93 "/>
   <path class="fil6" d="M5.15 5.77l-0.15 0.17 -0.01 -0.01 0.15 -0.17 0.01 0.01zm0 0l-0.15 0.17 -0.01 -0.01 0.15 -0.17 0.01 0.01z"/>
   <polygon class="fil6" points="3.78,5.78 3.78,5.82 3.77,5.82 "/>
   <path class="fil6" d="M3.78 5.78l0.01 0.04 0 0.01 -0.01 0 -0.02 0 -0.01 0 0 -0.01 0.01 -0.04 0.01 0zm0 0l-0.01 0.04 -0.01 -0 0 -0.01 0.02 0 0 0.01 -0.01 0 -0.01 -0.04 0.01 -0 0.01 0z"/>
   <polygon class="fil6" points="4.03,5.78 4.04,5.82 4.03,5.82 "/>
   <path class="fil6" d="M4.04 5.78l0.01 0.04 0 0.01 -0.01 0 -0.02 0 -0.01 0 0 -0.01 0.01 -0.04 0.01 0zm0 0l-0.01 0.04 -0.01 -0 0 -0.01 0.02 0 0 0.01 -0.01 0 -0.01 -0.04 0.01 -0 0.01 0z"/>
   <polygon class="fil6" points="3.79,5.89 3.8,6.2 3.78,6.2 "/>
   <path class="fil6" d="M3.8 5.89l0.01 0.31 0 0.01 -0.01 0 -0.02 0 -0.01 0 0 -0.01 0.01 -0.31 0.02 0zm0 0l-0.01 0.31 -0.01 -0 0 -0.01 0.02 0 0 0.01 -0.01 0 -0.01 -0.31 0.01 -0 0.01 0z"/>
   <polygon class="fil6" points="4.02,5.89 4.03,6.2 4.01,6.2 "/>
   <path class="fil6" d="M4.03 5.89l0.01 0.31 0 0.01 -0.01 0 -0.02 0 -0.01 0 0 -0.01 0.01 -0.31 0.02 0zm0 0l-0.01 0.31 -0.01 -0 0 -0.01 0.02 0 0 0.01 -0.01 0 -0.01 -0.31 0.01 -0 0.01 0z"/>
   <polygon class="fil6" points="2.86,5.95 2.88,5.98 "/>
   <path class="fil6" d="M2.87 5.94l0.02 0.03 -0.01 0.01 -0.02 -0.03 0.01 -0.01zm0 0l0.02 0.03 -0.01 0.01 -0.02 -0.03 0.01 -0.01z"/>
   <polygon class="fil6" points="4.95,5.95 4.93,5.98 "/>
   <path class="fil6" d="M4.95 5.95l-0.02 0.03 -0.01 -0.01 0.02 -0.03 0.01 0.01zm0 0l-0.02 0.03 -0.01 -0.01 0.02 -0.03 0.01 0.01z"/>
   <polygon class="fil6" points="4.86,6.01 4.84,6.04 "/>
   <path class="fil6" d="M4.86 6.01l-0.02 0.03 -0.01 -0.01 0.02 -0.03 0.01 0.01zm0 0l-0.02 0.03 -0.01 -0.01 0.02 -0.03 0.01 0.01z"/>
   <polygon class="fil6" points="3.03,6.05 3.07,6.08 3.04,6.08 "/>
   <path class="fil6" d="M3.03 6.05l0.04 0.02 0.01 0.01 -0.02 0.01 -0.02 0.01 -0.01 0 -0 -0.01 -0.02 -0.03 -0.01 -0.02 0.02 0.01zm0 0l0.02 0.03 -0.01 0 -0 -0.01 0.02 -0.01 0 0.01 -0 0.01 -0.04 -0.02 0 -0.01 0.01 -0z"/>
   <polygon class="fil6" points="4.49,6.16 4.53,6.17 4.49,6.17 "/>
   <path class="fil6" d="M4.49 6.15l0.04 0.01 0 0.01 -0.04 0.01 -0.01 0 0 -0.01 0 -0.02 0 -0.01 0.01 0zm0.01 0.01l0 0.02 -0.01 0 -0 -0.01 0.04 -0.01 0 0.01 -0 0.01 -0.04 -0.01 0 -0.01 0.01 0z"/>
   <polygon class="fil6" points="4.41,6.17 4.45,6.18 4.41,6.19 "/>
   <path class="fil6" d="M4.42 6.17l0.04 0.01 0 0.01 -0.04 0.01 -0.01 0 0 -0.01 0 -0.02 0 -0.01 0.01 0zm0.01 0.01l0 0.02 -0.01 0 -0 -0.01 0.04 -0.01 0 0.01 -0 0.01 -0.04 -0.01 0 -0.01 0.01 0z"/>
   <polygon class="fil6" points="3.46,6.19 3.54,6.2 3.46,6.2 "/>
   <path class="fil6" d="M3.46 6.18l0.08 0.01 0 0.02 -0.08 0.01 -0.01 0 0 -0.01 0 -0.02 0 -0.01 0.01 0zm0.01 0.01l0 0.02 -0.01 0 -0 -0.01 0.08 -0.01 0 0.01 -0 0.01 -0.08 -0.01 0 -0.01 0.01 0z"/>
   <polygon class="fil6" points="4.28,6.19 4.36,6.2 4.28,6.2 "/>
   <path class="fil6" d="M4.28 6.18l0.08 0.01 0 0.02 -0.08 0.01 -0.01 0 0 -0.01 0 -0.02 0 -0.01 0.01 0zm0.01 0.01l0 0.02 -0.01 0 -0 -0.01 0.08 -0.01 0 0.01 -0 0.01 -0.08 -0.01 0 -0.01 0.01 0z"/>
   <polygon class="fil6" points="4.99,6.19 4.98,6.22 "/>
   <path class="fil6" d="M5 6.19l-0.02 0.03 -0.01 -0.01 0.02 -0.03 0.01 0.01zm0 0l-0.02 0.03 -0.01 -0.01 0.02 -0.03 0.01 0.01z"/>
   <polygon class="fil6" points="3.36,6.4 3.4,6.41 3.36,6.42 "/>
   <path class="fil6" d="M3.37 6.4l0.04 0.01 0 0.01 -0.04 0.01 -0.01 0 0 -0.01 0 -0.02 0 -0.01 0.01 0zm0.01 0.01l0 0.02 -0.01 0 -0 -0.01 0.04 -0.01 0 0.01 -0 0.01 -0.04 -0.01 0 -0.01 0.01 0z"/>
   <polygon class="fil6" points="4.41,6.4 4.45,6.41 4.41,6.42 "/>
   <path class="fil6" d="M4.42 6.4l0.04 0.01 0 0.01 -0.04 0.01 -0.01 0 0 -0.01 0 -0.02 0 -0.01 0.01 0zm0.01 0.01l0 0.02 -0.01 0 -0 -0.01 0.04 -0.01 0 0.01 -0 0.01 -0.04 -0.01 0 -0.01 0.01 0z"/>
   <polygon class="fil6" points="3.5,6.42 4.32,6.43 3.5,6.43 "/>
   <path class="fil6" d="M3.5 6.41l0.81 0.01 0 0.02 -0.81 0.01 -0.01 0 0 -0.01 0 -0.02 0 -0.01 0.01 0zm0.01 0.01l0 0.02 -0.01 0 -0 -0.01 0.81 -0.01 0 0.01 -0 0.01 -0.81 -0.01 0 -0.01 0.01 0z"/>
   <polygon class="fil6" points="4.99,6.57 5,6.61 4.99,6.61 "/>
   <path class="fil6" d="M5 6.57l0.01 0.04 0 0.01 -0.01 0 -0.02 0 -0.01 0 0 -0.01 0.01 -0.04 0.01 0zm0 0l-0.01 0.04 -0.01 -0 0 -0.01 0.02 0 0 0.01 -0.01 0 -0.01 -0.04 0.01 -0 0.01 0z"/>
   <polygon class="fil6" points="2.86,6.71 2.88,6.74 "/>
   <path class="fil6" d="M2.87 6.7l0.02 0.03 -0.01 0.01 -0.02 -0.03 0.01 -0.01zm0 0l0.02 0.03 -0.01 0.01 -0.02 -0.03 0.01 -0.01z"/>
   <polygon class="fil6" points="4.93,6.72 4.92,6.75 "/>
   <path class="fil6" d="M4.94 6.73l-0.02 0.03 -0.01 -0.01 0.02 -0.03 0.01 0.01zm0 0l-0.02 0.03 -0.01 -0.01 0.02 -0.03 0.01 0.01z"/>
   <polygon class="fil6" points="2.94,6.78 2.95,6.81 "/>
   <path class="fil6" d="M2.94 6.78l0.02 0.03 -0.01 0.01 -0.02 -0.03 0.01 -0.01zm0 0l0.02 0.03 -0.01 0.01 -0.02 -0.03 0.01 -0.01z"/>
   <polygon class="fil6" points="4.87,6.78 4.86,6.81 "/>
   <path class="fil6" d="M4.88 6.79l-0.02 0.03 -0.01 -0.01 0.02 -0.03 0.01 0.01zm0 0l-0.02 0.03 -0.01 -0.01 0.02 -0.03 0.01 0.01z"/>
   <polygon class="fil6" points="3.09,6.86 3.14,6.87 3.09,6.87 "/>
   <path class="fil6" d="M3.09 6.85l0.05 0.01 0 0.02 -0.05 0.01 -0.01 0 0 -0.01 0 -0.02 0 -0.01 0.01 0zm0.01 0.01l0 0.02 -0.01 0 -0 -0.01 0.05 -0.01 0 0.01 -0 0.01 -0.05 -0.01 0 -0.01 0.01 0z"/>
   <polygon class="fil6" points="4.49,6.86 4.73,6.87 4.49,6.87 "/>
   <path class="fil6" d="M4.49 6.85l0.24 0.01 0 0.02 -0.24 0.01 -0.01 0 0 -0.01 0 -0.02 0 -0.01 0.01 0zm0.01 0.01l0 0.02 -0.01 0 -0 -0.01 0.24 -0.01 0 0.01 -0 0.01 -0.24 -0.01 0 -0.01 0.01 0z"/>
   <path class="fil6" d="M3.1 7.09l1.61 0c0.01,0 0.02,0.04 0.01,0.1l-0.02 0c0.01,-0.05 0,-0.08 -0.01,-0.08l-1.58 0 -0.01 0.09 -0.01 -0.11z"/>
   <path class="fil6" d="M3.1 7.08l1.61 0 0 0 0 0c0.01,0 0.02,0.02 0.02,0.03 0,0.02 -0,0.04 -0,0.07l-0 0.01 -0.01 0 -0.02 0 -0.01 0 0 -0.01c0,-0.03 0,-0.05 0,-0.06 -0,-0.01 -0,-0.01 -0,-0.01l0 -0.01 0 0.01 -1.58 0 0 -0.01 0.01 0 -0.01 0.09 -0.02 -0 -0.01 -0.11 -0 -0.01 0.01 0zm0.01 0.01l0.01 0.11 -0.01 0 -0.01 -0 0.01 -0.09 0 -0.01 0.01 0 1.58 0 0 0 0 0c0.01,0 0.02,0.01 0.02,0.03 0,0.01 0,0.04 -0,0.06l-0.01 -0 0 -0.01 0.02 0 0 0.01 -0.01 -0c0,-0.03 0.01,-0.05 0,-0.07 -0,-0.02 -0,-0.02 -0.01,-0.02l0 -0.01 0 0.01 -1.61 0 0 -0.01 0.01 -0z"/>
   <polygon class="fil6" points="3.18,7.39 3.27,7.5 "/>
   <path class="fil6" d="M3.19 7.39l0.09 0.11 -0.01 0.01 -0.09 -0.11 0.01 -0.01zm0 0l0.09 0.11 -0.01 0.01 -0.09 -0.11 0.01 -0.01z"/>
   <polygon class="fil6" points="4.63,7.39 4.54,7.5 "/>
   <path class="fil6" d="M4.63 7.4l-0.09 0.11 -0.01 -0.01 0.09 -0.11 0.01 0.01zm0 0l-0.09 0.11 -0.01 -0.01 0.09 -0.11 0.01 0.01z"/>
   <polygon class="fil6" points="3.3,7.5 3.32,7.53 "/>
   <path class="fil6" d="M3.31 7.5l0.02 0.03 -0.01 0.01 -0.02 -0.03 0.01 -0.01zm0 0l0.02 0.03 -0.01 0.01 -0.02 -0.03 0.01 -0.01z"/>
   <polygon class="fil6" points="4.51,7.5 4.49,7.53 "/>
   <path class="fil6" d="M4.51 7.5l-0.02 0.03 -0.01 -0.01 0.02 -0.03 0.01 0.01zm0 0l-0.02 0.03 -0.01 -0.01 0.02 -0.03 0.01 0.01z"/>
   <polygon class="fil6" points="3.43,7.56 3.48,7.57 3.43,7.57 "/>
   <path class="fil6" d="M3.43 7.55l0.05 0.01 0 0.02 -0.05 0.01 -0.01 0 0 -0.01 0 -0.02 0 -0.01 0.01 0zm0.01 0.01l0 0.02 -0.01 0 -0 -0.01 0.05 -0.01 0 0.01 -0 0.01 -0.05 -0.01 0 -0.01 0.01 0z"/>
   <polygon class="fil6" points="4.34,7.56 4.38,7.57 4.34,7.57 "/>
   <path class="fil6" d="M4.34 7.55l0.04 0.01 0 0.01 -0.04 0.01 -0.01 0 0 -0.01 0 -0.02 0 -0.01 0.01 0zm0.01 0.01l0 0.02 -0.01 0 -0 -0.01 0.04 -0.01 0 0.01 -0 0.01 -0.04 -0.01 0 -0.01 0.01 0z"/>
   <polygon class="fil7" points="3.7,0.01 3.89,0.02 3.7,0.02 "/>
   <path class="fil7" d="M3.7 0l0.19 0.01 0 0.02 -0.19 0.01 -0.01 0 0 -0.01 0 -0.02 0 -0.01 0.01 0zm0.01 0.01l0 0.02 -0.01 0 -0 -0.01 0.19 -0.01 0 0.01 -0 0.01 -0.19 -0.01 0 -0.01 0.01 0z"/>
   <polygon class="fil7" points="3.93,0.01 4.1,0.02 3.93,0.02 "/>
   <path class="fil7" d="M3.93 0l0.18 0.01 0 0.02 -0.18 0.01 -0.01 0 0 -0.01 0 -0.02 0 -0.01 0.01 0zm0.01 0.01l0 0.02 -0.01 0 -0 -0.01 0.18 -0.01 0 0.01 -0 0.01 -0.18 -0.01 0 -0.01 0.01 0z"/>
   <polygon class="fil7" points="3.55,0.02 3.6,0.03 3.55,0.04 "/>
   <path class="fil7" d="M3.55 0.02l0.05 0.01 0 0.02 -0.05 0.01 -0.01 0 0 -0.01 0 -0.02 0 -0.01 0.01 0zm0.01 0.01l0 0.02 -0.01 0 -0 -0.01 0.05 -0.01 0 0.01 -0 0.01 -0.05 -0.01 0 -0.01 0.01 0z"/>
   <polygon class="fil7" points="4.22,0.02 4.27,0.03 4.22,0.04 "/>
   <path class="fil7" d="M4.22 0.02l0.05 0.01 0 0.02 -0.05 0.01 -0.01 0 0 -0.01 0 -0.02 0 -0.01 0.01 0zm0.01 0.01l0 0.02 -0.01 0 -0 -0.01 0.05 -0.01 0 0.01 -0 0.01 -0.05 -0.01 0 -0.01 0.01 0z"/>
   <polygon class="fil7" points="3.44,0.04 3.48,0.05 3.44,0.05 "/>
   <path class="fil7" d="M3.44 0.03l0.04 0.01 0 0.01 -0.04 0.01 -0.01 0 0 -0.01 0 -0.02 0 -0.01 0.01 0zm0.01 0.01l0 0.02 -0.01 0 -0 -0.01 0.04 -0.01 0 0.01 -0 0.01 -0.04 -0.01 0 -0.01 0.01 0z"/>
   <polygon class="fil7" points="4.34,0.04 4.38,0.05 4.34,0.05 "/>
   <path class="fil7" d="M4.34 0.03l0.04 0.01 0 0.01 -0.04 0.01 -0.01 0 0 -0.01 0 -0.02 0 -0.01 0.01 0zm0.01 0.01l0 0.02 -0.01 0 -0 -0.01 0.04 -0.01 0 0.01 -0 0.01 -0.04 -0.01 0 -0.01 0.01 0z"/>
   <polygon class="fil7" points="3.35,0.05 3.39,0.06 3.35,0.07 "/>
   <path class="fil7" d="M3.35 0.05l0.04 0.01 0 0.01 -0.04 0.01 -0.01 0 0 -0.01 0 -0.02 0 -0.01 0.01 0zm0.01 0.01l0 0.02 -0.01 0 -0 -0.01 0.04 -0.01 0 0.01 -0 0.01 -0.04 -0.01 0 -0.01 0.01 0z"/>
   <polygon class="fil7" points="4.43,0.05 4.47,0.06 4.43,0.07 "/>
   <path class="fil7" d="M4.43 0.05l0.04 0.01 0 0.01 -0.04 0.01 -0.01 0 0 -0.01 0 -0.02 0 -0.01 0.01 0zm0.01 0.01l0 0.02 -0.01 0 -0 -0.01 0.04 -0.01 0 0.01 -0 0.01 -0.04 -0.01 0 -0.01 0.01 0z"/>
   <polygon class="fil7" points="3.27,0.07 3.31,0.08 3.27,0.09 "/>
   <path class="fil7" d="M3.27 0.06l0.04 0.01 0 0.01 -0.04 0.01 -0.01 0 0 -0.01 0 -0.02 0 -0.01 0.01 0zm0.01 0.01l0 0.02 -0.01 0 -0 -0.01 0.04 -0.01 0 0.01 -0 0.01 -0.04 -0.01 0 -0.01 0.01 0z"/>
   <polygon class="fil7" points="4.51,0.07 4.54,0.08 4.51,0.09 "/>
   <path class="fil7" d="M4.51 0.06l0.04 0.01 0 0.01 -0.04 0.01 -0.01 0 0 -0.01 0 -0.02 0 -0.01 0.01 0zm0.01 0.01l0 0.02 -0.01 0 -0 -0.01 0.04 -0.01 0 0.01 -0 0.01 -0.04 -0.01 0 -0.01 0.01 0z"/>
   <polygon class="fil7" points="4.98,0.21 5.03,0.23 5.01,0.24 "/>
   <path class="fil7" d="M4.98 0.2l0.05 0.02 0.02 0.01 -0.02 0.01 -0.02 0.01 -0 0 -0 -0 -0.03 -0.03 0.01 -0.01zm0 0l0.03 0.03 -0.01 0.01 -0 -0.01 0.02 -0.01 0 0.01 -0 0.01 -0.05 -0.02 0 -0.01 0.01 -0.01z"/>
   <polygon class="fil7" points="2.74,0.24 2.76,0.25 2.71,0.27 2.71,0.25 "/>
   <path class="fil7" d="M2.74 0.23l0.02 0.01 0.02 0.01 -0.02 0.01 -0.05 0.02 -0.01 0 0 -0.01 0 -0.02 0 -0 0 -0 0.03 -0.02 0 -0 0 0zm0 0.01l-0.03 0.02 -0 -0.01 0.01 0 0 0.02 -0.01 0 -0 -0.01 0.05 -0.02 0 0.01 -0 0.01 -0.02 -0.01 0 -0.01 0 0.01z"/>
   <polygon class="fil7" points="5.05,0.24 5.14,0.28 5.11,0.28 5.05,0.25 "/>
   <path class="fil7" d="M5.06 0.23l0.08 0.04 0.02 0.01 -0.02 0.01 -0.02 0.01 -0 0 -0 -0 -0.06 -0.03 -0 -0 0 -0 0 -0.02 0 -0.01 0.01 0zm0 0.01l0 0.02 -0.01 0 0 -0.01 0.06 0.03 -0 0.01 -0 -0.01 0.02 -0.01 0 0.01 -0 0.01 -0.08 -0.04 0 -0.01 0.01 0z"/>
   <polygon class="fil7" points="2.57,0.31 2.6,0.32 2.56,0.34 "/>
   <path class="fil7" d="M2.58 0.31l0.02 0.01 0.02 0.01 -0.01 0.01 -0.04 0.02 -0.02 0.01 0.01 -0.02 0.02 -0.03 0 -0.01 0.01 0zm0 0.01l-0.02 0.03 -0.01 -0 -0 -0.01 0.04 -0.02 0 0.01 -0 0.01 -0.02 -0.01 0 -0.01 0.01 0z"/>
   <path class="fil7" d="M5.34 0.37l0.08 0.05 -0.02 -0.01c-0.04,-0.01 -0.06,-0.02 -0.06,-0.05z"/>
   <path class="fil7" d="M5.35 0.37l0.08 0.05 -0.01 0.01 -0.02 -0.01 0 -0.01 -0 0.01c-0.04,-0.01 -0.07,-0.02 -0.07,-0.05l0 -0.01 0.01 0.01zm0 0.01c0,0.02 0.02,0.03 0.05,0.04l0 0 0 0 0.02 0.01 -0 0.01 -0 0.01 -0.08 -0.05 0 -0.01 0.01 0z"/>
   <polygon class="fil7" points="2.44,0.39 2.42,0.42 2.39,0.44 2.41,0.41 "/>
   <path class="fil7" d="M2.44 0.39l-0.02 0.03 -0 0 -0 0 -0.03 0.02 -0.02 0.01 0.01 -0.02 0.02 -0.03 0 -0 0 -0 0.03 -0.02 0.02 -0.01 -0.01 0.02zm-0 0l-0.03 0.02 -0 -0.01 0.01 0 -0.02 0.03 -0.01 -0 -0 -0.01 0.03 -0.02 0 0.01 -0.01 -0 0.02 -0.03 0.01 0 0 0.01z"/>
   <polygon class="fil7" points="2.36,0.44 2.34,0.47 2.31,0.48 2.33,0.45 "/>
   <path class="fil7" d="M2.37 0.44l-0.02 0.03 -0 0 -0 0 -0.03 0.02 -0.02 0.01 0.01 -0.02 0.02 -0.03 0 -0 0 -0 0.03 -0.02 0.02 -0.01 -0.01 0.02zm-0 0l-0.03 0.02 -0 -0.01 0.01 0 -0.02 0.03 -0.01 -0 -0 -0.01 0.03 -0.02 0 0.01 -0.01 -0 0.02 -0.03 0.01 0 0 0.01z"/>
   <polygon class="fil7" points="5.45,0.44 5.46,0.47 "/>
   <path class="fil7" d="M5.46 0.43l0.02 0.03 -0.01 0.01 -0.02 -0.03 0.01 -0.01zm0 0l0.02 0.03 -0.01 0.01 -0.02 -0.03 0.01 -0.01z"/>
   <polygon class="fil7" points="5.5,0.47 5.66,0.58 5.62,0.56 5.51,0.5 "/>
   <path class="fil7" d="M5.5 0.46l0.16 0.11 -0.01 0.01 -0.04 -0.02 0 -0.01 -0 0.01 -0.11 -0.06 -0 -0 -0 -0 -0.02 -0.03 0.01 -0.01zm0 0l0.02 0.03 -0.01 0 0 -0.01 0.11 0.06 0 0 0 0 0.04 0.02 -0 0.01 -0 0.01 -0.16 -0.11 0 -0.01 0.01 -0z"/>
   <polygon class="fil7" points="2.28,0.48 2.27,0.51 "/>
   <path class="fil7" d="M2.29 0.48l-0.02 0.03 -0.01 -0.01 0.02 -0.03 0.01 0.01zm0 0l-0.02 0.03 -0.01 -0.01 0.02 -0.03 0.01 0.01z"/>
   <polygon class="fil7" points="2.24,0.51 2.22,0.54 "/>
   <path class="fil7" d="M2.24 0.52l-0.02 0.03 -0.01 -0.01 0.02 -0.03 0.01 0.01zm0 0l-0.02 0.03 -0.01 -0.01 0.02 -0.03 0.01 0.01z"/>
   <polygon class="fil7" points="2.19,0.54 2.17,0.58 2.15,0.68 2.14,0.61 "/>
   <path class="fil7" d="M2.2 0.55l-0.02 0.04 -0.01 -0 0.01 0 -0.02 0.1 -0.01 -0 -0.01 -0.07 -0 -0 0 -0 0.05 -0.07 0.01 0.01zm-0 0l-0.05 0.07 -0.01 -0 0.01 -0 0.01 0.07 -0.01 0 -0.01 -0 0.02 -0.1 0 -0 0 -0 0.02 -0.04 0.01 0 0.01 0z"/>
   <polygon class="fil7" points="5.68,0.59 5.71,0.63 "/>
   <path class="fil7" d="M5.68 0.58l0.03 0.05 -0.01 0.01 -0.03 -0.05 0.01 -0.01zm0 0l0.03 0.05 -0.01 0.01 -0.03 -0.05 0.01 -0.01z"/>
   <polygon class="fil7" points="5.74,0.63 5.78,0.69 "/>
   <path class="fil7" d="M5.75 0.63l0.05 0.06 -0.01 0.01 -0.05 -0.06 0.01 -0.01zm0 0l0.05 0.06 -0.01 0.01 -0.05 -0.06 0.01 -0.01z"/>
   <polygon class="fil7" points="5.82,0.69 5.89,0.79 "/>
   <path class="fil7" d="M5.82 0.69l0.08 0.09 -0.01 0.01 -0.08 -0.09 0.01 -0.01zm0 0l0.08 0.09 -0.01 0.01 -0.08 -0.09 0.01 -0.01z"/>
   <polygon class="fil7" points="5.92,0.79 6.1,0.98 "/>
   <path class="fil7" d="M5.93 0.78l0.18 0.2 -0.01 0.01 -0.18 -0.2 0.01 -0.01zm0 0l0.18 0.2 -0.01 0.01 -0.18 -0.2 0.01 -0.01z"/>
   <polygon class="fil7" points="1.93,0.82 1.99,0.84 1.96,0.85 "/>
   <path class="fil7" d="M1.94 0.81l0.05 0.02 0.02 0.01 -0.02 0.01 -0.02 0.01 -0 0 -0 -0 -0.03 -0.03 0.01 -0.01zm0 0l0.03 0.03 -0.01 0.01 -0 -0.01 0.02 -0.01 0 0.01 -0 0.01 -0.05 -0.02 0 -0.01 0.01 -0.01z"/>
   <polygon class="fil7" points="1.84,0.83 1.69,1 "/>
   <path class="fil7" d="M1.85 0.84l-0.15 0.17 -0.01 -0.01 0.15 -0.17 0.01 0.01zm0 0l-0.15 0.17 -0.01 -0.01 0.15 -0.17 0.01 0.01z"/>
   <polygon class="fil7" points="6.12,1 6.21,1.11 "/>
   <path class="fil7" d="M6.13 0.99l0.09 0.11 -0.01 0.01 -0.09 -0.11 0.01 -0.01zm0 0l0.09 0.11 -0.01 0.01 -0.09 -0.11 0.01 -0.01z"/>
   <polygon class="fil7" points="1.67,1.01 1.6,1.11 "/>
   <path class="fil7" d="M1.68 1.02l-0.08 0.09 -0.01 -0.01 0.08 -0.09 0.01 0.01zm0 0l-0.08 0.09 -0.01 -0.01 0.08 -0.09 0.01 0.01z"/>
   <polygon class="fil7" points="1.58,1.12 1.53,1.19 1.49,1.24 1.51,1.2 "/>
   <path class="fil7" d="M1.59 1.13l-0.05 0.07 -0.01 -0 0.01 0 -0.04 0.05 -0.01 -0.01 0.02 -0.04 0 -0 0 -0 0.07 -0.08 0.01 0.01zm-0 0l-0.07 0.08 -0.01 -0 0.01 0 -0.02 0.04 -0.01 -0 -0.01 -0 0.04 -0.05 0 -0 0 -0 0.05 -0.07 0.01 0 0.01 0z"/>
   <polygon class="fil7" points="6.23,1.12 6.36,1.28 6.31,1.25 "/>
   <path class="fil7" d="M6.23 1.12l0.13 0.16 -0.01 0.01 -0.05 -0.03 -0 -0 -0 -0 -0.08 -0.13 0.01 -0.01zm0 0l0.08 0.13 -0.01 0 0 -0.01 0.05 0.03 -0 0.01 -0.01 0 -0.13 -0.16 0.01 -0 0.01 -0z"/>
   <polygon class="fil7" points="1.48,1.26 1.45,1.3 "/>
   <path class="fil7" d="M1.48 1.26l-0.03 0.05 -0.01 -0.01 0.03 -0.05 0.01 0.01zm0 0l-0.03 0.05 -0.01 -0.01 0.03 -0.05 0.01 0.01z"/>
   <polygon class="fil7" points="6.36,1.3 6.38,1.33 "/>
   <path class="fil7" d="M6.37 1.3l0.02 0.03 -0.01 0.01 -0.02 -0.03 0.01 -0.01zm0 0l0.02 0.03 -0.01 0.01 -0.02 -0.03 0.01 -0.01z"/>
   <polygon class="fil7" points="1.43,1.32 1.42,1.35 "/>
   <path class="fil7" d="M1.44 1.32l-0.02 0.03 -0.01 -0.01 0.02 -0.03 0.01 0.01zm0 0l-0.02 0.03 -0.01 -0.01 0.02 -0.03 0.01 0.01z"/>
   <polygon class="fil7" points="6.39,1.35 6.41,1.38 "/>
   <path class="fil7" d="M6.4 1.35l0.02 0.03 -0.01 0.01 -0.02 -0.03 0.01 -0.01zm0 0l0.02 0.03 -0.01 0.01 -0.02 -0.03 0.01 -0.01z"/>
   <polygon class="fil7" points="1.4,1.36 1.39,1.39 1.34,1.47 1.35,1.45 "/>
   <path class="fil7" d="M1.41 1.37l-0.01 0.02 -0 0 -0 0 -0.05 0.08 -0.01 -0.01 0.01 -0.02 0 -0 0 -0 0.05 -0.08 0.01 0.01zm-0 0l-0.05 0.08 -0.01 -0 0.01 0 -0.01 0.02 -0.01 -0 -0.01 -0 0.05 -0.08 0.01 0 -0.01 -0 0.01 -0.02 0.01 0 0.01 0z"/>
   <polygon class="fil7" points="6.42,1.39 6.44,1.43 "/>
   <path class="fil7" d="M6.43 1.39l0.02 0.03 -0.01 0.01 -0.02 -0.03 0.01 -0.01zm0 0l0.02 0.03 -0.01 0.01 -0.02 -0.03 0.01 -0.01z"/>
   <polygon class="fil7" points="6.45,1.44 6.49,1.49 6.46,1.48 "/>
   <path class="fil7" d="M6.46 1.44l0.04 0.05 -0.01 0.01 -0.03 -0.02 -0 -0 -0 -0 -0.01 -0.04 0.01 -0.01zm0 0l0.01 0.04 -0.01 0 0 -0.01 0.03 0.02 -0 0.01 -0.01 0 -0.04 -0.05 0.01 -0 0.01 -0z"/>
   <polygon class="fil7" points="1.31,1.52 1.3,1.54 1.28,1.58 1.29,1.55 "/>
   <path class="fil7" d="M1.32 1.52l-0.01 0.02 -0 0 -0 0 -0.02 0.04 -0.01 -0.01 0.01 -0.02 0 -0 0 -0 0.02 -0.04 0.01 0.01zm-0 0l-0.02 0.04 -0.01 -0 0.01 0 -0.01 0.02 -0.01 -0 -0.01 -0 0.02 -0.04 0.01 0 -0.01 -0 0.01 -0.02 0.01 0 0.01 0z"/>
   <polygon class="fil7" points="6.52,1.55 6.58,1.66 6.55,1.65 "/>
   <path class="fil7" d="M6.52 1.54l0.07 0.11 0.01 0.02 -0.02 -0.01 -0.03 -0.02 -0 -0 -0 -0 -0.04 -0.1 0.01 -0.01zm0 0l0.04 0.1 -0.01 0 0 -0.01 0.03 0.02 -0 0.01 -0.01 0 -0.07 -0.11 0.01 -0 0.01 -0z"/>
   <polygon class="fil7" points="6.61,1.71 6.64,1.8 6.63,1.8 "/>
   <path class="fil7" d="M6.61 1.71l0.04 0.08 0 0.01 -0.01 0 -0.02 0 -0.01 0 -0 -0.01 -0.02 -0.08 0.01 -0.01zm0 0l0.02 0.08 -0.01 0 0 -0.01 0.02 0 0 0.01 -0.01 0 -0.04 -0.08 0.01 -0 0.01 -0z"/>
   <polygon class="fil7" points="1.17,1.78 1.18,1.8 1.16,1.84 1.15,1.81 "/>
   <path class="fil7" d="M1.18 1.77l0.01 0.02 0 0 -0 0 -0.02 0.04 -0.01 0.01 -0.01 -0.02 -0.01 -0.02 -0 -0 0 -0 0.02 -0.04 0.01 -0.01 0.01 0.02zm-0 0.01l-0.02 0.04 -0.01 -0 0.01 -0 0.01 0.02 -0.01 0 -0.01 -0 0.02 -0.04 0.01 0 -0.01 0 -0.01 -0.02 0.01 -0 0.01 0z"/>
   <polygon class="fil7" points="1,2.25 1.01,2.29 1,2.29 "/>
   <path class="fil7" d="M1.01 2.25l0.01 0.04 0 0.01 -0.01 0 -0.02 0 -0.01 0 0 -0.01 0.01 -0.04 0.01 0zm0 0l-0.01 0.04 -0.01 -0 0 -0.01 0.02 0 0 0.01 -0.01 0 -0.01 -0.04 0.01 -0 0.01 0z"/>
   <polygon class="fil7" points="6.82,2.32 6.83,2.36 6.81,2.36 "/>
   <path class="fil7" d="M6.83 2.32l0.01 0.04 0 0.01 -0.01 0 -0.02 0 -0.01 0 0 -0.01 0.01 -0.04 0.01 0zm0 0l-0.01 0.04 -0.01 -0 0 -0.01 0.02 0 0 0.01 -0.01 0 -0.01 -0.04 0.01 -0 0.01 0z"/>
   <polygon class="fil7" points="0.97,2.38 0.98,2.42 0.97,2.42 "/>
   <path class="fil7" d="M0.98 2.38l0.01 0.04 0 0.01 -0.01 0 -0.02 0 -0.01 0 0 -0.01 0.01 -0.04 0.01 0zm0 0l-0.01 0.04 -0.01 -0 0 -0.01 0.02 0 0 0.01 -0.01 0 -0.01 -0.04 0.01 -0 0.01 0z"/>
   <polygon class="fil7" points="6.84,2.38 6.84,2.42 6.83,2.42 "/>
   <path class="fil7" d="M6.84 2.38l0.01 0.04 0 0.01 -0.01 0 -0.02 0 -0.01 0 0 -0.01 0.01 -0.04 0.01 0zm0 0l-0.01 0.04 -0.01 -0 0 -0.01 0.02 0 0 0.01 -0.01 0 -0.01 -0.04 0.01 -0 0.01 0z"/>
   <polygon class="fil7" points="0.96,2.46 0.97,2.51 0.95,2.51 "/>
   <path class="fil7" d="M0.97 2.46l0.01 0.05 0 0.01 -0.01 0 -0.02 0 -0.01 0 0 -0.01 0.01 -0.05 0.02 0zm0 0l-0.01 0.05 -0.01 -0 0 -0.01 0.02 0 0 0.01 -0.01 0 -0.01 -0.05 0.01 -0 0.01 0z"/>
   <polygon class="fil7" points="6.85,2.48 6.86,2.51 6.84,2.51 "/>
   <path class="fil7" d="M6.86 2.47l0.01 0.04 0 0.01 -0.01 0 -0.02 0 -0.01 0 0 -0.01 0.01 -0.04 0.01 0zm0 0l-0.01 0.04 -0.01 -0 0 -0.01 0.02 0 0 0.01 -0.01 0 -0.01 -0.04 0.01 -0 0.01 0z"/>
   <polygon class="fil7" points="0.94,2.55 0.95,2.62 0.94,2.62 "/>
   <path class="fil7" d="M0.95 2.55l0.01 0.07 0 0.01 -0.01 0 -0.02 0 -0.01 0 0 -0.01 0.01 -0.07 0.02 0zm0 0l-0.01 0.07 -0.01 -0 0 -0.01 0.02 0 0 0.01 -0.01 0 -0.01 -0.07 0.01 -0 0.01 0z"/>
   <polygon class="fil7" points="6.87,2.57 6.87,2.62 6.86,2.62 "/>
   <path class="fil7" d="M6.87 2.57l0.01 0.05 0 0.01 -0.01 0 -0.02 0 -0.01 0 0 -0.01 0.01 -0.05 0.02 0zm0 0l-0.01 0.05 -0.01 -0 0 -0.01 0.02 0 0 0.01 -0.01 0 -0.01 -0.05 0.01 -0 0.01 0z"/>
   <polygon class="fil7" points="0.93,2.67 0.94,2.77 0.92,2.77 "/>
   <path class="fil7" d="M0.94 2.67l0.01 0.1 0 0.01 -0.01 0 -0.02 0 -0.01 0 0 -0.01 0.01 -0.1 0.02 0zm0 0l-0.01 0.1 -0.01 -0 0 -0.01 0.02 0 0 0.01 -0.01 0 -0.01 -0.1 0.01 -0 0.01 0z"/>
   <polygon class="fil7" points="6.88,2.69 6.89,2.77 6.87,2.77 "/>
   <path class="fil7" d="M6.89 2.69l0.01 0.08 0 0.01 -0.01 0 -0.02 0 -0.01 0 0 -0.01 0.01 -0.08 0.02 0zm0 0l-0.01 0.08 -0.01 -0 0 -0.01 0.02 0 0 0.01 -0.01 0 -0.01 -0.08 0.01 -0 0.01 0z"/>
   <polygon class="fil7" points="0.91,2.92 0.92,3.11 0.91,3.11 "/>
   <path class="fil7" d="M0.92 2.92l0.01 0.19 0 0.01 -0.01 0 -0.02 0 -0.01 0 0 -0.01 0.01 -0.19 0.02 0zm0 0l-0.01 0.19 -0.01 -0 0 -0.01 0.02 0 0 0.01 -0.01 0 -0.01 -0.19 0.01 -0 0.01 0z"/>
   <polygon class="fil7" points="6.9,2.92 6.9,3.09 6.89,3.09 "/>
   <path class="fil7" d="M6.9 2.92l0.01 0.18 0 0.01 -0.01 0 -0.02 0 -0.01 0 0 -0.01 0.01 -0.18 0.02 0zm0 0l-0.01 0.18 -0.01 -0 0 -0.01 0.02 0 0 0.01 -0.01 0 -0.01 -0.18 0.01 -0 0.01 0z"/>
   <polygon class="fil7" points="6.88,3.13 6.84,3.19 "/>
   <path class="fil7" d="M6.89 3.13l-0.05 0.06 -0.01 -0.01 0.05 -0.06 0.01 0.01zm0 0l-0.05 0.06 -0.01 -0.01 0.05 -0.06 0.01 0.01z"/>
   <polygon class="fil7" points="0.93,3.24 0.94,3.32 0.92,3.32 "/>
   <path class="fil7" d="M0.94 3.24l0.01 0.08 0 0.01 -0.01 0 -0.02 0 -0.01 0 0 -0.01 0.01 -0.08 0.02 0zm0 0l-0.01 0.08 -0.01 -0 0 -0.01 0.02 0 0 0.01 -0.01 0 -0.01 -0.08 0.01 -0 0.01 0z"/>
   <polygon class="fil7" points="0.94,3.39 0.95,3.44 0.94,3.44 "/>
   <path class="fil7" d="M0.95 3.39l0.01 0.05 0 0.01 -0.01 0 -0.02 0 -0.01 0 0 -0.01 0.01 -0.05 0.02 0zm0 0l-0.01 0.05 -0.01 -0 0 -0.01 0.02 0 0 0.01 -0.01 0 -0.01 -0.05 0.01 -0 0.01 0z"/>
   <polygon class="fil7" points="6.79,3.42 6.84,3.49 6.83,3.49 "/>
   <path class="fil7" d="M6.8 3.41l0.05 0.07 0.01 0.01 -0.02 0 -0.02 0 -0 0 -0 -0 -0.04 -0.07 0.01 -0.01zm0 0l0.04 0.07 -0.01 0 0 -0.01 0.02 0 0 0.01 -0.01 0 -0.05 -0.07 0.01 -0 0.01 -0z"/>
   <polygon class="fil7" points="0.96,3.5 0.97,3.53 0.95,3.53 "/>
   <path class="fil7" d="M0.97 3.49l0.01 0.04 0 0.01 -0.01 0 -0.02 0 -0.01 0 0 -0.01 0.01 -0.04 0.01 0zm0 0l-0.01 0.04 -0.01 -0 0 -0.01 0.02 0 0 0.01 -0.01 0 -0.01 -0.04 0.01 -0 0.01 0z"/>
   <polygon class="fil7" points="0.97,3.57 0.98,3.61 0.97,3.61 "/>
   <path class="fil7" d="M0.98 3.57l0.01 0.04 0 0.01 -0.01 0 -0.02 0 -0.01 0 0 -0.01 0.01 -0.04 0.01 0zm0 0l-0.01 0.04 -0.01 -0 0 -0.01 0.02 0 0 0.01 -0.01 0 -0.01 -0.04 0.01 -0 0.01 0z"/>
   <polygon class="fil7" points="6.84,3.57 6.84,3.61 6.83,3.61 "/>
   <path class="fil7" d="M6.84 3.57l0.01 0.04 0 0.01 -0.01 0 -0.02 0 -0.01 0 0 -0.01 0.01 -0.04 0.01 0zm0 0l-0.01 0.04 -0.01 -0 0 -0.01 0.02 0 0 0.01 -0.01 0 -0.01 -0.04 0.01 -0 0.01 0z"/>
   <polygon class="fil7" points="1,3.71 1.01,3.75 1,3.75 "/>
   <path class="fil7" d="M1.01 3.71l0.01 0.04 0 0.01 -0.01 0 -0.02 0 -0.01 0 0 -0.01 0.01 -0.04 0.01 0zm0 0l-0.01 0.04 -0.01 -0 0 -0.01 0.02 0 0 0.01 -0.01 0 -0.01 -0.04 0.01 -0 0.01 0z"/>
   <polygon class="fil7" points="6.71,4.01 6.72,4.04 6.7,4.07 6.69,4.05 "/>
   <path class="fil7" d="M6.72 4.01l0.01 0.02 0 0 -0 0 -0.02 0.04 -0.01 0.01 -0.01 -0.02 -0.01 -0.02 -0 -0 0 -0 0.02 -0.04 0.01 -0.01 0.01 0.02zm-0 0.01l-0.02 0.04 -0.01 -0 0.01 -0 0.01 0.02 -0.01 0 -0.01 -0 0.02 -0.04 0.01 0 -0.01 0 -0.01 -0.02 0.01 -0 0.01 0z"/>
   <polygon class="fil7" points="1.11,4.06 1.13,4.11 1.12,4.11 "/>
   <path class="fil7" d="M1.12 4.06l0.02 0.05 0 0.01 -0.01 0 -0.02 0 -0.01 0 -0 -0.01 -0.01 -0.05 0.01 -0zm0 0l0.01 0.05 -0.01 0 0 -0.01 0.02 0 0 0.01 -0.01 0 -0.02 -0.05 0.01 -0 0.01 -0z"/>
   <polygon class="fil7" points="1.22,4.3 1.24,4.34 1.21,4.32 "/>
   <path class="fil7" d="M1.22 4.3l0.02 0.04 0.01 0.02 -0.02 -0.01 -0.03 -0.02 -0.01 -0 0 -0.01 0.01 -0.02 0.01 -0.02 0.01 0.01zm0 0.01l-0.01 0.02 -0.01 -0 0 -0.01 0.03 0.02 -0 0.01 -0.01 0 -0.02 -0.04 0.01 -0 0.01 0z"/>
   <polygon class="fil7" points="6.55,4.39 6.54,4.42 6.5,4.48 6.51,4.46 "/>
   <path class="fil7" d="M6.55 4.4l-0.01 0.02 -0 0 -0 0 -0.04 0.07 -0.01 -0.01 0.01 -0.02 0 -0 0 -0 0.04 -0.07 0.01 0.01zm-0 0l-0.04 0.07 -0.01 -0 0.01 0 -0.01 0.02 -0.01 -0 -0.01 -0 0.04 -0.07 0.01 0 -0.01 -0 0.01 -0.02 0.01 0 0.01 0z"/>
   <polygon class="fil7" points="1.29,4.45 1.33,4.51 1.3,4.49 "/>
   <path class="fil7" d="M1.3 4.45l0.04 0.05 -0.01 0.01 -0.03 -0.02 -0 -0 -0 -0 -0.01 -0.04 0.01 -0.01zm0 0l0.01 0.04 -0.01 0 0 -0.01 0.03 0.02 -0 0.01 -0.01 0 -0.04 -0.05 0.01 -0 0.01 -0z"/>
   <polygon class="fil7" points="6.47,4.53 6.45,4.56 "/>
   <path class="fil7" d="M6.48 4.53l-0.02 0.03 -0.01 -0.01 0.02 -0.03 0.01 0.01zm0 0l-0.02 0.03 -0.01 -0.01 0.02 -0.03 0.01 0.01z"/>
   <polygon class="fil7" points="1.35,4.56 1.37,4.59 "/>
   <path class="fil7" d="M1.36 4.56l0.02 0.03 -0.01 0.01 -0.02 -0.03 0.01 -0.01zm0 0l0.02 0.03 -0.01 0.01 -0.02 -0.03 0.01 -0.01z"/>
   <polygon class="fil7" points="6.44,4.58 6.43,4.6 6.41,4.64 6.42,4.61 "/>
   <path class="fil7" d="M6.45 4.58l-0.01 0.02 -0 0 -0 0 -0.02 0.04 -0.01 -0.01 0.01 -0.02 0 -0 0 -0 0.02 -0.04 0.01 0.01zm-0 0l-0.02 0.04 -0.01 -0 0.01 0 -0.01 0.02 -0.01 -0 -0.01 -0 0.02 -0.04 0.01 0 -0.01 -0 0.01 -0.02 0.01 0 0.01 0z"/>
   <polygon class="fil7" points="1.39,4.61 1.4,4.64 "/>
   <path class="fil7" d="M1.39 4.6l0.02 0.03 -0.01 0.01 -0.02 -0.03 0.01 -0.01zm0 0l0.02 0.03 -0.01 0.01 -0.02 -0.03 0.01 -0.01z"/>
   <polygon class="fil7" points="1.42,4.65 1.43,4.68 "/>
   <path class="fil7" d="M1.42 4.65l0.02 0.03 -0.01 0.01 -0.02 -0.03 0.01 -0.01zm0 0l0.02 0.03 -0.01 0.01 -0.02 -0.03 0.01 -0.01z"/>
   <polygon class="fil7" points="6.39,4.65 6.37,4.69 6.33,4.74 6.36,4.71 "/>
   <path class="fil7" d="M6.4 4.66l-0.02 0.04 -0 0 -0 0 -0.04 0.05 -0.01 -0.01 0.02 -0.04 0 -0 0 -0 0.04 -0.05 0.01 0.01zm-0 0l-0.04 0.05 -0.01 -0 0.01 0 -0.02 0.04 -0.01 -0 -0.01 -0 0.04 -0.05 0.01 0 -0.01 -0 0.02 -0.04 0.01 0 0.01 0z"/>
   <polygon class="fil7" points="1.45,4.7 1.46,4.73 "/>
   <path class="fil7" d="M1.45 4.69l0.02 0.03 -0.01 0.01 -0.02 -0.03 0.01 -0.01zm0 0l0.02 0.03 -0.01 0.01 -0.02 -0.03 0.01 -0.01z"/>
   <polygon class="fil7" points="1.48,4.74 1.51,4.79 "/>
   <path class="fil7" d="M1.48 4.74l0.03 0.05 -0.01 0.01 -0.03 -0.05 0.01 -0.01zm0 0l0.03 0.05 -0.01 0.01 -0.03 -0.05 0.01 -0.01z"/>
   <polygon class="fil7" points="6.32,4.76 6.29,4.8 "/>
   <path class="fil7" d="M6.32 4.76l-0.03 0.05 -0.01 -0.01 0.03 -0.05 0.01 0.01zm0 0l-0.03 0.05 -0.01 -0.01 0.03 -0.05 0.01 0.01z"/>
   <polygon class="fil7" points="1.52,4.8 1.55,4.85 "/>
   <path class="fil7" d="M1.53 4.8l0.03 0.05 -0.01 0.01 -0.03 -0.05 0.01 -0.01zm0 0l0.03 0.05 -0.01 0.01 -0.03 -0.05 0.01 -0.01z"/>
   <polygon class="fil7" points="6.27,4.82 6.24,4.87 "/>
   <path class="fil7" d="M6.28 4.82l-0.03 0.05 -0.01 -0.01 0.03 -0.05 0.01 0.01zm0 0l-0.03 0.05 -0.01 -0.01 0.03 -0.05 0.01 0.01z"/>
   <polygon class="fil7" points="1.57,4.87 1.63,4.94 "/>
   <path class="fil7" d="M1.57 4.86l0.06 0.08 -0.01 0.01 -0.06 -0.08 0.01 -0.01zm0 0l0.06 0.08 -0.01 0.01 -0.06 -0.08 0.01 -0.01z"/>
   <polygon class="fil7" points="6.23,4.88 6.17,4.96 "/>
   <path class="fil7" d="M6.23 4.89l-0.06 0.08 -0.01 -0.01 0.06 -0.08 0.01 0.01zm0 0l-0.06 0.08 -0.01 -0.01 0.06 -0.08 0.01 0.01z"/>
   <polygon class="fil7" points="1.64,4.96 1.93,5.26 "/>
   <path class="fil7" d="M1.65 4.95l0.29 0.3 -0.01 0.01 -0.29 -0.3 0.01 -0.01zm0 0l0.29 0.3 -0.01 0.01 -0.29 -0.3 0.01 -0.01z"/>
   <polygon class="fil7" points="6.15,4.97 5.88,5.26 "/>
   <path class="fil7" d="M6.16 4.98l-0.27 0.29 -0.01 -0.01 0.27 -0.29 0.01 0.01zm0 0l-0.27 0.29 -0.01 -0.01 0.27 -0.29 0.01 0.01z"/>
   <polygon class="fil7" points="1.96,5.26 2.02,5.34 "/>
   <path class="fil7" d="M1.97 5.26l0.06 0.08 -0.01 0.01 -0.06 -0.08 0.01 -0.01zm0 0l0.06 0.08 -0.01 0.01 -0.06 -0.08 0.01 -0.01z"/>
   <polygon class="fil7" points="5.85,5.26 5.78,5.34 "/>
   <path class="fil7" d="M5.85 5.27l-0.06 0.08 -0.01 -0.01 0.06 -0.08 0.01 0.01zm0 0l-0.06 0.08 -0.01 -0.01 0.06 -0.08 0.01 0.01z"/>
   <polygon class="fil7" points="2.06,5.34 2.15,5.42 2.12,5.4 "/>
   <path class="fil7" d="M2.06 5.33l0.1 0.08 -0.01 0.01 -0.04 -0.02 -0 -0 -0 -0 -0.06 -0.06 0.01 -0.01zm0 0l0.06 0.06 -0.01 0.01 0 -0.01 0.04 0.02 -0 0.01 -0 0.01 -0.1 -0.08 0 -0.01 0.01 -0.01z"/>
   <polygon class="fil7" points="5.75,5.34 5.71,5.4 "/>
   <path class="fil7" d="M5.76 5.34l-0.05 0.06 -0.01 -0.01 0.05 -0.06 0.01 0.01zm0 0l-0.05 0.06 -0.01 -0.01 0.05 -0.06 0.01 0.01z"/>
   <polygon class="fil7" points="5.68,5.4 5.66,5.43 "/>
   <path class="fil7" d="M5.68 5.4l-0.02 0.03 -0.01 -0.01 0.02 -0.03 0.01 0.01zm0 0l-0.02 0.03 -0.01 -0.01 0.02 -0.03 0.01 0.01z"/>
   <polygon class="fil7" points="2.18,5.43 2.26,5.5 2.22,5.47 "/>
   <path class="fil7" d="M2.18 5.42l0.08 0.07 -0.01 0.01 -0.04 -0.02 -0 -0 -0 -0 -0.05 -0.05 0.01 -0.01zm0 0l0.05 0.05 -0.01 0.01 0 -0.01 0.04 0.02 -0 0.01 -0 0.01 -0.08 -0.07 0 -0.01 0.01 -0.01z"/>
   <polygon class="fil7" points="5.63,5.43 5.6,5.47 5.56,5.5 5.59,5.46 "/>
   <path class="fil7" d="M5.64 5.43l-0.03 0.05 -0 0 -0 0 -0.05 0.03 -0.01 -0.01 0.03 -0.05 0 -0 0 -0 0.05 -0.03 0.01 0.01zm-0 0l-0.05 0.03 -0 -0.01 0.01 0 -0.03 0.05 -0.01 -0 -0 -0.01 0.05 -0.03 0 0.01 -0.01 -0 0.03 -0.05 0.01 0 0 0.01z"/>
   <polygon class="fil7" points="2.36,5.72 2.37,5.75 "/>
   <path class="fil7" d="M2.37 5.71l0.02 0.03 -0.01 0.01 -0.02 -0.03 0.01 -0.01zm0 0l0.02 0.03 -0.01 0.01 -0.02 -0.03 0.01 -0.01z"/>
   <polygon class="fil7" points="5.45,5.72 5.43,5.75 "/>
   <path class="fil7" d="M5.46 5.72l-0.02 0.03 -0.01 -0.01 0.02 -0.03 0.01 0.01zm0 0l-0.02 0.03 -0.01 -0.01 0.02 -0.03 0.01 0.01z"/>
   <polygon class="fil7" points="2.39,5.76 2.41,5.79 "/>
   <path class="fil7" d="M2.4 5.76l0.02 0.03 -0.01 0.01 -0.02 -0.03 0.01 -0.01zm0 0l0.02 0.03 -0.01 0.01 -0.02 -0.03 0.01 -0.01z"/>
   <polygon class="fil7" points="5.42,5.76 5.4,5.79 "/>
   <path class="fil7" d="M5.43 5.77l-0.02 0.03 -0.01 -0.01 0.02 -0.03 0.01 0.01zm0 0l-0.02 0.03 -0.01 -0.01 0.02 -0.03 0.01 0.01z"/>
   <polygon class="fil7" points="2.42,5.81 2.44,5.84 "/>
   <path class="fil7" d="M2.43 5.81l0.02 0.03 -0.01 0.01 -0.02 -0.03 0.01 -0.01zm0 0l0.02 0.03 -0.01 0.01 -0.02 -0.03 0.01 -0.01z"/>
   <polygon class="fil7" points="5.39,5.81 5.37,5.84 "/>
   <path class="fil7" d="M5.4 5.81l-0.02 0.03 -0.01 -0.01 0.02 -0.03 0.01 0.01zm0 0l-0.02 0.03 -0.01 -0.01 0.02 -0.03 0.01 0.01z"/>
   <polygon class="fil7" points="2.45,5.85 2.51,5.93 "/>
   <path class="fil7" d="M2.46 5.85l0.06 0.08 -0.01 0.01 -0.06 -0.08 0.01 -0.01zm0 0l0.06 0.08 -0.01 0.01 -0.06 -0.08 0.01 -0.01z"/>
   <polygon class="fil7" points="5.36,5.85 5.3,5.93 "/>
   <path class="fil7" d="M5.36 5.86l-0.06 0.08 -0.01 -0.01 0.06 -0.08 0.01 0.01zm0 0l-0.06 0.08 -0.01 -0.01 0.06 -0.08 0.01 0.01z"/>
   <polygon class="fil7" points="2.53,5.95 2.59,6.02 "/>
   <path class="fil7" d="M2.53 5.94l0.06 0.08 -0.01 0.01 -0.06 -0.08 0.01 -0.01zm0 0l0.06 0.08 -0.01 0.01 -0.06 -0.08 0.01 -0.01z"/>
   <polygon class="fil7" points="5.28,5.95 5.23,6.01 5.22,6.6 5.21,6.01 "/>
   <path class="fil7" d="M5.29 5.95l-0.05 0.07 -0.01 -0 0.01 0 -0.01 0.59 -0.02 0 -0.01 -0.59 0 -0 0 -0 0.07 -0.07 0.01 0.01zm-0 0l-0.07 0.07 -0.01 -0.01 0.01 -0 0.01 0.59 -0.01 0 -0.01 -0 0.01 -0.59 0 -0 0 -0 0.05 -0.07 0.01 0 0.01 0.01z"/>
   <polygon class="fil7" points="2.59,6.04 2.6,6.59 2.58,6.59 "/>
   <path class="fil7" d="M2.6 6.04l0.01 0.56 0 0.01 -0.01 0 -0.02 0 -0.01 0 0 -0.01 0.01 -0.56 0.02 0zm0 0l-0.01 0.56 -0.01 -0 0 -0.01 0.02 0 0 0.01 -0.01 0 -0.01 -0.56 0.01 -0 0.01 0z"/>
   <polygon class="fil7" points="2.63,6.74 2.67,6.81 2.64,6.79 "/>
   <path class="fil7" d="M2.64 6.73l0.04 0.07 0.01 0.02 -0.02 -0.01 -0.03 -0.02 -0 -0 -0 -0 -0.01 -0.05 0.01 -0zm0 0l0.01 0.05 -0.01 0 0 -0.01 0.03 0.02 -0 0.01 -0.01 0 -0.04 -0.07 0.01 -0 0.01 -0z"/>
   <polygon class="fil7" points="5.18,6.74 5.18,6.76 5.15,6.81 5.15,6.79 "/>
   <path class="fil7" d="M5.18 6.74l0.01 0.02 0 0 -0 0 -0.04 0.05 -0.01 -0.01 0.01 -0.02 0 -0 0 -0 0.02 -0.05 0.01 -0.02 0.01 0.02zm-0 0.01l-0.02 0.05 -0.01 -0 0.01 0 -0.01 0.02 -0.01 -0 -0.01 -0 0.04 -0.05 0.01 0 -0.01 0 -0.01 -0.02 0.01 -0 0.01 0z"/>
   <polygon class="fil7" points="2.68,6.83 2.69,6.86 "/>
   <path class="fil7" d="M2.69 6.83l0.02 0.03 -0.01 0.01 -0.02 -0.03 0.01 -0.01zm0 0l0.02 0.03 -0.01 0.01 -0.02 -0.03 0.01 -0.01z"/>
   <polygon class="fil7" points="5.13,6.83 5.11,6.86 "/>
   <path class="fil7" d="M5.14 6.83l-0.02 0.03 -0.01 -0.01 0.02 -0.03 0.01 0.01zm0 0l-0.02 0.03 -0.01 -0.01 0.02 -0.03 0.01 0.01z"/>
   <polygon class="fil7" points="2.71,6.87 2.79,6.97 "/>
   <path class="fil7" d="M2.72 6.87l0.08 0.09 -0.01 0.01 -0.08 -0.09 0.01 -0.01zm0 0l0.08 0.09 -0.01 0.01 -0.08 -0.09 0.01 -0.01z"/>
   <polygon class="fil7" points="5.1,6.87 5.01,6.98 4.96,7.01 4.99,6.97 "/>
   <path class="fil7" d="M5.11 6.88l-0.09 0.11 -0 0 -0 0 -0.05 0.03 -0.01 -0.01 0.03 -0.05 0 -0 0 -0 0.11 -0.09 0.01 0.01zm-0 0l-0.11 0.09 -0 -0.01 0.01 0 -0.03 0.05 -0.01 -0 -0 -0.01 0.05 -0.03 0 0.01 -0.01 -0 0.09 -0.11 0.01 0 0 0.01z"/>
   <polygon class="fil7" points="2.82,6.97 2.85,7.01 "/>
   <path class="fil7" d="M2.82 6.96l0.03 0.05 -0.01 0.01 -0.03 -0.05 0.01 -0.01zm0 0l0.03 0.05 -0.01 0.01 -0.03 -0.05 0.01 -0.01z"/>
   <polygon class="fil7" points="2.89,7.22 2.9,7.28 2.88,7.28 "/>
   <path class="fil7" d="M2.9 7.22l0.01 0.05 0 0.01 -0.01 0 -0.02 0 -0.01 0 0 -0.01 0.01 -0.05 0.02 0zm0 0l-0.01 0.05 -0.01 -0 0 -0.01 0.02 0 0 0.01 -0.01 0 -0.01 -0.05 0.01 -0 0.01 0z"/>
   <polygon class="fil7" points="4.92,7.22 4.92,7.28 4.91,7.28 "/>
   <path class="fil7" d="M4.92 7.22l0.01 0.05 0 0.01 -0.01 0 -0.02 0 -0.01 0 0 -0.01 0.01 -0.05 0.02 0zm0 0l-0.01 0.05 -0.01 -0 0 -0.01 0.02 0 0 0.01 -0.01 0 -0.01 -0.05 0.01 -0 0.01 0z"/>
   <polygon class="fil7" points="2.91,7.3 2.92,7.34 2.9,7.34 "/>
   <path class="fil7" d="M2.92 7.3l0.01 0.04 0 0.01 -0.01 0 -0.02 0 -0.01 0 0 -0.01 0.01 -0.04 0.01 0zm0 0l-0.01 0.04 -0.01 -0 0 -0.01 0.02 0 0 0.01 -0.01 0 -0.01 -0.04 0.01 -0 0.01 0z"/>
   <polygon class="fil7" points="4.9,7.3 4.91,7.34 4.89,7.34 "/>
   <path class="fil7" d="M4.91 7.3l0.01 0.04 0 0.01 -0.01 0 -0.02 0 -0.01 0 0 -0.01 0.01 -0.04 0.01 0zm0 0l-0.01 0.04 -0.01 -0 0 -0.01 0.02 0 0 0.01 -0.01 0 -0.01 -0.04 0.01 -0 0.01 0z"/>
   <polygon class="fil7" points="2.97,7.47 3.02,7.54 2.98,7.51 "/>
   <path class="fil7" d="M2.97 7.46l0.05 0.07 -0.01 0.01 -0.05 -0.03 -0 -0 -0 -0 -0.01 -0.04 0.01 -0.01zm0 0l0.01 0.04 -0.01 0 0 -0.01 0.05 0.03 -0 0.01 -0.01 0 -0.05 -0.07 0.01 -0 0.01 -0z"/>
   <polygon class="fil7" points="4.84,7.47 4.83,7.49 4.8,7.54 4.82,7.51 "/>
   <path class="fil7" d="M4.85 7.47l-0.01 0.02 -0 0 -0 0 -0.04 0.05 -0.01 -0.01 0.02 -0.04 0.02 -0.04 0.01 0.01zm-0 0l-0.02 0.04 -0.02 0.04 -0.01 -0 -0.01 -0 0.04 -0.05 0.01 0 -0.01 -0 0.01 -0.02 0.01 0 0.01 0z"/>
   <polygon class="fil7" points="3.03,7.56 3.12,7.67 "/>
   <path class="fil7" d="M3.04 7.55l0.09 0.11 -0.01 0.01 -0.09 -0.11 0.01 -0.01zm0 0l0.09 0.11 -0.01 0.01 -0.09 -0.11 0.01 -0.01z"/>
   <polygon class="fil7" points="4.78,7.56 4.69,7.67 "/>
   <path class="fil7" d="M4.79 7.56l-0.09 0.11 -0.01 -0.01 0.09 -0.11 0.01 0.01zm0 0l-0.09 0.11 -0.01 -0.01 0.09 -0.11 0.01 0.01z"/>
   <polygon class="fil7" points="3.15,7.67 3.17,7.7 "/>
   <path class="fil7" d="M3.16 7.66l0.02 0.03 -0.01 0.01 -0.02 -0.03 0.01 -0.01zm0 0l0.02 0.03 -0.01 0.01 -0.02 -0.03 0.01 -0.01z"/>
   <polygon class="fil7" points="4.66,7.67 4.64,7.7 "/>
   <path class="fil7" d="M4.67 7.67l-0.02 0.03 -0.01 -0.01 0.02 -0.03 0.01 0.01zm0 0l-0.02 0.03 -0.01 -0.01 0.02 -0.03 0.01 0.01z"/>
   <path class="fil7" d="M3.2 7.7l0.1 0.05 -0.02 0.01c-0.05,-0.01 -0.07,-0.03 -0.08,-0.06z"/>
   <path class="fil7" d="M3.2 7.69l0.1 0.05 0.02 0.01 -0.02 0.01 -0.02 0.01 -0 0 -0 -0c-0.05,-0.01 -0.08,-0.04 -0.08,-0.07l-0 -0.01 0.01 0.01zm0 0.01c0,0.03 0.03,0.04 0.07,0.05l-0 0.01 -0 -0.01 0.02 -0.01 0 0.01 -0 0.01 -0.1 -0.05 0 -0.01 0.01 -0z"/>
   <polygon class="fil7" points="4.61,7.7 4.6,7.73 4.52,7.76 4.52,7.74 "/>
   <path class="fil7" d="M4.62 7.7l-0.02 0.03 -0 0 -0 0 -0.08 0.03 -0.01 0 0 -0.01 0 -0.02 0 -0 0 -0 0.09 -0.05 0.02 -0.01 -0.01 0.02zm-0 0l-0.09 0.05 -0 -0.01 0.01 0 0 0.02 -0.01 0 -0 -0.01 0.08 -0.03 0 0.01 -0.01 -0 0.02 -0.03 0.01 0 0 0.01z"/>
   <polygon class="fil7" points="3.44,7.79 3.52,7.8 3.44,7.8 "/>
   <path class="fil7" d="M3.44 7.78l0.08 0.01 0 0.02 -0.08 0.01 -0.01 0 0 -0.01 0 -0.02 0 -0.01 0.01 0zm0.01 0.01l0 0.02 -0.01 0 -0 -0.01 0.08 -0.01 0 0.01 -0 0.01 -0.08 -0.01 0 -0.01 0.01 0z"/>
   <polygon class="fil7" points="4.29,7.79 4.38,7.8 4.29,7.8 "/>
   <path class="fil7" d="M4.29 7.78l0.08 0.01 0 0.02 -0.08 0.01 -0.01 0 0 -0.01 0 -0.02 0 -0.01 0.01 0zm0.01 0.01l0 0.02 -0.01 0 -0 -0.01 0.08 -0.01 0 0.01 -0 0.01 -0.08 -0.01 0 -0.01 0.01 0z"/>
   <path class="fil8" d="M3.9 0.01l0.03 0.02 0.27 0 0.02 0.02 0.11 0 0.24 0.05 0.27 0.08 0.3 0.12c0.38,0.18 0.7,0.41 0.97,0.71 0.26,0.28 0.46,0.61 0.61,1l0.14 0.53 0.02 0.24 0.02 0.02 0 0.33 -0.07 0.07 -0.08 0 -0.05 -0.04 -0.02 -0.03 0 -0.32 -0.02 -0.02 0 -0.14 -0.02 -0.02 -0.02 -0.17 -0.05 -0.2 -0.12 -0.35c-0.18,-0.4 -0.42,-0.74 -0.74,-1.01 -0.28,-0.25 -0.62,-0.44 -1.02,-0.56l-0.53 -0.11 -0.53 0 -0.02 0.02 -0.29 0.03 -0.41 0.12c-0.23,0.08 -0.43,0.2 -0.61,0.33l-0.08 0.02 -0.08 -0.07c-0.01,-0.08 0.01,-0.13 0.05,-0.14 0.24,-0.17 0.5,-0.3 0.81,-0.4l0.47 -0.11 0.4 -0.02 0.02 -0.02z"/>
   <path class="fil5 str1" d="M3.9 0.01l0.03 0.02 0.27 0 0.02 0.02 0.11 0 0.24 0.05 0.27 0.08 0.3 0.12c0.38,0.18 0.7,0.41 0.97,0.71 0.26,0.28 0.46,0.61 0.61,1l0.14 0.53 0.02 0.24 0.02 0.02 0 0.33 -0.07 0.07 -0.08 0 -0.05 -0.04 -0.02 -0.03 0 -0.32 -0.02 -0.02 0 -0.14 -0.02 -0.02 -0.02 -0.17 -0.05 -0.2 -0.12 -0.35c-0.18,-0.4 -0.42,-0.74 -0.74,-1.01 -0.28,-0.25 -0.62,-0.44 -1.02,-0.56l-0.53 -0.11 -0.53 0 -0.02 0.02 -0.29 0.03 -0.41 0.12c-0.23,0.08 -0.43,0.2 -0.61,0.33l-0.08 0.02 -0.08 -0.07c-0.01,-0.08 0.01,-0.13 0.05,-0.14 0.24,-0.17 0.5,-0.3 0.81,-0.4l0.47 -0.11 0.4 -0.02 0.02 -0.02z"/>
   <path class="fil8" d="M1.9 0.82l0.1 0.05 0.02 0.09c-0.32,0.3 -0.56,0.67 -0.73,1.11l-0.09 0.32 -0.05 0.26 -0.02 0.55 0.02 0.02 0.02 0.24 0.08 0.33 0.15 0.4c0.14,0.3 0.33,0.56 0.56,0.78l0.21 0.18 0.01 -0.53 0.04 -0.04 0.03 -0.02 0.5 0 0.29 0.06 0.24 0.11c0.14,0.08 0.27,0.18 0.37,0.3 0.11,0.11 0.19,0.25 0.24,0.4 0.03,0.01 0.04,0 0.03,-0.04 0.09,-0.19 0.21,-0.35 0.36,-0.48 0.16,-0.15 0.37,-0.25 0.61,-0.32l0.17 -0.02 0.02 -0.02 0.5 0 0.07 0.05 0.01 0.53 0.37 -0.36c0.15,-0.17 0.27,-0.37 0.38,-0.58l0.12 -0.29 0.09 -0.32 0.02 -0.12 0.04 -0.05 0.11 -0.02c0.05,0.02 0.08,0.06 0.07,0.14 -0.08,0.37 -0.2,0.69 -0.37,0.96 -0.17,0.28 -0.38,0.53 -0.62,0.74l-0.31 0.24c-0.07,0.21 -0.18,0.39 -0.33,0.52l0 0.62c-0.04,0.14 -0.11,0.25 -0.21,0.33l-0.08 0.05 0 0.21 -0.05 0.18c-0.05,0.11 -0.12,0.2 -0.21,0.27l-0.26 0.12 -0.12 0 -0.02 0.02 -0.75 0 -0.23 -0.05c-0.12,-0.04 -0.21,-0.11 -0.28,-0.21 -0.11,-0.12 -0.15,-0.3 -0.14,-0.54 -0.07,-0.03 -0.13,-0.08 -0.18,-0.14l-0.11 -0.23 0 -0.62 -0.15 -0.17 -0.22 -0.39c-0.23,-0.14 -0.42,-0.31 -0.59,-0.51 -0.27,-0.31 -0.47,-0.68 -0.61,-1.13l-0.09 -0.44 0 -0.14 -0.02 -0.02 0 -0.44 0.02 -0.02 0 -0.14 0.02 -0.02 0.02 -0.18 0.06 -0.26 0.15 -0.41c0.17,-0.37 0.4,-0.68 0.68,-0.94l0.05 -0.02zm0.48 3.97l0 0.37 0.03 0.15c0.05,0.18 0.13,0.34 0.24,0.47 0.13,0.15 0.3,0.27 0.5,0.35l0.3 0.08 0.33 0 0 -0.3 -0.02 -0.02 -0.02 -0.17c-0.06,-0.22 -0.16,-0.4 -0.29,-0.53 -0.13,-0.15 -0.29,-0.26 -0.49,-0.33l-0.27 -0.06 -0.33 0zm2.72 0l-0.23 0.05 -0.12 0.05c-0.13,0.05 -0.24,0.12 -0.33,0.21 -0.13,0.12 -0.24,0.27 -0.32,0.44l-0.06 0.18 -0.02 0.17 -0.02 0.02 0 0.3 0.35 0 0.17 -0.03c0.18,-0.05 0.34,-0.13 0.47,-0.24 0.12,-0.1 0.22,-0.23 0.3,-0.38l0.09 -0.24 0.03 -0.15 0 -0.37 -0.32 0zm-2.28 1.4l-0.02 0.43 0.05 0.11c0.05,0.07 0.13,0.12 0.24,0.15l1.63 0 0.14 -0.06c0.06,-0.05 0.11,-0.12 0.14,-0.2l0 -0.43 -0.24 0.14 -0.35 0.09 -0.99 0 -0.35 -0.09 -0.24 -0.14zm0.27 0.9c0,0.13 0.03,0.24 0.08,0.32 0.06,0.08 0.15,0.14 0.26,0.17l0.94 0 0.17 -0.08 0.09 -0.09 0.08 -0.21c0.01,-0.07 0.01,-0.11 0,-0.11l-1.61 0z"/>
   <path class="fil5 str1" d="M1.9 0.82l0.1 0.05 0.02 0.09c-0.32,0.3 -0.56,0.67 -0.73,1.11l-0.09 0.32 -0.05 0.26 -0.02 0.55 0.02 0.02 0.02 0.24 0.08 0.33 0.15 0.4c0.14,0.3 0.33,0.56 0.56,0.78l0.21 0.18 0.01 -0.53 0.04 -0.04 0.03 -0.02 0.5 0 0.29 0.06 0.24 0.11c0.14,0.08 0.27,0.18 0.37,0.3 0.11,0.11 0.19,0.25 0.24,0.4 0.03,0.01 0.04,0 0.03,-0.04 0.09,-0.19 0.21,-0.35 0.36,-0.48 0.16,-0.15 0.37,-0.25 0.61,-0.32l0.17 -0.02 0.02 -0.02 0.5 0 0.07 0.05 0.01 0.53 0.37 -0.36c0.15,-0.17 0.27,-0.37 0.38,-0.58l0.12 -0.29 0.09 -0.32 0.02 -0.12 0.04 -0.05 0.11 -0.02c0.05,0.02 0.08,0.06 0.07,0.14 -0.08,0.37 -0.2,0.69 -0.37,0.96 -0.17,0.28 -0.38,0.53 -0.62,0.74l-0.31 0.24c-0.07,0.21 -0.18,0.39 -0.33,0.52l0 0.62c-0.04,0.14 -0.11,0.25 -0.21,0.33l-0.08 0.05 0 0.21 -0.05 0.18c-0.05,0.11 -0.12,0.2 -0.21,0.27l-0.26 0.12 -0.12 0 -0.02 0.02 -0.75 0 -0.23 -0.05c-0.12,-0.04 -0.21,-0.11 -0.28,-0.21 -0.11,-0.12 -0.15,-0.3 -0.14,-0.54 -0.07,-0.03 -0.13,-0.08 -0.18,-0.14l-0.11 -0.23 0 -0.62 -0.15 -0.17 -0.22 -0.39c-0.23,-0.14 -0.42,-0.31 -0.59,-0.51 -0.27,-0.31 -0.47,-0.68 -0.61,-1.13l-0.09 -0.44 0 -0.14 -0.02 -0.02 0 -0.44 0.02 -0.02 0 -0.14 0.02 -0.02 0.02 -0.18 0.06 -0.26 0.15 -0.41c0.17,-0.37 0.4,-0.68 0.68,-0.94l0.05 -0.02zm0.48 3.97l0 0.37 0.03 0.15c0.05,0.18 0.13,0.34 0.24,0.47 0.13,0.15 0.3,0.27 0.5,0.35l0.3 0.08 0.33 0 0 -0.3 -0.02 -0.02 -0.02 -0.17c-0.06,-0.22 -0.16,-0.4 -0.29,-0.53 -0.13,-0.15 -0.29,-0.26 -0.49,-0.33l-0.27 -0.06 -0.33 0zm2.72 0l-0.23 0.05 -0.12 0.05c-0.13,0.05 -0.24,0.12 -0.33,0.21 -0.13,0.12 -0.24,0.27 -0.32,0.44l-0.06 0.18 -0.02 0.17 -0.02 0.02 0 0.3 0.35 0 0.17 -0.03c0.18,-0.05 0.34,-0.13 0.47,-0.24 0.12,-0.1 0.22,-0.23 0.3,-0.38l0.09 -0.24 0.03 -0.15 0 -0.37 -0.32 0zm-2.28 1.4l-0.02 0.43 0.05 0.11c0.05,0.07 0.13,0.12 0.24,0.15l1.63 0 0.14 -0.06c0.06,-0.05 0.11,-0.12 0.14,-0.2l0 -0.43 -0.24 0.14 -0.35 0.09 -0.99 0 -0.35 -0.09 -0.24 -0.14zm0.27 0.9c0,0.13 0.03,0.24 0.08,0.32 0.06,0.08 0.15,0.14 0.26,0.17l0.94 0 0.17 -0.08 0.09 -0.09 0.08 -0.21c0.01,-0.07 0.01,-0.11 0,-0.11l-1.61 0z"/>
   <path class="fil8" d="M3.3 1.11l1.28 0 0.11 0.08 0.02 0.12 -0.24 0.85 -0.03 0.18 0.34 0 0.1 0.08 0.02 0.11 -0.88 1.71 -0.08 0.1 -0.09 0.03 -0.11 -0.05 -0.05 -0.1 0 -0.08 0.02 -0.02 0 -0.4 0.02 -0.02 0.02 -0.74 -0.43 0 -0.08 -0.05 -0.03 -0.07 0 -1.64 0.08 -0.1 0.05 -0.02zm0.08 0.21l0 1.45 0.5 0 0.06 0.09 -0.02 0.55 -0.02 0.02 0 0.41 -0.02 0.02 0.02 0.08 0.05 -0.06 0.67 -1.29 -0.32 -0.02 -0.03 -0.02 -0.09 -0.11 0 -0.08 0.27 -0.96c0,-0.05 0,-0.08 0,-0.08l-1.08 0z"/>
   <path class="fil5 str1" d="M3.3 1.11l1.28 0 0.11 0.08 0.02 0.12 -0.24 0.85 -0.03 0.18 0.34 0 0.1 0.08 0.02 0.11 -0.88 1.71 -0.08 0.1 -0.09 0.03 -0.11 -0.05 -0.05 -0.1 0 -0.08 0.02 -0.02 0 -0.4 0.02 -0.02 0.02 -0.74 -0.43 0 -0.08 -0.05 -0.03 -0.07 0 -1.64 0.08 -0.1 0.05 -0.02zm0.08 0.21l0 1.45 0.5 0 0.06 0.09 -0.02 0.55 -0.02 0.02 0 0.41 -0.02 0.02 0.02 0.08 0.05 -0.06 0.67 -1.29 -0.32 -0.02 -0.03 -0.02 -0.09 -0.11 0 -0.08 0.27 -0.96c0,-0.05 0,-0.08 0,-0.08l-1.08 0z"/>
  </g>
 </g>
</svg>
