<?xml version="1.0" encoding="UTF-8"?>
<!DOCTYPE svg PUBLIC "-//W3C//DTD SVG 1.1//EN" "http://www.w3.org/Graphics/SVG/1.1/DTD/svg11.dtd">
<!-- Creator: CorelDRAW -->
<svg xmlns="http://www.w3.org/2000/svg" xml:space="preserve" width="17.848mm" height="17.8415mm" version="1.1" style="shape-rendering:geometricPrecision; text-rendering:geometricPrecision; image-rendering:optimizeQuality; fill-rule:evenodd; clip-rule:evenodd"
viewBox="0 0 54.72 54.7"
 xmlns:xlink="http://www.w3.org/1999/xlink"
 xmlns:xodm="http://www.corel.com/coreldraw/odm/2003">
 <defs>
  <style type="text/css">
   <![CDATA[
    .str1 {stroke:#13BD24;stroke-width:0.61;stroke-miterlimit:22.9256}
    .str0 {stroke:#221F20;stroke-width:0.61;stroke-miterlimit:22.9256}
    .fil2 {fill:#FEFEFE}
    .fil1 {fill:#13BD24}
    .fil0 {fill:#A241AA}
   ]]>
  </style>
 </defs>
 <g id="Camada_x0020_1">
  <metadata id="CorelCorpID_0Corel-Layer"/>
  <g id="_2549944397952">
   <path class="fil0 str0" d="M2.23 41.99c-0.21,-0.39 -0.34,-0.82 -0.36,-1.31 -0.03,-0.51 0.08,-0.91 0.14,-1.39 0.76,-6.09 1.55,-12.17 2.27,-18.26 0.39,-3.27 0.77,-6.55 1.11,-9.83 0.19,-1.83 0.46,-3.98 0.45,-5.8 -0.02,-2.04 0.26,-4.18 2.52,-4.9 1.18,-0.37 2.81,-0.08 4.08,-0.09 1.97,-0.01 4.15,0.11 5.01,2.25 0.2,0.5 0.27,1.08 0.28,1.67l19.88 -0.06c0.03,-0.66 0.12,-1.32 0.33,-1.96l0.45 -1.38 1.41 -0.31c0.76,-0.17 1.78,-0.18 2.56,-0.21 1.22,-0.04 2.45,-0.06 3.68,-0.06 1.46,-0 5.35,-0.08 6.6,0.56l0.3 0.15 0.25 0.22c0.91,0.81 0.97,2.01 1.05,3.12 0.08,1.16 0.11,2.33 0.13,3.49 0.08,3.46 0.08,6.92 0.07,10.38 -0.01,6.16 -0.11,12.33 -0.11,18.49 0,2.21 0.53,5.12 -1.54,6.55l0.27 0.11 0.29 1.3c0.44,1.96 -0.24,3.44 -1.54,4.1 0.84,0.9 1.08,2.19 0.53,3.5 -1.01,2.42 -3.33,2.43 -5.39,1.56 -0.35,-0.15 -1.57,-0.74 -2.02,-0.8 -0.9,0.39 -1.46,0.9 -2.53,1.17 -1.9,0.47 -3.75,-0.22 -5.4,-1.15 -0.04,-0.02 -0.12,-0.06 -0.18,-0.09 -0.31,0.11 -0.89,0.47 -1.16,0.6 -1.15,0.56 -2.28,0.8 -3.56,0.71 -0.97,-0.07 -1.85,-0.34 -2.7,-0.8 -0.24,-0.13 -0.55,-0.36 -0.81,-0.5 -0.23,0.08 -0.55,0.26 -0.69,0.35 -1.71,1 -3.54,1.3 -5.44,0.69 -0.59,-0.19 -1.13,-0.45 -1.68,-0.74 -0.16,-0.09 -0.38,-0.22 -0.57,-0.3 -0.33,0.11 -1.34,0.68 -1.62,0.81 -1.72,0.77 -3.39,0.75 -5.12,0.01 -0.36,-0.15 -1.31,-0.77 -1.58,-0.83 -0.12,0.04 -0.37,0.22 -0.49,0.29 -0.57,0.35 -1.12,0.63 -1.77,0.81 -1.71,0.47 -3.66,0.28 -5.21,-0.6 -0.24,-0.14 -0.45,-0.28 -0.67,-0.43 -0.04,-0.01 -0.08,-0.02 -0.12,-0.03 -0.69,-0.2 -1.27,-0.27 -1.93,-0.62l-1.07 -0.57 -0.22 -1.19c-0.31,-1.64 0.27,-3.19 1.58,-3.93 -1.36,-1.47 -1.27,-3.57 0.26,-4.71zm15.91 -24.28l-0.91 -0.06c-0.69,2.31 -1.2,4.82 -1.59,7.14 -0.14,0.85 -0.22,1.77 -0.3,2.63 -0.14,1.41 -0.27,2.82 -0.4,4.23 -0.08,0.85 -0.16,1.7 -0.24,2.55 0.14,-0.1 0.28,-0.19 0.38,-0.26 0.38,-0.25 0.75,-0.48 1.14,-0.7 -0.4,-1.08 -0.31,-2.41 -0.22,-3.49 0.14,-1.61 0.39,-3.24 0.67,-4.83 0.4,-2.33 0.87,-4.86 1.47,-7.21zm7.04 -0.01c-0.11,0.44 -0.21,0.83 -0.29,1.15 -0.43,1.75 -0.97,3.62 -1.27,5.38 -0.29,1.67 -0.53,3.35 -0.71,5.04 -0.11,1 -0.1,2 -0.27,2.99 -0.01,0.05 -0.02,0.11 -0.03,0.16 0.15,0.04 0.31,0.09 0.46,0.14 0.06,-4.21 1.38,-11.21 2.3,-14.85l-0.2 -0.01zm7.23 0.04c-0.23,0.73 -0.46,1.44 -0.62,2.08 -0.88,3.51 -1.47,7.22 -1.78,10.83 -0.1,1.14 -0,2.23 -0.23,3.38 -0.04,0.22 -0.1,0.42 -0.16,0.62 0.32,0.09 0.62,0.2 0.93,0.32 0,-0.26 0.01,-0.51 0.01,-0.75 0.06,-2 0.31,-4.04 0.58,-6.02 0.47,-3.36 1.06,-7.09 1.89,-10.4 -0.21,0 -0.42,-0.02 -0.63,-0.05zm-17.22 23.82c0.28,0.11 0.55,0.24 0.83,0.38 0.22,0.12 0.67,0.35 1.01,0.48 0.23,-0.16 0.46,-0.33 0.73,-0.47 0.82,-0.45 1.69,-0.68 2.62,-0.76 1.3,-0.12 2.49,0.1 3.66,0.66 0.29,0.14 0.88,0.51 1.2,0.63 0.09,-0.03 0.21,-0.09 0.27,-0.13 1.09,-0.6 1.82,-0.99 2.74,-1.15 -0.83,-0.45 -1.32,-0.37 -2.28,-0.25 -1.26,0.16 -2.36,-0.09 -3.35,-0.9 -0.31,-0.26 -0.63,-0.63 -0.97,-0.83 -0.47,-0.29 -1.04,-0.57 -1.6,-0.39 -0.65,0.21 -1.53,0.91 -2.1,1.31 -0.57,0.39 -1.16,0.64 -1.83,0.81 -0.16,0.04 -0.44,0.08 -0.59,0.14 -0.05,0.03 -0.12,0.12 -0.17,0.16 -0.11,0.12 -0.14,0.18 -0.17,0.31z"/>
  </g>
  <g id="_2549944397280">
   <path class="fil1 str1" d="M4.78 41.18c0.64,0.54 4.55,0.34 5.44,0.11 0.57,-2.02 -1.01,-1.38 -4.02,-1.49 0.86,-9.07 3.83,-27.73 3.83,-35.15l3.4 -0.09 -0.01 6.03c-0.99,0.09 -2.11,-0.01 -2.88,0.25 -0.22,0.79 -0.19,1.93 -0.18,2.9 0.01,1.35 0.19,1.79 1.49,1.43 0.26,-0.78 0.2,-1.91 0.2,-2.88 4.37,-0.13 2.61,-0.02 3.13,-3.81l5.52 0.01 0.04 2.09 -2.89 0.16c-0.25,1.02 -0.27,3.51 0.03,4.41l1.28 0.09c0.26,-0.86 0.2,-1.99 0.2,-2.97 4.37,-0.05 2.61,-0.14 3.13,-3.79l5.52 0.01 0.03 2.08 -2.89 0.16c-0.25,1.02 -0.27,3.52 0.03,4.43l1.28 0.07c0.26,-0.86 0.2,-1.99 0.2,-2.96 3.91,0 2.89,0.14 3.08,-3.7l5.57 -0.09 0.03 2.08 -2.89 0.17c-0.25,1 -0.27,3.54 0.03,4.43 1.95,0.53 1.47,-1.2 1.47,-2.9 4.01,0 2.87,-0.11 3.08,-3.7l2.92 -0.09 -3.61 30.55c-0.43,3.14 -0.52,2.43 7.64,2.43 8.93,0 7.82,1.1 7.82,-4.71 0,-5.13 0.39,-32.98 -0.3,-33.6 -0.8,-0.41 -10.01,-0.32 -11.15,-0.07 -0.33,1 -0.19,2.5 -0.19,3.7l-25.04 0.08c0,-3.44 0.87,-3.95 -2.66,-3.93 -3.41,0.02 -4.11,-0.9 -4.08,2.44 0.03,4.15 -2.94,26.99 -3.85,34.23 -0.12,0.93 -0.3,1.05 0.27,1.58z"/>
   <polygon class="fil2 str1" points="41.8,6.4 37.91,39.8 38.74,39.83 44.37,39.82 45.2,39.82 45.2,4.58 44.37,4.56 41.8,4.57 "/>
   <polygon class="fil2 str1" points="46.88,7.21 46.87,8.64 46.87,39.82 50.11,39.82 50.1,4.57 46.88,4.57 "/>
   <path class="fil1 str1" d="M2.87 50.16c0.36,0.19 0.9,0.27 1.44,0.43 0.79,0.23 0.69,0.33 1.34,0.71 0.9,0.52 2.16,0.67 3.28,0.36 1.1,-0.3 1.6,-1.09 2.72,-1.18 1.24,-0.1 1.87,0.64 2.78,1.02 2.97,1.27 4,-1.25 6.07,-1.02 1.34,0.15 3.07,2.45 6.09,0.69 3.17,-1.85 2.99,0.41 5.68,0.62 2.85,0.22 3.44,-2.31 5.94,-0.9 3.46,1.93 4.07,0.53 5.84,-0.2 2.12,-0.88 5.15,2.48 5.93,0.64 0.54,-1.3 -1.33,-1.08 -2.22,-1.6 -3.48,-2.03 -4.31,-0.19 -6.04,0.33 -1.39,0.42 -2.07,-0.25 -2.96,-0.73 -3.09,-1.66 -4.3,0.93 -6.29,0.84 -1.89,-0.09 -3.07,-2.61 -6.35,-0.66 -3.11,1.85 -3.04,-0.69 -5.98,-0.67 -2.9,0.01 -2.91,2.54 -5.97,0.66 -0.88,-0.54 -1.86,-0.81 -3.08,-0.59 -1.36,0.24 -1.76,0.97 -2.72,1.19 -1.5,0.35 -2.01,-0.38 -2.92,-0.84 -1.16,-0.58 -2.93,-0.95 -2.59,0.91z"/>
   <path class="fil1 str1" d="M50.86 45.26c-1.25,-0.5 -1.53,-0.38 -2.85,-1.07 -3,-1.57 -4.48,0.82 -6.14,0.84 -1.34,0.01 -1.74,-0.8 -2.91,-1.16 -3.21,-0.98 -3.84,1.81 -6.27,1.03 -1.01,-0.32 -1.34,-1.02 -2.75,-1.18 -1.63,-0.18 -2.13,0.26 -3.22,0.86 -2.69,1.48 -3.07,-1.14 -6.12,-0.87 -3.05,0.27 -1.97,2.5 -5.77,0.48 -3.08,-1.64 -4.3,0.81 -6.16,0.83 -1.27,0.02 -1.71,-0.72 -2.75,-1.1 -1.38,-0.51 -3.15,0.06 -2.03,1.14 0.33,0.32 0.88,0.24 1.47,0.43 0.92,0.31 2.31,1.77 4.67,0.93 1.04,-0.37 1.51,-1.13 2.82,-1.1 1.29,0.03 1.7,0.85 2.94,1.19 3.25,0.88 3.78,-1.94 6.26,-1.02 1.82,0.68 2.38,2.2 5.88,0.26 2.66,-1.47 3.07,1.22 6.15,0.87 1.55,-0.18 1.66,-0.81 2.73,-1.16 1.51,-0.49 2.12,0.24 3.08,0.74 2.97,1.55 4.3,-0.91 6.14,-0.88 1.01,0.02 5.53,3.1 4.82,-0.06z"/>
   <path class="fil1 str1" d="M12.31 42.68c0.48,-1.14 0.16,-1.98 1.16,-3.1 1.18,-1.33 1.93,-0.74 3.04,-1.51 1.79,-1.24 3.45,-2.8 6.44,-1 1.22,0.74 1.24,1.57 2.69,1.39 1.65,-0.21 2.54,-0.16 3.87,0.57 1.35,0.74 1.45,1.39 2.45,2.11 0.89,0.63 2.26,-0 0.56,-1.79 -1.36,-1.43 -3.34,-2.66 -6.33,-2.6 -1.9,0.04 -0.59,-0.22 -2.96,-1.37 -4.4,-2.15 -6.65,1.04 -8.31,1.56 -4.26,1.33 -5.34,6.16 -2.62,5.76z"/>
   <path class="fil1 str1" d="M11.78 37.31c0.21,-0.45 1.02,-10.95 1.36,-12.94 0.44,-2.62 1.22,-6.21 2.08,-8.75 0.76,-2.23 -1.59,-5.78 -3.93,9.63 -0.53,3.48 -0.75,6.43 -0.89,9.9 -0.05,1.33 -0.4,2.61 1.38,2.17z"/>
   <path class="fil1 str1" d="M38.17 13.88c-1.7,-0.41 -1.83,1.22 -2.61,4.27 -0.86,3.35 -3.55,17.96 -2.01,19.18 1.69,1.33 1.37,-3.55 1.49,-5.23 0.29,-4.12 0.9,-8.45 1.87,-12.43 0.34,-1.4 1.58,-4.73 1.26,-5.79z"/>
   <path class="fil1 str1" d="M25.68 34.21c2.06,1.41 1.65,-1.94 1.81,-3.77 0.32,-3.69 0.96,-7.68 1.84,-11.23 0.34,-1.34 1.48,-4.3 1.15,-5.36 -1.64,-0.32 -1.65,0.82 -2.45,3.68 -1.02,3.63 -2.85,13.65 -2.36,16.68z"/>
   <path class="fil1 str1" d="M23.24 13.97c-1.57,-0.67 -1.54,0.36 -2.33,3.14 -0.77,2.69 -3.18,14.17 -2.26,15.41 0.55,0.74 1.33,0.22 1.48,-0.67 0.14,-0.82 0.15,-1.98 0.25,-2.85 0.19,-1.77 0.43,-3.43 0.73,-5.19 0.43,-2.51 2.35,-9.05 2.12,-9.84z"/>
  </g>
 </g>
</svg>
