<?xml version="1.0" encoding="UTF-8"?>
<!DOCTYPE svg PUBLIC "-//W3C//DTD SVG 1.1//EN" "http://www.w3.org/Graphics/SVG/1.1/DTD/svg11.dtd">
<!-- Creator: CorelDRAW -->
<svg xmlns="http://www.w3.org/2000/svg" xml:space="preserve" width="16.8461mm" height="16.8473mm" version="1.1" style="shape-rendering:geometricPrecision; text-rendering:geometricPrecision; image-rendering:optimizeQuality; fill-rule:evenodd; clip-rule:evenodd"
viewBox="0 0 48.9 48.91"
 xmlns:xlink="http://www.w3.org/1999/xlink"
 xmlns:xodm="http://www.corel.com/coreldraw/odm/2003">
 <defs>
  <style type="text/css">
   <![CDATA[
    .str1 {stroke:#373435;stroke-width:0.58;stroke-miterlimit:22.9256}
    .str0 {stroke:#ED3237;stroke-width:0.58;stroke-miterlimit:22.9256}
    .fil1 {fill:#13BD24}
    .fil0 {fill:#F54029}
   ]]>
  </style>
 </defs>
 <g id="Camada_x0020_1">
  <metadata id="CorelCorpID_0Corel-Layer"/>
  <g id="_2550254969808">
   <path class="fil0 str0" d="M9.08 4.88c-0.2,-0.35 -0.32,-0.81 -0.32,-1.38l0 -0.97c0,-1.8 0.79,-2.61 2.61,-2.09l0.6 0.17 0.23 1.86 0 1.03c0,0.54 -0.11,0.98 -0.29,1.32 0.58,0.13 1.11,0.35 1.6,0.65 0.14,-0.53 0.47,-1.05 0.82,-1.43 0.75,-0.8 1.92,-1.42 3.04,-1.12l0.53 0.14 0.14 0.53c0.38,1.43 -0.08,1.88 -0.99,2.79 -0.31,0.31 -0.52,0.59 -0.9,0.84 -0.23,0.16 -0.47,0.26 -0.71,0.32 0.26,0.49 0.47,1.03 0.6,1.62 0.74,-0.54 2.04,-0.76 3.92,-0.19l0.71 0.22 -0.16 2.58 -0.62 0.19c-1.8,0.56 -3.07,0.36 -3.81,-0.14 -0.12,0.59 -0.33,1.15 -0.62,1.66 0.54,0.13 1.07,0.47 1.46,0.83 0.81,0.75 1.43,1.91 1.12,3.04l-0.14 0.52 -0.06 0.02c0.08,-0.01 0.16,-0.01 0.24,-0 1.28,0.07 1.68,1.17 1.6,2.28 -0.03,0.33 -0.08,0.65 -0.15,0.96l4.74 0 -0 -3.53 -3.9 0c-3.01,0 -3.02,-3.43 0,-3.43l19.37 0c3.56,0 3.61,2.12 4.32,4.84 0.52,1.99 1.02,3.99 1.56,5.99 1.27,4.71 3.68,10.81 2.82,15.68l-0.14 0.77 -17.49 0.14 0 0.43c1.4,-0.03 2.58,-0.06 4.1,0.2l0.69 0.12 0.09 0.69c0.22,1.79 0.28,2.81 -0.04,4.6l-0.12 0.69 -0.69 0.09c-1.08,0.13 -2.26,0.15 -3.35,0.17 -1.6,0.03 -3.21,0.04 -4.82,0.03 -2.87,-0 -5.75,-0.05 -8.63,-0.05l-0.1 0 -1.58 -0.33 -0.08 -0.67c-0.22,-1.79 -0.28,-2.81 0.03,-4.6l0.12 -0.69 0.69 -0.08c1.4,-0.17 2.68,-0.16 4.04,-0.15l0 -0.43c-2.6,0.02 -5.2,0.08 -7.8,0.09 -1.63,0.01 -3.26,0.01 -4.88,-0.04 -1.1,-0.03 -2.36,-0.06 -3.44,-0.25l-0.74 -0.13 -0.18 -3.89 0 -0.02c0,-1.48 3.71,-15.91 4.4,-16.95l0.25 -0.37 0.27 -0.03 -0.05 -0.16c-0.56,-1.8 -0.36,-3.07 0.14,-3.81 -0.58,-0.15 -1.14,-0.38 -1.65,-0.69 -0.12,0.57 -0.47,1.12 -0.85,1.53 -0.75,0.81 -1.92,1.42 -3.04,1.12l-0.52 -0.14 -0.14 -0.52c-0.3,-1.12 0.32,-2.29 1.12,-3.04 0.4,-0.37 0.94,-0.71 1.5,-0.84 -0.3,-0.49 -0.54,-1.03 -0.68,-1.61 -0.35,0.2 -0.8,0.32 -1.35,0.32l-1.06 0.04 -1.84 -0.34 -0.17 -0.55c-0.55,-1.81 0.3,-2.59 2.08,-2.59l0.97 0c0.57,0 1.03,0.12 1.38,0.33 0.14,-0.57 0.37,-1.11 0.68,-1.61 -0.56,-0.12 -1.11,-0.47 -1.52,-0.84 -0.8,-0.75 -1.42,-1.91 -1.12,-3.03l0.09 -0.35 0.3 -0.2c1.05,-0.69 2.37,0.08 3.14,0.84 0.44,0.43 0.87,1.05 1.01,1.67 0.49,-0.3 1.03,-0.53 1.61,-0.68zm4.41 10.56c-0.5,0.29 -1.05,0.51 -1.66,0.64 0.5,0.75 0.7,2.03 0.14,3.85l-0.22 0.71 -0.72 -0.04c0.02,0.02 0.04,0.05 0.06,0.08 0.12,0.15 0.22,0.3 0.28,0.46l4.6 -0.05c0.13,-1.13 0.32,-2.57 1.26,-3.04 -1.08,0.22 -2.19,-0.38 -2.91,-1.15 -0.36,-0.39 -0.7,-0.91 -0.83,-1.45z"/>
  </g>
  <g id="_2550254968224">
   <path class="fil1 str1" d="M20.36 16.66l4.84 0 0 5.42 -6.83 0c0.15,-1.01 0.91,-3.18 -0.35,-3.25 -1.07,-0.06 -1.05,2.17 -1.21,3.19l-5.95 0.06c-0.62,-0.26 0.04,0.22 -0.27,-0.3 -0.19,-0.32 0.05,-0.14 -0.25,-0.53 -0.42,-0.54 -0.29,-0.39 -1.05,-0.31 -0.49,0.73 -4.25,15.09 -4.25,16.43l0.14 3.12c2.76,0.48 13.37,0.18 16.9,0.17l0 2.32c-1.93,0 -2.99,-0.08 -4.87,0.14 -0.31,1.78 -0.25,2.52 -0.03,4.33l0.82 0.17c3.46,0 13.98,0.19 16.68,-0.15 0.31,-1.78 0.25,-2.52 0.03,-4.32 -1.96,-0.34 -2.77,-0.19 -4.88,-0.17l-0.01 -2.32 17.65 -0.15c0.8,-4.51 -1.37,-9.96 -2.8,-15.27 -0.53,-1.97 -1.03,-3.96 -1.56,-5.99 -0.64,-2.43 -0.5,-4.13 -3.41,-4.13l-19.37 0c-1.76,0 -1.76,1.55 0,1.55z"/>
   <path class="fil1 str1" d="M9.66 5.72c-2.4,0.43 -4.44,2.72 -3.93,5.63 0.4,2.31 2.8,4.35 5.63,3.86 6.14,-1.07 4.57,-10.63 -1.7,-9.49z"/>
   <polygon class="fil1 str1" points="6.6,39.11 46.13,39.11 46.13,37.56 6.6,37.56 "/>
   <polygon class="fil1 str1" points="26.75,36.01 36.68,36.01 35.79,30.65 35.08,30.58 26.73,30.59 "/>
   <polygon class="fil1 str1" points="16.04,36.01 25.2,36.01 25.2,30.59 16.93,30.6 "/>
   <polygon class="fil1 str1" points="26.75,29.05 35.52,29.05 34.63,23.69 33.92,23.61 26.75,23.63 "/>
   <polygon class="fil1 str1" points="17.21,29.04 25.25,29.05 25.2,23.63 18.09,23.63 "/>
   <polygon class="fil1 str1" points="6.85,35.95 14.49,36.01 15.37,30.59 8.21,30.6 "/>
   <polygon class="fil1 str1" points="38.25,35.95 45.88,36.01 44.52,30.65 37.37,30.59 "/>
   <polygon class="fil1 str1" points="26.75,22.08 34.31,22.08 33.47,16.72 32.76,16.65 26.75,16.66 "/>
   <polygon class="fil1 str1" points="8.64,29.04 15.65,29.04 16.53,23.63 10.04,23.63 "/>
   <polygon class="fil1 str1" points="37.09,28.99 44.07,29.05 42.69,23.67 36.21,23.62 "/>
   <path class="fil1 str1" d="M9.72 7.31c-4.36,1.17 -2.57,7.4 1.6,6.33 4.15,-1.07 2.52,-7.43 -1.6,-6.33z"/>
   <path class="fil1 str1" d="M35.93 22.02l6.33 0.06c-0.16,-0.88 -0.44,-1.77 -0.67,-2.64 -0.93,-3.54 0.07,-2.78 -6.55,-2.78l0.88 5.36z"/>
   <polygon class="fil1 str1" points="18.61,46.07 33.34,46.07 33.34,44.52 18.71,44.52 "/>
   <polygon class="fil1 str1" points="23.65,42.98 28.3,42.98 28.3,40.65 23.65,40.65 "/>
   <path class="fil1 str1" d="M19.6 11.06l0.08 -1.19c-4.56,-1.39 -4.56,2.59 -0.08,1.19z"/>
   <path class="fil1 str1" d="M9.88 19.58l1.19 0.07c1.4,-4.55 -2.59,-4.55 -1.19,-0.07z"/>
   <path class="fil1 str1" d="M17.12 3.83c-1.43,-0.38 -3.32,1.81 -2.57,2.56 0.72,0.71 1.5,-0.37 1.82,-0.69 0.59,-0.59 1.04,-0.79 0.75,-1.88z"/>
   <path class="fil1 str1" d="M3.84 3.83c-0.38,1.43 1.81,3.31 2.56,2.56 0.84,-0.84 -1.58,-3.2 -2.56,-2.56z"/>
   <path class="fil1 str1" d="M1.36 11.06l1.17 0.22 0.97 -0.04c1.73,0 1.74,-1.55 0,-1.55l-0.97 0c-1.24,0 -1.51,0.28 -1.18,1.37z"/>
   <path class="fil1 str1" d="M3.84 17.1c1.43,0.39 3.32,-1.81 2.57,-2.56 -0.75,-0.75 -2.95,1.13 -2.57,2.56z"/>
   <path class="fil1 str1" d="M17.12 17.1c0.39,-1.43 -1.81,-3.32 -2.57,-2.56 -0.75,0.75 1.13,2.95 2.57,2.56z"/>
   <path class="fil1 str1" d="M9.7 2.54l0 0.97c0,1.74 1.55,1.73 1.55,0l0 -0.97 -0.14 -1.18c-1.13,-0.33 -1.4,-0.06 -1.4,1.18z"/>
  </g>
 </g>
</svg>
