<?xml version="1.0" encoding="UTF-8"?>
<!DOCTYPE svg PUBLIC "-//W3C//DTD SVG 1.1//EN" "http://www.w3.org/Graphics/SVG/1.1/DTD/svg11.dtd">
<!-- Creator: CorelDRAW -->
<svg xmlns="http://www.w3.org/2000/svg" xml:space="preserve" width="17.8557mm" height="17.8498mm" version="1.1" style="shape-rendering:geometricPrecision; text-rendering:geometricPrecision; image-rendering:optimizeQuality; fill-rule:evenodd; clip-rule:evenodd"
viewBox="0 0 54.44 54.42"
 xmlns:xlink="http://www.w3.org/1999/xlink"
 xmlns:xodm="http://www.corel.com/coreldraw/odm/2003">
 <defs>
  <style type="text/css">
   <![CDATA[
    .str2 {stroke:#FEFEFE;stroke-width:0.61;stroke-miterlimit:22.9256}
    .str0 {stroke:#3E4095;stroke-width:0.61;stroke-miterlimit:22.9256}
    .str1 {stroke:#13BD24;stroke-width:0.61;stroke-miterlimit:22.9256}
    .fil2 {fill:#FEFEFE}
    .fil1 {fill:#13BD24}
    .fil0 {fill:#2E3092}
   ]]>
  </style>
 </defs>
 <g id="Camada_x0020_1">
  <metadata id="CorelCorpID_0Corel-Layer"/>
  <g id="_2549954190672">
   <path class="fil0 str0" d="M41.76 47.76c2.11,-0.89 4.86,0.35 4.86,3.01 -0,2.81 -3.05,4.05 -5.21,2.82 -0.82,0.43 -1.76,0.48 -2.69,0.48l-0.51 0c-0.63,0 -1.18,-0.08 -1.67,-0.22l-1.63 0.11c-3.02,0.2 -6.17,0.16 -9.19,0.16 -3.15,-0.01 -6.31,-0.04 -9.46,-0.04 -1.98,0 -4.36,-1.06 -4.28,-3.4 0.09,-2.75 3.2,-3.23 5.32,-3.21 1.11,0.01 2.22,0.05 3.33,0.05 0.24,0 0.51,0 0.78,0l0.81 -14.29 -12.77 2.07c-2.43,0.39 -5.79,1.45 -7.99,0l-0.99 -0.65 -0.13 -1.17c-0.18,-1.58 0.51,-2.93 1.91,-3.67 0.66,-0.35 1.35,-0.5 2.04,-0.76 3.23,-1.23 6.48,-2.41 9.72,-3.63 1.95,-0.74 3.9,-1.48 5.84,-2.25 0.74,-0.29 1.78,-0.67 2.59,-1.05 0.05,-0.12 0.11,-0.24 0.16,-0.36 -1.08,-1.08 -2.27,-2.32 -2.64,-3.14 -0.49,-1.09 -0.13,-2.39 0.18,-3.48 0.32,-1.15 0.7,-2.29 1.08,-3.42 0.64,-1.88 1.33,-3.73 1.99,-5.59 0.41,-1.15 0.71,-2.59 1.25,-3.66 0.94,-1.83 2.6,-2.4 4.57,-2.07l1.37 0.24 0.53 1.28c0.71,1.71 0.56,7.66 0.55,9.65 -0.01,2.81 -0.1,5.63 -0.12,8.44 0.27,0.15 0.53,0.32 0.85,0.61 0.34,0.31 0.61,0.66 0.82,1.03 2.78,-0.23 6.35,-0.56 8.15,0.89l0.05 0.04 8.61 7.62c1.97,1.74 5.16,3.46 4.09,6.66l-0.44 1.32 -1.36 0.32c-2.11,0.5 -2.99,-0.1 -4.69,-0.97 -3.14,-1.62 -6.27,-3.26 -9.41,-4.87 -1.61,-0.83 -3.22,-1.65 -4.84,-2.46l1.05 17.36 2.3 0.13c0.47,-0.14 1,-0.22 1.59,-0.22l0.66 -0.04 2.97 0.33z"/>
  </g>
  <g id="_2549954191632">
   <path class="fil1 str1" d="M26 21.63c-0.4,0.67 -0.56,0.5 -1,1.03 -0.34,0.41 -0.38,0.93 -0.65,1.26 -0.51,0.62 -16.65,6.52 -19.17,7.48 -1.42,0.54 -2.49,0.55 -2.35,1.8 1.21,0.79 4.35,-0.09 6.21,-0.38l13.1 -2.12c0.72,-0.3 2.37,-3.04 2.95,-3.88l-1.3 23.08c-1.44,0.25 -4.86,0.11 -6.51,0.1 -3.99,-0.03 -3.08,1.58 -1.01,1.58 4.57,0 14.51,0.15 18.49,-0.11l0.1 -1.33 -2.99 -0.17 -1.43 -23.83c1.5,0.48 15.38,7.74 18.17,9.18 0.96,0.5 1.58,1.09 2.95,0.76 0.45,-1.34 -1.56,-2.4 -3.37,-3.97l-8.56 -7.58c-1.25,-1.01 -6.22,-0.27 -8.4,-0.22 -0.16,-2.52 -1.83,-2.02 -2.36,-3.04 0,-2.89 0.4,-16.82 -0.24,-18.36 -2.15,-0.37 -1.91,0.97 -3.03,4.09 -0.5,1.41 -3.66,9.87 -3.33,10.62 0.23,0.52 3.1,3.34 3.74,4.05z"/>
   <path class="fil2 str2" d="M25.84 49.98l3.99 0 -1.31 -22.07c-0.04,-0.71 0.17,-1.11 -0.57,-1.23 -1.09,-0.19 -0.65,0.05 -0.79,0.82 -0.06,0.33 -0.04,1.15 -0.06,1.55l-0.54 8.97c-0.24,3.99 -0.52,7.98 -0.71,11.97z"/>
   <path class="fil2 str2" d="M26.7 19.59l0.1 -9.43c-1.02,1.17 -1.47,3.74 -2.02,5.24 -0.48,1.29 -0.85,1.38 0.07,2.36 0.45,0.48 1.4,1.53 1.85,1.84z"/>
   <path class="fil2 str2" d="M11.83 30.6l8.64 -1.19c1.16,-0.32 2.11,-2.09 2.44,-3l-11.08 4.19z"/>
   <path class="fil2 str2" d="M33.9 25.81l10.57 5.39 -4.2 -3.65c-2.29,-1.98 -1.43,-2.18 -6.36,-1.73z"/>
   <path class="fil1 str1" d="M38.22 51.55l0.51 0c1.69,0 2.1,-0.21 1.61,-1.43l-1.6 -0.18 -0.52 0.03c-2.34,0 -2.33,1.57 0,1.57z"/>
   <path class="fil2 str2" d="M27.02 24.93l1.87 0.01 0.2 -1.5c-1.86,-1.05 -3.41,0.14 -2.07,1.49z"/>
   <path class="fil1 str1" d="M42.12 50.77c0.55,1.2 2,0.91 2,-0 0,-0.92 -1.51,-1.18 -2,0z"/>
  </g>
 </g>
</svg>
