<?xml version="1.0" encoding="UTF-8"?>
<!DOCTYPE svg PUBLIC "-//W3C//DTD SVG 1.1//EN" "http://www.w3.org/Graphics/SVG/1.1/DTD/svg11.dtd">
<!-- Creator: CorelDRAW -->
<svg xmlns="http://www.w3.org/2000/svg" xml:space="preserve" width="17.6505mm" height="17.6596mm" version="1.1" style="shape-rendering:geometricPrecision; text-rendering:geometricPrecision; image-rendering:optimizeQuality; fill-rule:evenodd; clip-rule:evenodd"
viewBox="0 0 53.28 53.31"
 xmlns:xlink="http://www.w3.org/1999/xlink"
 xmlns:xodm="http://www.corel.com/coreldraw/odm/2003">
 <defs>
  <style type="text/css">
   <![CDATA[
    .fil1 {fill:#13BD24}
    .fil0 {fill:#211E1C}
   ]]>
  </style>
 </defs>
 <g id="Camada_x0020_1">
  <metadata id="CorelCorpID_0Corel-Layer"/>
  <g id="_2550251570768">
   <path class="fil0" d="M32.5 53.25l0 0.06 -11.3 -0.11 0 0.09 -21.14 -0.06 0 -2.48c0,-2.11 -0.07,-4.23 -0.06,-6.34 0,-1.35 0.03,-2.92 0.65,-4.15 0.75,-1.49 2.09,-2.08 3.59,-2.3l0.04 -5.79 3.41 -0 1.1 -17.27c-0.93,-2.01 -0.82,-4.26 0.33,-6.24 1.12,-1.91 2.1,-2.43 4,-3.39l1.35 -0.68c1.49,-2.16 4.42,-3.4 7,-3.22l0.8 0.05c2.82,-1.98 7.13,-2 9.49,0.67 2,2.26 2.26,5.38 0.73,7.95 -0.07,0.11 -0.13,0.22 -0.21,0.33 0.83,-0.84 1.9,-1.46 3.15,-1.74l0.36 -0.08c0.27,-0.43 0.6,-0.82 0.97,-1.19 1.52,-1.53 3.32,-2.25 5.48,-2.13l0.81 0.04c1.95,-1.37 4.65,-1.71 6.81,-0.67 2.8,1.34 4.06,4.4 3.13,7.33 -0.96,3.03 -3.79,4.78 -6.9,4.84l-1.17 0.02c-0.87,0.6 -1.76,0.94 -2.71,1.09l-0.06 0.11c-0.23,0.4 -0.51,0.77 -0.82,1.09l0.79 13.1 3.84 -0 -0.06 5.8c1.51,0.22 2.86,0.82 3.62,2.35 0.61,1.23 0.64,2.8 0.65,4.15 0.01,2.11 -0.06,4.22 -0.06,6.33l0 2.5 -17.6 -0.03zm-1.63 -35.66c-0.91,-2.08 -0.61,-4.4 0.55,-6.18 -1.56,1.61 -3.79,2.48 -6.08,2.4l-0.98 -0.03c-0.83,0.56 -1.79,0.98 -2.76,1.21l-0.84 0.88c-0.24,0.25 -0.47,0.49 -0.71,0.71l0.97 15.58 8.92 -0 0.93 -14.57z"/>
  </g>
  <g id="_2550251571008">
   <path class="fil1" d="M2.56 50.75l16.16 0.04c0,-8.91 -1.49,-7.31 6.3,-7.31 8.02,0 6.43,-1.37 6.43,7.28l16.16 0.03c0,-11.11 1.07,-10.43 -5.86,-10.43l-33.25 0c-7.07,0 -5.94,-0.77 -5.94,10.38z"/>
   <polygon class="fil1" points="6.72,38.9 43.4,38.96 43.44,34.66 6.75,34.66 "/>
   <path class="fil1" d="M21.31 6.59c-0.85,-1.06 -0.46,-1.61 -0.02,-2.75 -2.89,-0.2 -5.18,1.86 -5.32,3.63 -0.12,1.47 1.26,1.19 0.28,2.07 -1.31,1.26 -1.66,-1.67 -2.01,-2.06 -1.59,0.8 -2.16,1.04 -2.98,2.43 -0.86,1.47 -0.82,3.11 0.11,4.53 0.65,1 2.01,1.9 3.92,1.75 1.89,-0.15 2.88,-1.21 3.66,-2.03 -0.46,-0.32 -1.6,-0.63 -1.77,-1.4 -0.22,-1.01 -0.02,-0.61 0.32,-0.86 0.84,-0.7 0.6,0.59 1.94,0.79 1.87,0.27 4.16,-1.05 4.72,-2.28 0.47,-1.04 -0.31,-2 1.36,-1.81 0.48,1.09 0.18,1.68 -0.1,2.74 4.39,0.15 7.22,-4.46 4.45,-7.59 -1.7,-1.92 -5.55,-1.55 -7.17,0.67 -0.87,1.18 0.36,2.18 -1.4,2.19z"/>
   <path class="fil1" d="M10.11 33.25l8.48 -0 -1.01 -16.19c-3.32,0.93 -3.73,0.72 -6.4,-0.64l-1.07 16.83z"/>
   <path class="fil1" d="M42.09 7.7c-1.71,-0.09 -2.75,0.56 -3.58,1.4 -2.24,2.26 0.27,2.82 -0.7,3.72 -1.36,0.92 -1.45,-0.91 -1.84,-1.77 -2.27,0.51 -4.19,3.4 -2.55,6.05 1.31,2.12 5.17,2.03 6.56,-0.37 -0.88,-0.23 -2.05,-0.88 -1.33,-1.89 0.98,-0.67 0.96,0.04 1.43,0.55 1.53,0.21 2.54,-0.02 3.53,-0.74 1.78,-1.3 0.81,-1.27 1.44,-2.79 1.82,-0.27 1.37,1.29 0.99,2.42 4.94,-0.09 6.34,-5.71 2.73,-7.43 -2,-0.96 -4.25,0.11 -5.13,1.24 -0.71,0.92 -0.01,2.34 -1.21,2.1 -1.14,-0.23 -0.55,-1.87 -0.34,-2.47z"/>
   <path class="fil1" d="M32.36 33.25l7.32 0 -0.83 -13.69c-2.8,0.81 -3.35,0.53 -5.58,-0.53l-0.91 14.22z"/>
   <polygon class="fil1" points="20.16,50.7 30,50.8 29.99,44.88 20.21,44.89 "/>
   <path class="fil1" d="M11.51 41.9l-0.13 2.7c0.01,1.56 0.38,1.32 2.91,1.32 1.62,0 1.36,-0.04 1.36,-2.92 0,-1.32 -0.57,-1.32 -3.01,-1.21l-1.13 0.11z"/>
   <path class="fil1" d="M5.32 41.9l-0.13 2.69c0.01,1.56 0.4,1.32 2.9,1.32 1.62,0 1.36,-0.02 1.36,-2.92 0,-1.31 -0.56,-1.33 -3.01,-1.21l-1.12 0.11z"/>
   <path class="fil1" d="M34.55 43c0,3.32 -0.45,2.9 3.07,2.9 1.47,0 1.16,-0.71 1.16,-2.9 0,-1.44 -0.51,-1.19 -2.82,-1.19 -1.21,0 -1.42,-0 -1.42,1.19z"/>
   <path class="fil1" d="M40.74 43c0,3.19 -0.3,2.9 2.86,2.9 1.71,0 1.38,-0.65 1.38,-2.1 -0,-2.11 0.24,-1.99 -2.82,-1.99 -1.21,0 -1.42,-0.01 -1.42,1.19z"/>
   <polygon class="fil1" points="42.23,44.49 43.46,44.48 43.53,43.28 42.19,43.21 "/>
   <polygon class="fil1" points="36.04,44.48 37.27,44.48 37.34,43.28 36,43.21 "/>
   <path class="fil1" d="M5.21 43.14c0,3.32 -0.45,2.9 3.07,2.9 1.47,0 1.16,-0.71 1.16,-2.9 0,-1.44 -0.51,-1.19 -2.82,-1.19 -1.21,0 -1.42,-0 -1.42,1.19z"/>
   <path class="fil1" d="M11.4 43.14c0,3.19 -0.3,2.9 2.86,2.9 1.71,0 1.38,-0.65 1.38,-2.1 -0,-2.11 0.24,-1.99 -2.82,-1.99 -1.21,0 -1.42,-0.01 -1.42,1.19z"/>
   <polygon class="fil1" points="12.89,44.63 14.12,44.62 14.19,43.43 12.85,43.35 "/>
   <polygon class="fil1" points="6.7,44.63 7.92,44.62 8,43.42 6.66,43.35 "/>
  </g>
 </g>
</svg>
