<?xml version="1.0" encoding="UTF-8"?>
<!DOCTYPE svg PUBLIC "-//W3C//DTD SVG 1.1//EN" "http://www.w3.org/Graphics/SVG/1.1/DTD/svg11.dtd">
<!-- Creator: CorelDRAW -->
<svg xmlns="http://www.w3.org/2000/svg" xml:space="preserve" width="16.8456mm" height="16.8533mm" version="1.1" style="shape-rendering:geometricPrecision; text-rendering:geometricPrecision; image-rendering:optimizeQuality; fill-rule:evenodd; clip-rule:evenodd"
viewBox="0 0 48.8 48.83"
 xmlns:xlink="http://www.w3.org/1999/xlink"
 xmlns:xodm="http://www.corel.com/coreldraw/odm/2003">
 <defs>
  <style type="text/css">
   <![CDATA[
    .str1 {stroke:#373435;stroke-width:0.58;stroke-miterlimit:22.9256}
    .str0 {stroke:#9F6C4A;stroke-width:0.58;stroke-miterlimit:22.9256}
    .fil1 {fill:#13BD24}
    .fil0 {fill:#90674B}
   ]]>
  </style>
 </defs>
 <g id="Camada_x0020_1">
  <metadata id="CorelCorpID_0Corel-Layer"/>
  <g id="_2550254997552">
   <path class="fil0 str0" d="M7.22 13.91c0,-1.08 -0.01,-2.16 -0,-3.24 0.01,-1.73 0.19,-2.13 1.36,-2.8 -0,-1.77 0.01,-4.04 0.98,-5.45 1.35,-1.94 4.23,-2.08 6.36,-2.08 4.45,0 8.9,0 13.35,0 1.94,0 4.02,-0.24 5.91,0.28 2.62,0.72 3.7,2.69 3.74,5.34 0.06,4.37 -0,8.73 -0,13.1 0.11,0.08 0.31,0.18 0.36,0.22 0.71,0.48 0.94,1.2 0.99,2.02 0.06,0.97 0.02,1.95 0.01,2.92 0.18,0.09 0.38,0.18 0.56,0.27 -0.1,-3.04 -0.35,-8.37 0.9,-9.87 1.34,-1.61 3.87,-1.83 5.42,-0.39 1.61,1.51 1.28,3.33 1.28,5.31 -0,3.89 0.05,7.77 0.06,11.66 0.01,2.28 0.01,4.55 -0.02,6.83 -0.01,1.03 0.03,2.87 -0.17,3.85l-0.12 0.57 -0.22 0.06 0.24 0.06 0.11 0.58c0.39,1.97 0.48,5.02 -2.16,5.34l-0.06 0.01 -39.56 0.02c-1.16,0 -2.42,0.05 -3.57,-0.06 -0.83,-0.08 -1.67,-0.28 -2.18,-1.01 -0.47,-0.67 -0.49,-1.57 -0.49,-2.36 0,-1.22 0.07,-2.44 0.07,-3.66 0,-3.98 -0.03,-7.95 -0.03,-11.93 -0,-2.38 -0,-4.76 0.02,-7.14 0.01,-0.67 -0.03,-3.17 0.16,-3.75 0.41,-1.18 4.78,-3.75 6.7,-4.71zm38.84 28.57c-0.54,-0.33 -0.84,-1 -0.91,-1.84 -0.09,-1.08 -0,-2.32 0.04,-3.48 -0.14,-0 -0.27,-0 -0.39,-0.01 -0.85,-0.02 -1.71,-0.03 -2.56,-0.04 -0.67,-0.01 -1.35,-0.01 -2.02,-0.02 0.63,0.13 1.19,0.4 1.56,0.87l0.1 0.12 0.05 0.15c0.64,1.81 0.06,4.36 -1.26,5.74 -0.65,0.68 -1.18,1.09 -1.71,1.34 0.68,-0.01 1.36,-0.02 2.04,-0.02 0.83,0 3.26,0.15 4.25,0 0.01,-0.36 -0.07,-1.09 -0.05,-1.34 0.04,-0.77 0.37,-1.24 0.86,-1.47zm-7.89 -5.4c-1.07,-0 -2.14,-0.01 -3.21,-0.01 -1.08,0 -2.16,0 -3.24,0.01 1.21,0.22 2.36,0.77 3.23,1.61 0.61,-0.6 1.28,-1.06 2.18,-1.36 0.31,-0.1 0.66,-0.19 1.04,-0.25zm-8.59 0.01c-0.64,0 -1.27,0.01 -1.91,0.02 -0.85,0.01 -1.71,0.02 -2.56,0.04 -0.12,0 -0.26,0 -0.41,0.01 0,1.43 0,2.85 0,4.28 0,0.68 -0.13,2.93 0,3.88 0.4,0.01 0.84,0 1.2,0 1.07,0.01 2.15,0.01 3.22,0 0.61,-0 1.23,0 1.85,0.01 -0.58,-0.26 -1.14,-0.7 -1.84,-1.45 -1.24,-1.33 -1.77,-3.92 -1.16,-5.65l0.03 -0.07 0.04 -0.07c0.31,-0.55 0.89,-0.86 1.53,-1z"/>
  </g>
  <g id="_2550254996256">
   <path class="fil1 str1" d="M9.51 8.43c-1.16,0.63 -1.34,0.53 -1.36,2.25 -0.01,1.27 0.01,2.55 0,3.83 -1.01,0.44 -6.45,3.55 -6.75,4.42 -0.23,0.66 -0.1,20.06 -0.1,22.51 0,6.4 -1.08,6.15 5.23,6.15l39.51 -0.02c1.8,-0.22 1.68,-2.54 1.35,-4.23 -2.2,-0.58 -0.68,1.95 -1.43,2.71 -0.4,0.4 -4.36,0.19 -4.96,0.19 -1.71,0 -3.61,0.08 -5.3,-0.02l-0.07 -1.28c2.49,-0.23 2.93,-0.11 4.36,-1.61 0.92,-0.96 1.63,-3.12 1.05,-4.78 -0.64,-0.8 -2.47,-0.71 -3.61,-0.32 -1.17,0.39 -1.87,1.13 -2.51,1.89 -1.69,-2.55 -5.48,-2.59 -6.05,-1.57 -0.56,1.58 0.11,3.77 0.96,4.69 1.45,1.55 1.91,1.47 4.44,1.7l-0.02 1.28c-0.93,0.05 -9.89,0.09 -10.15,0.01 -0.57,-0.19 -0.33,-3.65 -0.33,-4.78 0,-1.72 0,-3.44 0,-5.16 0.88,-0.2 21.5,-0.2 22.38,0 0,3.69 -0.58,5.9 1.24,5.42 0.32,-1.52 0.11,-19.05 0.12,-22.14 0,-2.02 0.29,-3.44 -0.98,-4.62 -1.25,-1.17 -3.15,-0.78 -4.05,0.3 -1.15,1.38 -0.65,8.28 -0.65,10.61 -0.66,-0.04 -1.75,-0.76 -2.48,-0.99 -0,-1.1 0.06,-2.41 -0,-3.48 -0.1,-1.64 -0.98,-1.15 -1.35,-1.99 0,-4.45 0.07,-8.95 0,-13.39 -0.08,-5.6 -5.14,-4.7 -8.71,-4.7 -4.45,0 -8.9,0 -13.35,0 -6.39,-0 -6.38,2.09 -6.41,7.14z"/>
   <path class="fil1 str1" d="M2.82 46.11c0.75,0.38 17.15,0.12 19.51,0.12l0.1 -20.19 -19.5 0 -0.11 20.07z"/>
   <path class="fil1 str1" d="M10.89 8.49l3.3 -0.02c0.1,-2.75 0.4,-2.49 2.99,-2.48 1.33,0 4.45,-0.14 5.43,0.16 0.44,1.68 -1.3,1.2 -2.73,1.2 -1.41,-0 -2.83,0 -4.24,0l0.12 1.15c1.71,1.19 1.08,1.57 1.15,5.9 0.71,0.6 2.23,1.39 3.12,1.93 0.78,0.47 2.56,1.38 3.16,1.9 1.08,0.94 0.57,7.76 0.57,9.76 0.58,-0.02 4.74,-2.11 6,-2.69 1.36,-0.62 0.61,-0.48 0.82,-3.93 0.1,-1.62 0.97,-1.12 1.35,-1.99l-0.01 -12.01c-1.86,-0.11 -6.5,0.3 -7.73,-0.23l0.01 -0.95c0.96,-0.38 4.13,-0.2 5.43,-0.2 4.64,-0 3.65,-1.34 3.65,13.59l3.34 0.06c0,-4.1 -0,-8.15 0,-12.2 0.01,-5.44 -1.48,-4.79 -7.35,-4.79 -4.03,0 -8.06,0 -12.09,0 -5.47,0 -6.66,-0.12 -6.29,5.85z"/>
   <path class="fil1 str1" d="M23.77 29.86l-0.27 1.33 22.65 0c-0,-2.11 0.21,-1.5 -2.69,-2.89 -1.35,-0.64 -7.85,-3.98 -8.39,-3.96l-8.47 3.92c-0.9,0.45 -2.34,0.78 -2.82,1.6z"/>
   <path class="fil1 str1" d="M2.65 19.55l0.05 1.41 19.71 -0c0.03,-2.37 0.35,-1.3 -4.83,-4.52 -0.61,-0.38 -4.68,-2.86 -4.97,-2.9l-9.37 5.41c-0.6,0.42 -0.29,0.09 -0.59,0.6z"/>
   <path class="fil1 str1" d="M10.72 38.18c-0.42,1.4 -2.24,3.92 -0.66,4.8 1,0.56 1.59,-0.14 2.1,-0.61 0.99,-0.91 4.9,-4.46 5.15,-4.99 0.9,-1.92 -1.96,-2.38 -2.95,-3.37 0.33,-1.25 2.08,-3.7 0.84,-4.71 -1.28,-1.04 -2.41,0.68 -3.93,2.04l-3.41 3.29c-1.23,1.84 1.72,2.52 2.85,3.54z"/>
   <polygon class="fil1 str1" points="23.77,34.83 46.14,34.83 46.14,32.54 23.77,32.54 "/>
   <polygon class="fil1 str1" points="2.65,24.52 22.4,24.6 22.4,22.31 2.68,22.32 "/>
   <path class="fil1 str1" d="M43.16 26.69l2.92 1.36c0.17,-1.73 0.06,-8.29 0.06,-10.49 0,-1.28 -0.57,-2.32 -1.98,-1.9 -1.22,0.36 -1.01,1.73 -1,2.98 0.01,2.68 0,5.36 0,8.05z"/>
   <path class="fil1 str1" d="M9.04 35.47c1,0.86 2.48,1.19 3.21,2.17 -0.01,1.1 -1.12,2.74 -1.42,4.02 0.51,-0.24 4.65,-4.2 5.19,-4.92l-3.18 -1.94c-0.12,-1.41 1.11,-2.96 1.4,-4.34 -0.48,0.38 -5,4.55 -5.21,5.02z"/>
   <path class="fil1 str1" d="M9.51 13.51c0.93,-0.13 1.95,-1.36 2.98,-1.38 0.96,-0.02 2.16,1.1 3.06,1.46l-0.07 -3.7c-1.27,-0.18 -3.47,-0.06 -4.82,-0.07 -1.52,-0.01 -1.16,-0.09 -1.16,3.68z"/>
   <path class="fil1 str1" d="M31.94 24.18c0.6,-0.23 2.44,-1.17 2.94,-1.23 1.07,-0.13 2.08,0.81 3.07,1.1l0 -3.03 -5.97 -0.03 -0.05 3.18z"/>
   <path class="fil1 str1" d="M34.22 43.51c0.41,-3.03 -1.3,-4.17 -4.13,-4.17 0,2.9 1.13,4.37 4.13,4.17z"/>
   <path class="fil1 str1" d="M35.68 43.51c3,0.2 4.13,-1.27 4.13,-4.17 -2.83,0 -4.54,1.14 -4.13,4.17z"/>
  </g>
 </g>
</svg>
